<svg width="75" height="75" viewBox="0 0 75 75" fill="none" xmlns="http://www.w3.org/2000/svg">
<path d="M59.192 15.8261C59.192 15.8217 59.1903 15.8175 59.1872 15.8144C59.1841 15.8113 59.1799 15.8095 59.1755 15.8095H38.0475C38.044 15.8095 38.0407 15.8083 38.0379 15.8062C38.0351 15.8041 38.0331 15.8012 38.032 15.7979C38.031 15.7946 38.031 15.791 38.0321 15.7877C38.0333 15.7844 38.0354 15.7815 38.0382 15.7795L39.9609 14.4266C39.9644 14.4241 39.9668 14.4203 39.9676 14.4161C39.9683 14.4118 39.9674 14.4074 39.965 14.4038L39.5341 13.7755C39.5316 13.772 39.5278 13.7696 39.5235 13.7688C39.5192 13.768 39.5149 13.769 39.5113 13.7714L13.1779 32.2971C13.1743 32.2996 13.1719 32.3034 13.1712 32.3077C13.1704 32.3119 13.1713 32.3163 13.1737 32.3199L13.6036 32.9482C13.6049 32.95 13.6065 32.9516 13.6083 32.9528C13.6102 32.954 13.6123 32.9548 13.6144 32.9552C13.6166 32.9555 13.6188 32.9555 13.621 32.955C13.6231 32.9545 13.6252 32.9536 13.6269 32.9523L15.7837 31.4352C15.7862 31.4335 15.7892 31.4325 15.7922 31.4324C15.7952 31.4322 15.7982 31.4329 15.8009 31.4344C15.8036 31.4358 15.8058 31.4379 15.8073 31.4406C15.8089 31.4432 15.8097 31.4462 15.8096 31.4492L15.8091 59.1759C15.8091 59.1803 15.8108 59.1845 15.8139 59.1876C15.8171 59.1907 15.8213 59.1925 15.8257 59.1925H59.1755C59.1799 59.1925 59.1841 59.1907 59.1872 59.1876C59.1903 59.1845 59.192 59.1803 59.192 59.1759V15.8261Z" stroke="#939395" stroke-width="2"/>
<path d="M16.5607 44.8876L16.5622 58.4078C16.5622 58.4271 16.5717 58.4368 16.5907 58.4368L38.4324 58.4357" stroke="#D3E5B5" stroke-width="2"/>
<path d="M38.4324 58.4358L51.0384 58.4391" stroke="#939395" stroke-width="2"/>
<path d="M51.0383 58.4383L58.4176 58.4352C58.42 58.4352 58.4224 58.4348 58.4246 58.4338C58.4268 58.4329 58.4288 58.4316 58.4305 58.4299C58.4322 58.4282 58.4335 58.4262 58.4344 58.424C58.4353 58.4218 58.4358 58.4195 58.4358 58.4171L58.4441 53.813" stroke="#D3E5B5" stroke-width="2"/>
<path d="M58.4445 53.813L58.4431 25.6885" stroke="#939395" stroke-width="2"/>
<path d="M58.4431 25.6885L58.4358 16.5932C58.4358 16.5759 58.4272 16.5671 58.4099 16.5668C57.7454 16.5585 57.0897 16.5808 56.4044 16.5813C54.68 16.5827 53.3452 16.5803 52.4001 16.574C51.951 16.5709 51.5175 16.5885 51.0747 16.5777C50.5964 16.5663 50.1289 16.5647 49.672 16.573C47.9612 16.6046 46.2675 16.5658 44.6375 16.5828C44.3592 16.5856 44.0805 16.578 43.8015 16.5601" stroke="#D3E5B5" stroke-width="2"/>
<path d="M43.8015 16.5601C41.5477 16.5587 39.2919 16.5566 37.0339 16.5538C36.9697 16.5535 36.9114 16.5718 36.8589 16.6087C30.1009 21.3629 23.3423 26.1175 16.583 30.8727C16.5678 30.8834 16.5602 30.8981 16.5602 30.9168L16.5607 44.8876" stroke="#939395" stroke-width="2"/>
<path d="M43.8015 16.5601L43.799 21.1181C43.799 21.1388 43.8093 21.1491 43.83 21.1491L51.0193 21.1486C51.0238 21.1486 51.0281 21.1504 51.0313 21.1536C51.0345 21.1568 51.0363 21.1612 51.0363 21.1657L51.0369 25.6538C51.0369 25.6629 51.0405 25.6716 51.0469 25.678C51.0533 25.6844 51.062 25.688 51.071 25.688L58.4431 25.6885" stroke="#66794B" stroke-width="2"/>
<path d="M58.4441 53.813H51.0642C51.0568 53.813 51.0497 53.8159 51.0444 53.8212C51.0392 53.8264 51.0363 53.8335 51.0363 53.841L51.0383 58.4383" stroke="#66794B" stroke-width="2"/>
<path d="M38.4324 58.4357V53.8399C38.4324 53.8219 38.4232 53.813 38.4049 53.813L31.2209 53.8119C31.2153 53.8119 31.2099 53.8097 31.2059 53.8057C31.2019 53.8017 31.1997 53.7963 31.1997 53.7907L31.2002 49.3394C31.2002 49.3318 31.1972 49.3246 31.192 49.3192C31.1867 49.3139 31.1796 49.3109 31.1722 49.3109L23.9939 49.3124C23.9742 49.3124 23.9643 49.3026 23.9643 49.2829L23.9628 44.9191C23.9628 44.9103 23.9593 44.9019 23.9532 44.8957C23.9471 44.8895 23.9388 44.886 23.9301 44.886L16.5607 44.8875" stroke="#66794B" stroke-width="2"/>
<path d="M24.4942 31.9687C24.4958 31.9638 24.499 31.9595 24.5031 31.9565C24.5073 31.9534 24.5123 31.9517 24.5175 31.9516L26.4785 31.9527C26.4837 31.9527 26.4887 31.9544 26.4929 31.9575C26.4971 31.9606 26.5002 31.9648 26.5018 31.9698L26.9229 33.2098C26.9245 33.2147 26.9276 33.219 26.9318 33.222C26.936 33.2251 26.941 33.2268 26.9462 33.2268L28.0769 33.2258C28.0808 33.2258 28.0847 33.2248 28.0881 33.223C28.0916 33.2212 28.0946 33.2186 28.0968 33.2154C28.0991 33.2122 28.1006 33.2086 28.1012 33.2047C28.1018 33.2008 28.1014 33.1969 28.1002 33.1932L26.0942 27.289C26.0926 27.2841 26.0894 27.2798 26.0853 27.2767C26.0811 27.2737 26.0761 27.272 26.0709 27.2719L24.9257 27.2709C24.9205 27.2709 24.9155 27.2726 24.9113 27.2757C24.9071 27.2788 24.904 27.283 24.9024 27.288L22.8953 33.1932C22.8941 33.1969 22.8937 33.2008 22.8943 33.2047C22.8949 33.2086 22.8964 33.2122 22.8987 33.2154C22.9009 33.2186 22.9039 33.2212 22.9074 33.223C22.9109 33.2248 22.9147 33.2258 22.9186 33.2258L24.0508 33.2263C24.056 33.2263 24.0611 33.2246 24.0652 33.2215C24.0694 33.2185 24.0725 33.2142 24.0742 33.2092L24.4942 31.9687Z" stroke="#66794B" stroke-width="2"/>
<path d="M29.5163 31.1944C29.8612 31.1975 30.1977 31.197 30.5258 31.1928C30.9598 31.1876 31.4762 31.0815 31.8227 30.8069C31.9557 30.702 32.0846 30.5352 32.2096 30.3066C32.5964 29.6004 32.5969 28.8883 32.2112 28.17C32.1076 27.9777 32.0016 27.8306 31.8932 27.7287C31.485 27.346 30.8293 27.2677 30.2668 27.2698C29.5862 27.2722 28.917 27.2726 28.2592 27.2709C28.2502 27.2709 28.2457 27.2752 28.2457 27.2838V33.1932C28.2457 33.1976 28.2466 33.2019 28.2483 33.206C28.2499 33.21 28.2524 33.2137 28.2555 33.2168C28.2586 33.2199 28.2622 33.2223 28.2662 33.2239C28.2703 33.2256 28.2745 33.2264 28.2789 33.2263L29.4624 33.2258C29.4698 33.2258 29.4769 33.2228 29.4822 33.2174C29.4874 33.2121 29.4904 33.2049 29.4904 33.1973L29.4893 31.2213C29.4893 31.203 29.4983 31.194 29.5163 31.1944Z" stroke="#66794B" stroke-width="2"/>
<path d="M34.2007 28.3348L36.7335 28.3379C36.7529 28.3379 36.7625 28.3283 36.7625 28.3089L36.7641 27.2984C36.7642 27.2949 36.7635 27.2915 36.7623 27.2883C36.761 27.2851 36.7591 27.2822 36.7567 27.2797C36.7543 27.2773 36.7514 27.2753 36.7482 27.274C36.745 27.2727 36.7416 27.272 36.7382 27.272L32.9509 27.2725C32.9484 27.2725 32.946 27.273 32.9438 27.2739C32.9415 27.2748 32.9394 27.2762 32.9377 27.278C32.936 27.2797 32.9346 27.2817 32.9337 27.284C32.9327 27.2863 32.9323 27.2887 32.9323 27.2911L32.9333 33.1881C32.9333 33.1978 32.9372 33.2072 32.9442 33.2141C32.9512 33.221 32.9607 33.2248 32.9706 33.2248C33.734 33.2276 34.4675 33.2274 35.1709 33.2243C35.7624 33.2217 36.4424 33.0658 36.7853 32.5261C37.1194 31.9999 37.2805 31.4156 37.1308 30.7961C37.036 30.4041 36.7895 29.8788 36.4362 29.6411C36.0633 29.3904 35.5728 29.3106 35.1305 29.3055C34.8345 29.3017 34.5248 29.301 34.2012 29.3034C34.198 29.3035 34.1948 29.3029 34.1918 29.3017C34.1888 29.3005 34.186 29.2987 34.1837 29.2964C34.1814 29.2942 34.1795 29.2915 34.1783 29.2885C34.177 29.2855 34.1764 29.2823 34.1764 29.2791L34.1774 28.3581C34.1774 28.3519 34.1799 28.346 34.1842 28.3416C34.1886 28.3373 34.1945 28.3348 34.2007 28.3348Z" stroke="#66794B" stroke-width="2"/>
<path d="M38.4546 27.594C37.8222 27.9867 37.6098 28.8988 37.5907 29.6224C37.5779 30.0889 37.5791 30.541 37.5943 30.9789C37.615 31.5756 37.816 32.4261 38.3267 32.8192C38.6297 33.0528 39.0104 33.1621 39.3921 33.2025C40.1297 33.2802 41.0993 33.2367 41.6131 32.684C42.027 32.2386 42.1917 31.501 42.2067 30.8903C42.216 30.5001 42.217 30.1035 42.2098 29.7006C42.2005 29.193 42.1145 28.6849 41.8902 28.226C41.6628 27.7608 41.2946 27.4894 40.801 27.3703C40.1178 27.2056 39.0844 27.203 38.4546 27.594Z" stroke="#66794B" stroke-width="2"/>
<path d="M46.268 28.3462L46.267 33.188C46.267 33.2136 46.2798 33.2264 46.3053 33.2264L47.4847 33.2253C47.4913 33.2253 47.4976 33.2227 47.5023 33.2179C47.507 33.2131 47.5096 33.2067 47.5096 33.1999V27.2973C47.5096 27.2907 47.507 27.2844 47.5023 27.2797C47.4976 27.2751 47.4913 27.2725 47.4847 27.2725L43.47 27.273C43.4511 27.273 43.4416 27.2825 43.4416 27.3015C43.4412 28.4109 43.4421 29.5135 43.4441 30.6091C43.4448 30.8453 43.4112 31.0993 43.3431 31.371C43.2173 31.8745 42.9547 32.1366 42.4424 32.1656C42.433 32.1661 42.4242 32.1702 42.4177 32.1771C42.4113 32.1839 42.4077 32.193 42.4077 32.2024V33.1979C42.4077 33.2019 42.4085 33.2059 42.4101 33.2097C42.4117 33.2134 42.414 33.2168 42.4168 33.2197C42.4197 33.2225 42.4232 33.2248 42.4269 33.2263C42.4307 33.2278 42.4347 33.2285 42.4388 33.2284C43.426 33.2134 44.1988 32.9508 44.5117 31.9108C44.6249 31.5344 44.6824 31.1585 44.6841 30.7832C44.6876 30.0049 44.6879 29.1879 44.6852 28.3322C44.6852 28.3253 44.6879 28.3187 44.6928 28.3139C44.6976 28.309 44.7042 28.3063 44.7111 28.3063L46.2287 28.3068C46.2549 28.3068 46.268 28.3199 46.268 28.3462Z" stroke="#66794B" stroke-width="2"/>
<path d="M49.1065 30.7837L49.1013 27.2968C49.1013 27.2903 49.0987 27.284 49.0942 27.2794C49.0896 27.2748 49.0834 27.2721 49.0769 27.2719L47.8722 27.2709C47.8689 27.2709 47.8657 27.2722 47.8634 27.2745C47.8611 27.2769 47.8597 27.28 47.8597 27.2833L47.8603 33.188C47.8603 33.1981 47.8642 33.2077 47.8713 33.2148C47.8784 33.2219 47.888 33.2258 47.8981 33.2258H49.1142C49.1236 33.2258 49.1329 33.2233 49.141 33.2185C49.1491 33.2136 49.1558 33.2067 49.1603 33.1984L51.0037 29.7441C51.0327 29.6896 51.0472 29.6932 51.0472 29.755L51.0478 33.1849C51.0478 33.1956 51.052 33.2059 51.0596 33.2135C51.0672 33.2211 51.0774 33.2253 51.0882 33.2253L52.266 33.2264C52.2857 33.2264 52.2955 33.2165 52.2955 33.1968L52.2976 27.2947C52.2976 27.2883 52.295 27.2821 52.2905 27.2775C52.2859 27.2729 52.2797 27.2704 52.2732 27.2704L51.0467 27.2725C51.0353 27.2724 51.024 27.2755 51.0142 27.2814C51.0044 27.2872 50.9963 27.2956 50.9908 27.3056L49.1318 30.7899C49.1149 30.822 49.1065 30.8199 49.1065 30.7837Z" stroke="#66794B" stroke-width="2"/>
<path d="M55.4188 28.3716C55.4188 28.3644 55.4216 28.3576 55.4267 28.3525C55.4317 28.3475 55.4386 28.3447 55.4457 28.3447L57.0555 28.3452C57.0627 28.3452 57.0695 28.3423 57.0746 28.3373C57.0796 28.3322 57.0824 28.3254 57.0824 28.3182L57.0819 27.2989C57.0819 27.2918 57.0791 27.2849 57.074 27.2799C57.069 27.2748 57.0621 27.272 57.055 27.272H52.5679C52.5608 27.272 52.554 27.2748 52.5489 27.2799C52.5439 27.2849 52.541 27.2918 52.541 27.2989L52.5472 28.3172C52.5472 28.3244 52.5501 28.3312 52.5551 28.3363C52.5602 28.3413 52.567 28.3441 52.5742 28.3441L54.1798 28.3426C54.187 28.3426 54.1938 28.3454 54.1989 28.3505C54.2039 28.3555 54.2068 28.3624 54.2068 28.3695L54.2073 33.2005C54.2073 33.2076 54.2101 33.2145 54.2152 33.2195C54.2202 33.2246 54.2271 33.2274 54.2342 33.2274L55.3924 33.2259C55.3995 33.2259 55.4064 33.223 55.4114 33.218C55.4165 33.2129 55.4193 33.2061 55.4193 33.1989L55.4188 28.3716Z" stroke="#66794B" stroke-width="2"/>
<path d="M54.8179 35.0081C54.4539 35.0475 54.2422 34.8781 54.1828 34.5C54.177 34.4624 54.1549 34.4436 54.1165 34.4436L53.3246 34.4425C53.3215 34.4425 53.3185 34.4431 53.3158 34.4444C53.313 34.4456 53.3105 34.4475 53.3084 34.4497C53.3064 34.452 53.3048 34.4548 53.3039 34.4577C53.3029 34.4607 53.3025 34.4638 53.3028 34.4669C53.3779 35.1086 53.7985 35.7074 54.4713 35.7991C54.9551 35.8654 55.4135 35.7571 55.7429 35.3785C55.9646 35.1236 56.0967 34.826 56.1392 34.4855C56.143 34.4569 56.1304 34.4425 56.1014 34.4425L55.3011 34.442C55.2894 34.442 55.2781 34.4465 55.2696 34.4546C55.261 34.4626 55.2558 34.4737 55.255 34.4855C55.2369 34.7445 55.0944 34.9786 54.8179 35.0081Z" stroke="#939395" stroke-width="2"/>
<path d="M21.6511 42.2533L21.6501 43.0478C21.6501 43.0564 21.6535 43.0645 21.6595 43.0705C21.6655 43.0766 21.6737 43.08 21.6822 43.08L22.8513 43.0794C22.8823 43.0794 22.8979 43.0639 22.8979 43.0328L22.8984 41.2293C22.8984 41.2089 22.8882 41.1987 22.8678 41.1987L22.4105 41.1967C22.4073 41.1967 22.4042 41.1961 22.4014 41.1949C22.3985 41.1937 22.3958 41.192 22.3936 41.1898C22.3914 41.1877 22.3897 41.1851 22.3885 41.1823C22.3873 41.1795 22.3866 41.1764 22.3866 41.1734V36.2958C22.3866 36.2927 22.386 36.2897 22.3848 36.2869C22.3836 36.284 22.3819 36.2815 22.3797 36.2793C22.3775 36.2771 22.3748 36.2754 22.3719 36.2742C22.369 36.2731 22.3659 36.2725 22.3628 36.2725L18.3367 36.273C18.3216 36.273 18.314 36.2806 18.314 36.2958C18.3129 37.149 18.3115 37.9864 18.3098 38.8079C18.3091 39.1621 18.2913 39.5086 18.2565 39.8474C18.2093 40.3073 18.1182 40.7435 17.867 41.1366C17.8414 41.177 17.8048 41.1975 17.7572 41.1982C17.6083 41.2003 17.4559 41.1998 17.2998 41.1967C17.297 41.1967 17.2943 41.1972 17.2917 41.1982C17.2891 41.1993 17.2868 41.2008 17.2848 41.2027C17.2828 41.2047 17.2812 41.2069 17.2802 41.2095C17.2791 41.212 17.2786 41.2147 17.2786 41.2174L17.2801 43.0572C17.2801 43.0631 17.2824 43.0687 17.2865 43.0729C17.2906 43.0771 17.2961 43.0794 17.3019 43.0794L18.4906 43.08C18.513 43.08 18.5242 43.0687 18.5242 43.0463L18.5248 42.245C18.5248 42.2403 18.5266 42.2359 18.5298 42.2326C18.533 42.2293 18.5373 42.2274 18.5419 42.2274H21.6258C21.6427 42.2274 21.6511 42.236 21.6511 42.2533Z" stroke="#939395" stroke-width="2"/>
<path d="M23.4204 37.3275C23.2575 37.7146 23.1694 38.1326 23.1563 38.5815C23.1445 38.9841 23.1444 39.4253 23.1558 39.9049C23.1677 40.4265 23.2827 40.9729 23.5504 41.4256C24.0352 42.2435 25.1276 42.289 26.0097 42.1968C26.7048 42.1243 27.2347 41.8151 27.5107 41.1558C27.6654 40.7863 27.7504 40.3683 27.7656 39.9018C27.7811 39.4394 27.7813 38.998 27.7661 38.5774C27.7499 38.1292 27.6665 37.7234 27.5159 37.3602C27.2725 36.7718 26.8327 36.4424 26.2039 36.3357C25.6842 36.2473 25.1711 36.2511 24.6646 36.3471C24.0624 36.461 23.6476 36.7878 23.4204 37.3275Z" stroke="#66794B" stroke-width="2"/>
<path d="M29.3915 38.7446C29.3981 38.7404 29.4024 38.7401 29.4045 38.7435C29.7684 39.3768 30.15 40.0339 30.5491 40.7149C30.5539 40.7229 30.5606 40.7296 30.5686 40.7342C30.5766 40.7389 30.5856 40.7413 30.5947 40.7413L31.1997 40.7439C31.2097 40.7439 31.2196 40.7413 31.2284 40.7363C31.2371 40.7313 31.2443 40.7241 31.2494 40.7154C31.6424 40.0355 32.0188 39.3882 32.3786 38.7736C32.3862 38.7605 32.3967 38.7501 32.4102 38.7425C32.4113 38.7419 32.4125 38.7415 32.4138 38.7415C32.415 38.7415 32.4163 38.7419 32.4174 38.7425C32.4185 38.7431 32.4194 38.744 32.42 38.7451C32.4207 38.7462 32.421 38.7474 32.421 38.7487L32.4195 42.1911C32.4195 42.1955 32.4204 42.2 32.4221 42.2041C32.4238 42.2083 32.4263 42.212 32.4295 42.2152C32.4327 42.2184 32.4364 42.2209 32.4406 42.2226C32.4447 42.2244 32.4492 42.2252 32.4537 42.2252L33.6403 42.2263C33.6468 42.2263 33.6529 42.2237 33.6575 42.219C33.6621 42.2143 33.6646 42.208 33.6646 42.2014L33.6641 36.3055C33.6641 36.2838 33.6532 36.2729 33.6315 36.2729H32.4096C32.3889 36.2729 32.3736 36.2817 32.3635 36.2993L30.921 38.7653C30.9188 38.7691 30.9156 38.7722 30.9118 38.7743C30.9079 38.7765 30.9036 38.7776 30.8991 38.7775C30.8947 38.7775 30.8903 38.7763 30.8864 38.774C30.8826 38.7718 30.8793 38.7686 30.877 38.7648L29.4288 36.2895C29.4256 36.2841 29.4212 36.2796 29.4158 36.2766C29.4104 36.2735 29.4044 36.2718 29.3982 36.2719L28.165 36.2724C28.1457 36.2724 28.136 36.282 28.136 36.3014V42.1993C28.136 42.2169 28.145 42.2258 28.1629 42.2258H29.349C29.3533 42.2258 29.3575 42.2249 29.3614 42.2233C29.3654 42.2217 29.3689 42.2193 29.3719 42.2163C29.3749 42.2133 29.3773 42.2098 29.3789 42.2059C29.3804 42.202 29.3812 42.1978 29.3812 42.1936L29.378 38.7705C29.378 38.7594 29.3825 38.7508 29.3915 38.7446Z" stroke="#939395" stroke-width="2"/>
<path d="M34.3405 37.3073C34.1865 37.663 34.0984 38.0418 34.0763 38.4437C34.0549 38.8398 34.0487 39.2732 34.0577 39.7438C34.0743 40.5979 34.282 41.6639 35.1589 42.0285C35.4745 42.1594 35.8455 42.225 36.272 42.2253C36.7951 42.226 37.3248 42.2264 37.861 42.2264C37.88 42.2264 37.8895 42.2169 37.8895 42.1979V41.1879C37.8895 41.1847 37.8889 41.1815 37.8877 41.1786C37.8865 41.1757 37.8847 41.173 37.8825 41.1708C37.8803 41.1686 37.8777 41.1669 37.8748 41.1657C37.8719 41.1645 37.8688 41.164 37.8657 41.164C37.3515 41.1706 36.8414 41.1682 36.3351 41.1568C35.8524 41.1457 35.5492 40.9121 35.4256 40.456C35.3628 40.2233 35.3265 40.0314 35.3168 39.8805C35.2972 39.5601 35.2935 39.1937 35.306 38.7814C35.3149 38.4903 35.369 38.2036 35.4681 37.9211C35.6333 37.4493 36.056 37.3322 36.5102 37.3332C36.9349 37.3339 37.3849 37.3346 37.86 37.3353C37.8797 37.3357 37.8895 37.3258 37.8895 37.3058V36.2973C37.8895 36.2907 37.887 36.2844 37.8824 36.2797C37.8778 36.2751 37.8716 36.2725 37.8652 36.2725C37.3686 36.2728 36.8467 36.2735 36.2994 36.2745C35.4676 36.2756 34.6963 36.4859 34.3405 37.3073Z" stroke="#939395" stroke-width="2"/>
<path d="M39.7444 37.3441C39.7504 37.3441 39.7562 37.3465 39.7605 37.3508C39.7648 37.3551 39.7672 37.3609 39.7672 37.3669L39.7666 42.2031C39.7666 42.206 39.7672 42.209 39.7684 42.2118C39.7695 42.2145 39.7712 42.2171 39.7733 42.2192C39.7754 42.2213 39.7779 42.223 39.7807 42.2241C39.7835 42.2253 39.7864 42.2258 39.7894 42.2258H40.96C40.963 42.2258 40.966 42.2253 40.9687 42.2241C40.9715 42.223 40.974 42.2213 40.9761 42.2192C40.9782 42.2171 40.9799 42.2145 40.9811 42.2118C40.9822 42.209 40.9828 42.206 40.9828 42.2031L40.9818 37.3653C40.9818 37.3593 40.9842 37.3535 40.9884 37.3492C40.9927 37.345 40.9985 37.3426 41.0046 37.3426L42.6206 37.3436C42.6266 37.3436 42.6324 37.3412 42.6367 37.3369C42.641 37.3326 42.6434 37.3268 42.6434 37.3208L42.6423 36.2953C42.6423 36.2892 42.6399 36.2834 42.6357 36.2791C42.6314 36.2749 42.6256 36.2725 42.6195 36.2725L38.1278 36.2735C38.1218 36.2735 38.116 36.2759 38.1117 36.2802C38.1074 36.2844 38.105 36.2902 38.105 36.2963L38.104 37.3198C38.104 37.3228 38.1046 37.3257 38.1057 37.3285C38.1069 37.3313 38.1086 37.3338 38.1107 37.3359C38.1128 37.338 38.1153 37.3397 38.1181 37.3408C38.1208 37.342 38.1238 37.3426 38.1268 37.3426L39.7444 37.3441Z" stroke="#939395" stroke-width="2"/>
<path d="M44.1895 40.1933C44.4809 40.195 44.7879 40.1952 45.1104 40.1938C45.6491 40.1912 46.2908 40.068 46.6353 39.6577C46.8259 39.4309 46.9716 39.1541 47.0724 38.8275C47.2817 38.152 47.1066 37.4352 46.6793 36.866C46.2219 36.2563 45.2767 36.2662 44.5966 36.2708C44.0493 36.275 43.4997 36.275 42.9479 36.2708C42.9234 36.2705 42.9112 36.2827 42.9112 36.3076L42.9106 42.1994C42.9106 42.2064 42.9135 42.2131 42.9185 42.218C42.9236 42.223 42.9304 42.2258 42.9376 42.2258H44.1299C44.1465 42.2258 44.1548 42.2173 44.1548 42.2004L44.1537 40.2285C44.1537 40.205 44.1657 40.1933 44.1895 40.1933Z" stroke="#939395" stroke-width="2"/>
<path d="M47.7804 37.4596C47.6561 37.8025 47.5863 38.1511 47.5711 38.5053C47.5532 38.929 47.5525 39.4083 47.5691 39.9432C47.5856 40.4663 47.701 40.9325 47.9151 41.3417C48.1787 41.8456 48.6511 42.0994 49.1903 42.1782C49.692 42.2521 50.1778 42.2464 50.6478 42.1611C51.1 42.0797 51.5221 41.8534 51.7645 41.4587C52.0535 40.9879 52.1654 40.4197 52.1809 39.8572C52.1923 39.4332 52.1916 39.0124 52.1789 38.5949C52.1716 38.3584 52.1424 38.1193 52.0913 37.8776C51.9432 37.1794 51.5931 36.5998 50.87 36.3967C50.4149 36.269 49.8921 36.2396 49.3016 36.3087C48.5542 36.3967 48.0425 36.7344 47.7804 37.4596Z" stroke="#66794B" stroke-width="2"/>
<path d="M53.7902 39.7894V36.2973C53.7902 36.2941 53.7896 36.291 53.7884 36.288C53.7871 36.2851 53.7853 36.2824 53.783 36.2801C53.7807 36.2778 53.7779 36.2761 53.7749 36.2748C53.7719 36.2736 53.7686 36.273 53.7654 36.273L52.571 36.2725C52.5678 36.2725 52.5646 36.2731 52.5617 36.2744C52.5587 36.2756 52.556 36.2774 52.5538 36.2797C52.5515 36.2821 52.5497 36.2848 52.5485 36.2878C52.5473 36.2908 52.5466 36.2941 52.5466 36.2973V42.1999C52.5466 42.2067 52.5493 42.2131 52.5541 42.2179C52.5588 42.2227 52.5653 42.2253 52.572 42.2253L53.8167 42.2258C53.8217 42.2259 53.8266 42.2245 53.8308 42.222C53.8351 42.2194 53.8386 42.2157 53.841 42.2113L55.6968 38.7328C55.7238 38.6823 55.7372 38.6856 55.7372 38.7426V42.2025C55.7372 42.2181 55.745 42.2258 55.7605 42.2258H56.9617C56.9783 42.2258 56.9865 42.2176 56.9865 42.201V36.2968C56.9865 36.2813 56.9788 36.2735 56.9632 36.2735L55.7196 36.273C55.7121 36.273 55.7047 36.275 55.6982 36.279C55.6917 36.2829 55.6864 36.2885 55.6829 36.2953L53.8156 39.7956C53.7987 39.8274 53.7902 39.8253 53.7902 39.7894Z" stroke="#939395" stroke-width="2"/>
<path d="M58.2804 16.7129C58.2804 16.7079 58.2794 16.703 58.2775 16.6984C58.2756 16.6938 58.2728 16.6896 58.2693 16.6861C58.2658 16.6826 58.2616 16.6798 58.257 16.6779C58.2525 16.676 58.2475 16.675 58.2426 16.675H51.2636C51.2536 16.675 51.244 16.679 51.2369 16.6861C51.2298 16.6932 51.2258 16.7028 51.2258 16.7129V20.9249C51.2258 20.9349 51.2298 20.9445 51.2369 20.9516C51.244 20.9587 51.2536 20.9627 51.2636 20.9627H58.2426C58.2475 20.9627 58.2525 20.9617 58.257 20.9598C58.2616 20.9579 58.2658 20.9551 58.2693 20.9516C58.2728 20.9481 58.2756 20.9439 58.2775 20.9393C58.2794 20.9348 58.2804 20.9298 58.2804 20.9249V16.7129Z" stroke="#829464" stroke-width="2"/>
<path d="M51.0358 16.7119C51.0358 16.7024 51.032 16.6933 51.0253 16.6866C51.0186 16.6799 51.0095 16.6761 51 16.6761H44.0232C44.0185 16.6761 44.0138 16.6771 44.0095 16.6789C44.0052 16.6807 44.0012 16.6833 43.9979 16.6866C43.9946 16.6899 43.9919 16.6939 43.9901 16.6982C43.9884 16.7025 43.9874 16.7072 43.9874 16.7119V20.928C43.9874 20.9327 43.9884 20.9374 43.9901 20.9417C43.9919 20.9461 43.9946 20.95 43.9979 20.9533C44.0012 20.9566 44.0052 20.9593 44.0095 20.9611C44.0138 20.9629 44.0185 20.9638 44.0232 20.9638H51C51.0095 20.9638 51.0186 20.96 51.0253 20.9533C51.032 20.9466 51.0358 20.9375 51.0358 20.928V16.7119Z" stroke="#829464" stroke-width="2"/>
<path d="M58.2426 25.4979C58.2521 25.4979 58.2611 25.4941 58.2678 25.4874C58.2745 25.4807 58.2783 25.4716 58.2783 25.4621L58.2773 21.2625C58.2773 21.2531 58.2735 21.244 58.2668 21.2373C58.2601 21.2306 58.251 21.2268 58.2415 21.2268H51.2616C51.2569 21.2268 51.2522 21.2277 51.2479 21.2295C51.2436 21.2313 51.2396 21.234 51.2363 21.2373C51.233 21.2406 51.2303 21.2445 51.2286 21.2489C51.2268 21.2532 51.2258 21.2579 51.2258 21.2625L51.2263 25.4616C51.2263 25.4711 51.2301 25.4802 51.2368 25.4869C51.2435 25.4936 51.2526 25.4974 51.2621 25.4974L58.2426 25.4979Z" stroke="#829464" stroke-width="2"/>
<path d="M24.8718 30.8603C24.8709 30.863 24.8706 30.8659 24.8711 30.8687C24.8715 30.8716 24.8726 30.8742 24.8742 30.8766C24.8759 30.8789 24.8781 30.8808 24.8806 30.8821C24.8832 30.8834 24.886 30.8841 24.8889 30.8841L26.1071 30.8862C26.11 30.8862 26.1128 30.8855 26.1153 30.8842C26.1178 30.8829 26.12 30.881 26.1217 30.8786C26.1234 30.8763 26.1245 30.8736 26.1249 30.8708C26.1253 30.868 26.1251 30.8651 26.1242 30.8624L25.5182 29.0697C25.517 29.0662 25.5147 29.0631 25.5117 29.0609C25.5087 29.0586 25.505 29.0574 25.5013 29.0574C25.4975 29.0573 25.4938 29.0584 25.4907 29.0605C25.4877 29.0627 25.4853 29.0657 25.484 29.0692L24.8718 30.8603Z" stroke="#66794B" stroke-width="2"/>
<path d="M29.4929 28.356L29.4867 30.1098C29.4867 30.1148 29.4887 30.1197 29.4923 30.1233C29.4959 30.1269 29.5008 30.1289 29.5059 30.1289L30.4056 30.132C30.6368 30.1328 30.8589 30.0506 31.023 29.9034C31.187 29.7563 31.2796 29.5562 31.2804 29.3473L31.2814 29.1308C31.2818 29.0273 31.2596 28.9248 31.2161 28.829C31.1726 28.7333 31.1086 28.6462 31.0279 28.5728C30.9471 28.4993 30.8511 28.441 30.7454 28.401C30.6397 28.361 30.5263 28.3403 30.4118 28.3399L29.5121 28.3368C29.507 28.3368 29.5021 28.3388 29.4985 28.3424C29.4949 28.346 29.4929 28.3509 29.4929 28.356Z" stroke="#66794B" stroke-width="2"/>
<path d="M35.0108 32.1609C35.4184 32.1495 35.8519 32.0019 35.9405 31.5472C36.0436 31.0168 35.897 30.5175 35.2993 30.4071C34.9435 30.3419 34.5622 30.3662 34.1992 30.3652C34.1927 30.3652 34.1865 30.3677 34.1819 30.3723C34.1774 30.3769 34.1748 30.3831 34.1748 30.3895V32.1387C34.1748 32.1457 34.1776 32.1524 34.1825 32.1573C34.1875 32.1623 34.1942 32.1651 34.2012 32.1651C34.4785 32.1696 34.7484 32.1682 35.0108 32.1609Z" stroke="#66794B" stroke-width="2"/>
<path d="M40.9662 30.6836C40.9704 30.4153 40.9712 30.1355 40.9688 29.844C40.966 29.5657 40.9172 29.2755 40.8222 28.9734C40.6492 28.4238 40.1095 28.2363 39.5838 28.3756C39.257 28.4627 39.0643 28.6776 38.9664 28.9998C38.797 29.5555 38.8141 30.0958 38.8286 30.6816C38.8321 30.8242 38.8448 30.9578 38.8669 31.0825C38.9648 31.6372 39.1259 32.0977 39.764 32.1603C40.2235 32.2059 40.656 32.0298 40.8103 31.5657C40.9094 31.2667 40.9614 30.9727 40.9662 30.6836Z" stroke="#66794B" stroke-width="2"/>
<path d="M19.0592 41.1744C19.0506 41.1917 19.0558 41.2003 19.0748 41.2003L21.1228 41.1967C21.1285 41.1967 21.1341 41.1943 21.1381 41.1901C21.1422 41.186 21.1445 41.1803 21.1445 41.1744L21.1455 37.3317C21.1455 37.3248 21.1428 37.3182 21.138 37.3134C21.1331 37.3085 21.1265 37.3058 21.1197 37.3058H19.5943C19.5732 37.3058 19.5627 37.3163 19.5627 37.3374C19.5694 38.6364 19.6575 39.981 19.0592 41.1744Z" stroke="#939395" stroke-width="2"/>
<path d="M26.3453 40.63C26.4593 40.332 26.5202 40.0259 26.5282 39.7116C26.5432 39.1284 26.5686 38.5525 26.3878 37.9848C26.3098 37.7389 26.1808 37.5671 26.0009 37.4694C25.5611 37.2301 24.8635 37.2954 24.6216 37.7807C24.4796 38.0663 24.4032 38.4207 24.3921 38.8441C24.3766 39.4361 24.359 39.9882 24.5491 40.558C24.6433 40.8408 24.8308 41.0366 25.1167 41.1184C25.5808 41.2515 26.1563 41.1236 26.3453 40.63Z" stroke="#66794B" stroke-width="2"/>
<path d="M44.1527 37.3544L44.1558 39.1196C44.1558 39.1235 44.1573 39.1272 44.1601 39.1299C44.1628 39.1326 44.1665 39.1341 44.1703 39.1341L45.0695 39.1326C45.3016 39.1321 45.5241 39.0487 45.6879 38.9005C45.8518 38.7524 45.9437 38.5518 45.9433 38.3427V38.1252C45.9431 38.0216 45.9203 37.9191 45.8761 37.8236C45.8319 37.728 45.7673 37.6412 45.6859 37.5681C45.6044 37.4951 45.5078 37.4372 45.4015 37.3978C45.2952 37.3583 45.1813 37.3382 45.0664 37.3384L44.1672 37.3399C44.1634 37.3399 44.1597 37.3415 44.157 37.3442C44.1542 37.3469 44.1527 37.3506 44.1527 37.3544Z" stroke="#939395" stroke-width="2"/>
<path d="M49.6539 41.1495C50.1081 41.2266 50.5929 41.0749 50.7675 40.6061C50.9777 40.0395 50.9446 39.4905 50.943 38.9036C50.942 38.5012 50.8643 37.832 50.5349 37.5533C50.1148 37.1975 49.2488 37.2658 49.0116 37.8211C48.8928 38.0987 48.8265 38.3929 48.8127 38.7037C48.7978 39.0314 48.7965 39.3834 48.8086 39.7598C48.8148 39.9549 48.8534 40.185 48.9246 40.4502C49.032 40.8518 49.2751 41.0849 49.6539 41.1495Z" stroke="#66794B" stroke-width="2"/>
<path d="M23.7742 45.1026C23.7742 45.095 23.7712 45.0878 23.7659 45.0824C23.7605 45.0771 23.7533 45.0741 23.7457 45.0741H16.7513C16.7437 45.0741 16.7365 45.0771 16.7311 45.0824C16.7258 45.0878 16.7228 45.095 16.7228 45.1026V49.3208C16.7228 49.3284 16.7258 49.3356 16.7311 49.341C16.7365 49.3463 16.7437 49.3493 16.7513 49.3493H23.7457C23.7533 49.3493 23.7605 49.3463 23.7659 49.341C23.7712 49.3356 23.7742 49.3284 23.7742 49.3208V45.1026Z" stroke="#829464" stroke-width="2"/>
<path d="M31.0111 49.5186C31.0111 49.5137 31.0092 49.509 31.0057 49.5055C31.0022 49.502 30.9974 49.5 30.9925 49.5H23.9835C23.9785 49.5 23.9738 49.502 23.9703 49.5055C23.9668 49.509 23.9648 49.5137 23.9648 49.5186V53.7555C23.9648 53.7605 23.9668 53.7652 23.9703 53.7687C23.9738 53.7722 23.9785 53.7742 23.9835 53.7742H30.9925C30.9974 53.7742 31.0022 53.7722 31.0057 53.7687C31.0092 53.7652 31.0111 53.7605 31.0111 53.7555V49.5186Z" stroke="#829464" stroke-width="2"/>
<path d="M23.7742 49.5689C23.7742 49.5609 23.7711 49.5533 23.7654 49.5476C23.7598 49.542 23.7522 49.5388 23.7442 49.5388H16.7528C16.7449 49.5388 16.7372 49.542 16.7316 49.5476C16.7259 49.5533 16.7228 49.5609 16.7228 49.5689V53.7829C16.7228 53.7909 16.7259 53.7986 16.7316 53.8042C16.7372 53.8098 16.7449 53.813 16.7528 53.813H23.7442C23.7522 53.813 23.7598 53.8098 23.7654 53.8042C23.7711 53.7986 23.7742 53.7909 23.7742 53.7829V49.5689Z" stroke="#829464" stroke-width="2"/>
<path d="M23.7742 54.0144C23.7742 54.0109 23.7728 54.0074 23.7703 54.0049C23.7678 54.0024 23.7643 54.001 23.7608 54.001H16.7362C16.7327 54.001 16.7292 54.0024 16.7267 54.0049C16.7242 54.0074 16.7228 54.0109 16.7228 54.0144V58.2658C16.7228 58.2694 16.7242 58.2728 16.7267 58.2754C16.7292 58.2779 16.7327 58.2793 16.7362 58.2793H23.7608C23.7643 58.2793 23.7678 58.2779 23.7703 58.2754C23.7728 58.2728 23.7742 58.2694 23.7742 58.2658V54.0144Z" stroke="#829464" stroke-width="2"/>
<path d="M31.0122 54.0368C31.0122 54.0269 31.0082 54.0174 31.0012 54.0104C30.9942 54.0034 30.9847 53.9995 30.9749 53.9995H24.0021C23.9922 53.9995 23.9828 54.0034 23.9758 54.0104C23.9688 54.0174 23.9648 54.0269 23.9648 54.0368V58.2416C23.9648 58.2515 23.9688 58.2609 23.9758 58.2679C23.9828 58.2749 23.9922 58.2789 24.0021 58.2789H30.9749C30.9847 58.2789 30.9942 58.2749 31.0012 58.2679C31.0082 58.2609 31.0122 58.2515 31.0122 58.2416V54.0368Z" stroke="#829464" stroke-width="2"/>
<path d="M38.2029 58.2794C38.2087 58.2794 38.2145 58.2782 38.2199 58.276C38.2253 58.2737 38.2302 58.2704 38.2344 58.2663C38.2385 58.2622 38.2418 58.2573 38.244 58.2518C38.2463 58.2464 38.2474 58.2407 38.2474 58.2348L38.2511 54.0471C38.2511 54.0353 38.2464 54.024 38.238 54.0156C38.2297 54.0073 38.2183 54.0026 38.2065 54.0026L31.2416 54C31.2357 54 31.2299 54.0012 31.2245 54.0034C31.2191 54.0056 31.2142 54.0089 31.2101 54.013C31.2059 54.0172 31.2026 54.0221 31.2004 54.0275C31.1982 54.0329 31.197 54.0387 31.197 54.0445L31.1949 58.2333C31.1949 58.2451 31.1996 58.2564 31.208 58.2647C31.2163 58.2731 31.2277 58.2778 31.2395 58.2778L38.2029 58.2794Z" stroke="#829464" stroke-width="2"/>
<path d="M51.2636 54.002C51.2536 54.002 51.244 54.006 51.2369 54.0131C51.2298 54.0202 51.2258 54.0298 51.2258 54.0399L51.2263 58.2348C51.2263 58.2448 51.2303 58.2544 51.2374 58.2615C51.2445 58.2686 51.2541 58.2726 51.2642 58.2726L58.2441 58.2855C58.2542 58.2855 58.2638 58.2816 58.2709 58.2745C58.278 58.2674 58.2819 58.2578 58.2819 58.2477L58.2757 54.0383C58.2757 54.0283 58.2717 54.0187 58.2647 54.0116C58.2576 54.0045 58.2479 54.0005 58.2379 54.0005L51.2636 54.002Z" stroke="#829464" stroke-width="2"/>
<path d="M59.192 15.8261V59.1759C59.192 59.1803 59.1903 59.1845 59.1872 59.1876C59.1841 59.1907 59.1799 59.1925 59.1755 59.1925H15.8257C15.8213 59.1925 15.8171 59.1907 15.8139 59.1876C15.8108 59.1845 15.8091 59.1803 15.8091 59.1759L15.8096 31.4492C15.8097 31.4462 15.8089 31.4432 15.8073 31.4406C15.8058 31.4379 15.8036 31.4358 15.8009 31.4344C15.7982 31.4329 15.7952 31.4322 15.7922 31.4324C15.7892 31.4325 15.7862 31.4335 15.7837 31.4352L13.6269 32.9523C13.6252 32.9536 13.6231 32.9545 13.621 32.955C13.6188 32.9555 13.6166 32.9555 13.6144 32.9552C13.6123 32.9548 13.6102 32.954 13.6083 32.9528C13.6065 32.9516 13.6049 32.95 13.6036 32.9482L13.1737 32.3199C13.1713 32.3163 13.1704 32.3119 13.1712 32.3077C13.1719 32.3034 13.1743 32.2996 13.1779 32.2971L39.5113 13.7714C39.5149 13.769 39.5192 13.768 39.5235 13.7688C39.5278 13.7696 39.5316 13.772 39.5341 13.7755L39.965 14.4038C39.9674 14.4074 39.9683 14.4118 39.9676 14.4161C39.9668 14.4203 39.9644 14.4241 39.9609 14.4266L38.0382 15.7795C38.0354 15.7815 38.0333 15.7844 38.0321 15.7877C38.031 15.791 38.031 15.7946 38.032 15.7979C38.0331 15.8012 38.0351 15.8041 38.0379 15.8062C38.0407 15.8083 38.044 15.8095 38.0475 15.8095H59.1755C59.1799 15.8095 59.1841 15.8113 59.1872 15.8144C59.1903 15.8175 59.192 15.8217 59.192 15.8261ZM16.5606 44.8876L16.5622 58.4078C16.5622 58.4271 16.5717 58.4368 16.5907 58.4368L38.4324 58.4358L51.0384 58.4383L58.4177 58.4352C58.4201 58.4352 58.4224 58.4348 58.4246 58.4339C58.4268 58.4329 58.4288 58.4316 58.4305 58.4299C58.4322 58.4282 58.4335 58.4262 58.4344 58.424C58.4354 58.4218 58.4358 58.4195 58.4358 58.4171L58.4441 53.813L58.4431 25.6885L58.4358 16.5932C58.4358 16.5759 58.4272 16.5671 58.4099 16.5668C57.7454 16.5585 57.0897 16.5808 56.4044 16.5813C54.6799 16.5827 53.3452 16.5803 52.4001 16.5741C51.951 16.5709 51.5175 16.5886 51.0746 16.5777C50.5964 16.5663 50.1288 16.5647 49.672 16.573C47.9612 16.6046 46.2675 16.5658 44.6375 16.5829C44.3592 16.5856 44.0805 16.578 43.8015 16.5601C41.5477 16.5587 39.2918 16.5566 37.0339 16.5539C36.9697 16.5535 36.9113 16.5718 36.8588 16.6088C30.1009 21.3629 23.3422 26.1176 16.5829 30.8727C16.5677 30.8834 16.5601 30.8981 16.5601 30.9168L16.5606 44.8876Z" fill="white"/>
<path d="M43.8014 16.5601L43.7988 21.1181C43.7988 21.1388 43.8092 21.1491 43.8299 21.1491L51.0191 21.1486C51.0237 21.1486 51.028 21.1504 51.0312 21.1536C51.0344 21.1568 51.0362 21.1612 51.0362 21.1657L51.0367 25.6538C51.0367 25.6629 51.0404 25.6716 51.0468 25.678C51.0532 25.6844 51.0619 25.688 51.0709 25.688L58.443 25.6885L58.444 53.813H51.0642C51.0568 53.813 51.0497 53.8159 51.0444 53.8212C51.0392 53.8264 51.0362 53.8335 51.0362 53.841L51.0383 58.4383L38.4323 58.4357V53.8399C38.4323 53.822 38.4231 53.813 38.4048 53.813L31.2208 53.8119C31.2152 53.8119 31.2098 53.8097 31.2058 53.8057C31.2018 53.8017 31.1996 53.7963 31.1996 53.7907L31.2001 49.3394C31.2001 49.3318 31.1971 49.3246 31.1919 49.3193C31.1866 49.3139 31.1795 49.3109 31.1721 49.3109L23.9938 49.3125C23.9741 49.3125 23.9642 49.3026 23.9642 49.2829L23.9627 44.9192C23.9627 44.9104 23.9592 44.9019 23.9531 44.8957C23.947 44.8895 23.9387 44.886 23.9301 44.886L16.5606 44.8876L16.5601 30.9168C16.5601 30.8981 16.5677 30.8834 16.5828 30.8727C23.3422 26.1175 30.1008 21.3629 36.8587 16.6087C36.9112 16.5718 36.9696 16.5535 37.0338 16.5538C39.2918 16.5566 41.5476 16.5587 43.8014 16.5601ZM24.4941 31.9687C24.4957 31.9638 24.4988 31.9595 24.503 31.9564C24.5072 31.9534 24.5122 31.9517 24.5174 31.9516L26.4784 31.9527C26.4836 31.9527 26.4886 31.9544 26.4928 31.9575C26.497 31.9605 26.5001 31.9648 26.5017 31.9698L26.9228 33.2097C26.9244 33.2147 26.9275 33.219 26.9317 33.222C26.9359 33.2251 26.9409 33.2268 26.9461 33.2268L28.0768 33.2258C28.0807 33.2257 28.0845 33.2248 28.088 33.223C28.0915 33.2212 28.0945 33.2186 28.0967 33.2154C28.099 33.2122 28.1005 33.2085 28.1011 33.2047C28.1017 33.2008 28.1013 33.1969 28.1001 33.1932L26.0941 27.289C26.0925 27.2841 26.0893 27.2798 26.0852 27.2767C26.081 27.2736 26.0759 27.272 26.0708 27.2719L24.9256 27.2709C24.9204 27.2709 24.9153 27.2726 24.9112 27.2757C24.907 27.2787 24.9039 27.283 24.9023 27.288L22.8952 33.1932C22.894 33.1969 22.8936 33.2008 22.8942 33.2047C22.8948 33.2085 22.8963 33.2122 22.8986 33.2154C22.9008 33.2186 22.9038 33.2212 22.9073 33.223C22.9107 33.2248 22.9146 33.2257 22.9185 33.2258L24.0507 33.2263C24.0559 33.2262 24.0609 33.2246 24.0651 33.2215C24.0693 33.2184 24.0724 33.2141 24.074 33.2092L24.4941 31.9687ZM29.5162 31.1944C29.8612 31.1975 30.1977 31.197 30.5257 31.1928C30.9597 31.1876 31.4761 31.0815 31.8227 30.8069C31.9556 30.702 32.0846 30.5352 32.2096 30.3066C32.5963 29.6005 32.5968 28.8883 32.2111 28.17C32.1075 27.9777 32.0015 27.8306 31.8931 27.7287C31.485 27.346 30.8292 27.2678 30.2667 27.2698C29.5861 27.2722 28.9169 27.2726 28.2591 27.2709C28.2501 27.2709 28.2457 27.2752 28.2457 27.2838V33.1932C28.2457 33.1976 28.2465 33.2019 28.2482 33.206C28.2499 33.21 28.2523 33.2137 28.2554 33.2168C28.2585 33.2199 28.2621 33.2223 28.2662 33.2239C28.2702 33.2256 28.2745 33.2264 28.2788 33.2263L29.4623 33.2258C29.4698 33.2258 29.4769 33.2228 29.4821 33.2175C29.4874 33.2121 29.4903 33.2049 29.4903 33.1973L29.4893 31.2213C29.4893 31.203 29.4982 31.194 29.5162 31.1944ZM34.2006 28.3347L36.7334 28.3378C36.7527 28.3378 36.7624 28.3282 36.7624 28.3088L36.764 27.2983C36.764 27.2949 36.7634 27.2914 36.7621 27.2882C36.7609 27.285 36.759 27.2821 36.7566 27.2797C36.7541 27.2772 36.7513 27.2752 36.7481 27.2739C36.7449 27.2726 36.7415 27.2719 36.7381 27.2719L32.9508 27.2724C32.9483 27.2724 32.9459 27.2729 32.9436 27.2738C32.9414 27.2748 32.9393 27.2761 32.9376 27.2779C32.9359 27.2796 32.9345 27.2817 32.9335 27.2839C32.9326 27.2862 32.9321 27.2886 32.9321 27.2911L32.9332 33.188C32.9332 33.1977 32.9371 33.2071 32.9441 33.214C32.9511 33.2209 32.9606 33.2248 32.9705 33.2248C33.7339 33.2275 34.4673 33.2274 35.1707 33.2242C35.7622 33.2217 36.4423 33.0657 36.7852 32.526C37.1193 31.9998 37.2804 31.4155 37.1307 30.7961C37.0359 30.404 36.7893 29.8788 36.4361 29.641C36.0632 29.3903 35.5727 29.3106 35.1303 29.3054C34.8344 29.3016 34.5247 29.3009 34.2011 29.3033C34.1979 29.3034 34.1947 29.3028 34.1916 29.3016C34.1886 29.3004 34.1859 29.2986 34.1836 29.2964C34.1812 29.2941 34.1794 29.2914 34.1782 29.2884C34.1769 29.2854 34.1763 29.2822 34.1763 29.279L34.1773 28.358C34.1773 28.3519 34.1797 28.3459 34.1841 28.3416C34.1885 28.3372 34.1944 28.3347 34.2006 28.3347ZM38.4546 27.5941C37.8221 27.9867 37.6098 28.8988 37.5906 29.6224C37.5778 30.0889 37.579 30.5411 37.5942 30.9789C37.615 31.5756 37.8159 32.4261 38.3266 32.8192C38.6296 33.0528 39.0103 33.1621 39.3921 33.2025C40.1296 33.2802 41.0992 33.2367 41.6131 32.684C42.0269 32.2386 42.1916 31.501 42.2066 30.8903C42.216 30.5001 42.217 30.1036 42.2097 29.7006C42.2004 29.193 42.1144 28.6849 41.8902 28.226C41.6628 27.7608 41.2945 27.4894 40.8009 27.3703C40.1177 27.2056 39.0844 27.203 38.4546 27.5941ZM46.2679 28.3461L46.2669 33.188C46.2669 33.2135 46.2797 33.2263 46.3052 33.2263L47.4846 33.2253C47.4912 33.2253 47.4975 33.2226 47.5022 33.2178C47.5068 33.2131 47.5095 33.2066 47.5095 33.1999V27.2973C47.5095 27.2907 47.5068 27.2844 47.5022 27.2797C47.4975 27.275 47.4912 27.2724 47.4846 27.2724L43.4699 27.2729C43.4509 27.2729 43.4414 27.2824 43.4414 27.3014C43.4411 28.4109 43.442 29.5134 43.444 30.6091C43.4447 30.8453 43.4111 31.0992 43.343 31.371C43.2172 31.8744 42.9546 32.1365 42.4423 32.1655C42.4329 32.1661 42.4241 32.1702 42.4176 32.177C42.4112 32.1839 42.4076 32.1929 42.4076 32.2023V33.1978C42.4076 33.2019 42.4084 33.2059 42.41 33.2096C42.4115 33.2134 42.4138 33.2168 42.4167 33.2196C42.4196 33.2225 42.4231 33.2247 42.4268 33.2262C42.4306 33.2277 42.4346 33.2285 42.4387 33.2284C43.4259 33.2134 44.1987 32.9508 44.5115 31.9107C44.6248 31.5343 44.6823 31.1585 44.684 30.7831C44.6875 30.0048 44.6878 29.1878 44.6851 28.3322C44.6851 28.3253 44.6878 28.3187 44.6926 28.3138C44.6975 28.309 44.7041 28.3063 44.711 28.3063L46.2286 28.3068C46.2548 28.3068 46.2679 28.3199 46.2679 28.3461ZM49.1063 30.7836L49.1011 27.2968C49.1011 27.2903 49.0986 27.284 49.094 27.2794C49.0895 27.2747 49.0833 27.272 49.0768 27.2719L47.872 27.2709C47.8687 27.2709 47.8656 27.2722 47.8633 27.2745C47.8609 27.2768 47.8596 27.28 47.8596 27.2833L47.8601 33.188C47.8601 33.198 47.8641 33.2076 47.8712 33.2147C47.8783 33.2218 47.8879 33.2258 47.8979 33.2258H49.1141C49.1235 33.2258 49.1327 33.2233 49.1408 33.2184C49.149 33.2136 49.1556 33.2067 49.1602 33.1983L51.0036 29.7441C51.0326 29.6895 51.0471 29.6932 51.0471 29.755L51.0476 33.1849C51.0476 33.1956 51.0519 33.2059 51.0595 33.2134C51.067 33.221 51.0773 33.2253 51.088 33.2253L52.2659 33.2263C52.2855 33.2263 52.2954 33.2165 52.2954 33.1968L52.2975 27.2947C52.2975 27.2882 52.2949 27.282 52.2903 27.2775C52.2858 27.2729 52.2796 27.2703 52.2731 27.2703L51.0466 27.2724C51.0351 27.2724 51.0239 27.2755 51.0141 27.2813C51.0042 27.2871 50.9961 27.2955 50.9906 27.3056L49.1317 30.7899C49.1148 30.822 49.1063 30.8199 49.1063 30.7836ZM55.4187 28.3715C55.4187 28.3644 55.4215 28.3575 55.4265 28.3525C55.4316 28.3474 55.4384 28.3446 55.4456 28.3446L57.0554 28.3451C57.0625 28.3451 57.0694 28.3423 57.0744 28.3372C57.0795 28.3322 57.0823 28.3253 57.0823 28.3182L57.0818 27.2988C57.0818 27.2917 57.079 27.2848 57.0739 27.2798C57.0689 27.2747 57.062 27.2719 57.0549 27.2719H52.5678C52.5607 27.2719 52.5538 27.2747 52.5488 27.2798C52.5437 27.2848 52.5409 27.2917 52.5409 27.2988L52.5471 28.3171C52.5471 28.3243 52.5499 28.3311 52.555 28.3362C52.56 28.3412 52.5669 28.3441 52.574 28.3441L54.1797 28.3425C54.1868 28.3425 54.1937 28.3453 54.1988 28.3504C54.2038 28.3554 54.2066 28.3623 54.2066 28.3694L54.2072 33.2004C54.2072 33.2076 54.21 33.2144 54.215 33.2195C54.2201 33.2245 54.2269 33.2274 54.2341 33.2274L55.3922 33.2258C55.3994 33.2258 55.4062 33.223 55.4113 33.2179C55.4163 33.2129 55.4192 33.206 55.4192 33.1989L55.4187 28.3715ZM54.8178 35.0081C54.4539 35.0474 54.2422 34.8781 54.1828 34.5C54.1769 34.4623 54.1548 34.4435 54.1165 34.4435L53.3246 34.4425C53.3215 34.4425 53.3185 34.4431 53.3157 34.4443C53.3129 34.4456 53.3104 34.4474 53.3084 34.4497C53.3063 34.452 53.3048 34.4547 53.3038 34.4576C53.3029 34.4606 53.3025 34.4637 53.3028 34.4668C53.3779 35.1086 53.7985 35.7073 54.4713 35.799C54.9551 35.8653 55.4135 35.757 55.7429 35.3784C55.9646 35.1236 56.0967 34.8259 56.1391 34.4855C56.1429 34.4568 56.1303 34.4425 56.1013 34.4425L55.3011 34.442C55.2894 34.4419 55.2781 34.4464 55.2695 34.4545C55.261 34.4626 55.2558 34.4737 55.255 34.4855C55.2369 34.7444 55.0944 34.9786 54.8178 35.0081ZM21.651 42.2532L21.65 43.0478C21.65 43.0563 21.6534 43.0645 21.6594 43.0705C21.6654 43.0765 21.6736 43.0799 21.6821 43.0799L22.8511 43.0794C22.8822 43.0794 22.8978 43.0638 22.8978 43.0328L22.8983 41.2292C22.8983 41.2089 22.8881 41.1987 22.8677 41.1987L22.4104 41.1966C22.4072 41.1966 22.4041 41.196 22.4013 41.1948C22.3984 41.1937 22.3957 41.192 22.3935 41.1898C22.3913 41.1876 22.3896 41.1851 22.3884 41.1822C22.3872 41.1794 22.3865 41.1764 22.3865 41.1733V36.2957C22.3865 36.2927 22.3859 36.2896 22.3847 36.2868C22.3835 36.284 22.3818 36.2814 22.3796 36.2792C22.3774 36.2771 22.3747 36.2754 22.3718 36.2742C22.3689 36.273 22.3658 36.2724 22.3627 36.2724L18.3366 36.2729C18.3215 36.2729 18.3139 36.2805 18.3139 36.2957C18.3128 37.149 18.3114 37.9863 18.3097 38.8078C18.309 39.1621 18.2912 39.5086 18.2564 39.8473C18.2092 40.3073 18.1181 40.7434 17.8669 41.1365C17.8413 41.1769 17.8047 41.1975 17.7571 41.1982C17.6082 41.2002 17.4558 41.1997 17.2997 41.1966C17.2969 41.1966 17.2941 41.1972 17.2916 41.1982C17.289 41.1992 17.2867 41.2008 17.2847 41.2027C17.2827 41.2046 17.2811 41.2069 17.2801 41.2094C17.279 41.2119 17.2785 41.2146 17.2785 41.2173L17.28 43.0571C17.28 43.063 17.2823 43.0687 17.2864 43.0729C17.2905 43.077 17.296 43.0794 17.3018 43.0794L18.4905 43.0799C18.5129 43.0799 18.5241 43.0687 18.5241 43.0462L18.5247 42.245C18.5247 42.2403 18.5265 42.2358 18.5297 42.2325C18.5329 42.2292 18.5372 42.2273 18.5418 42.2273H21.6257C21.6426 42.2273 21.651 42.236 21.651 42.2532ZM23.4204 37.3275C23.2574 37.7146 23.1693 38.1326 23.1562 38.5815C23.1445 38.9841 23.1443 39.4252 23.1557 39.9048C23.1676 40.4264 23.2826 40.9729 23.5504 41.4256C24.0352 42.2434 25.1276 42.289 26.0096 42.1968C26.7047 42.1243 27.2346 41.8151 27.5107 41.1557C27.6654 40.7862 27.7503 40.3682 27.7655 39.9017C27.7811 39.4394 27.7812 38.9979 27.766 38.5773C27.7498 38.1291 27.6664 37.7234 27.5159 37.3601C27.2724 36.7717 26.8327 36.4423 26.2039 36.3356C25.6842 36.2472 25.1711 36.251 24.6645 36.347C24.0623 36.4609 23.6476 36.7878 23.4204 37.3275ZM29.3914 38.7446C29.3979 38.7405 29.4023 38.7401 29.4043 38.7436C29.7683 39.3769 30.1498 40.034 30.549 40.7149C30.5538 40.723 30.5605 40.7296 30.5685 40.7343C30.5765 40.7389 30.5855 40.7413 30.5946 40.7413L31.1996 40.7439C31.2096 40.7439 31.2195 40.7413 31.2282 40.7363C31.2369 40.7313 31.2442 40.7241 31.2493 40.7154C31.6422 40.0355 32.0186 39.3883 32.3784 38.7736C32.386 38.7605 32.3966 38.7501 32.41 38.7425C32.4111 38.7419 32.4124 38.7416 32.4136 38.7416C32.4149 38.7416 32.4161 38.7419 32.4172 38.7425C32.4183 38.7432 32.4193 38.7441 32.4199 38.7452C32.4205 38.7462 32.4209 38.7475 32.4209 38.7488L32.4193 42.1911C32.4193 42.1956 32.4202 42.2 32.4219 42.2042C32.4237 42.2083 32.4262 42.2121 32.4294 42.2153C32.4325 42.2184 32.4363 42.221 32.4404 42.2227C32.4446 42.2244 32.449 42.2253 32.4535 42.2253L33.6402 42.2263C33.6466 42.2263 33.6528 42.2237 33.6574 42.219C33.6619 42.2144 33.6645 42.208 33.6645 42.2015L33.664 36.3056C33.664 36.2838 33.6531 36.2729 33.6314 36.2729H32.4095C32.3888 36.2729 32.3734 36.2817 32.3634 36.2993L30.9209 38.7653C30.9187 38.7691 30.9155 38.7722 30.9116 38.7744C30.9078 38.7765 30.9034 38.7776 30.899 38.7776C30.8946 38.7775 30.8902 38.7763 30.8863 38.7741C30.8824 38.7718 30.8792 38.7687 30.8769 38.7648L29.4287 36.2895C29.4255 36.2841 29.421 36.2797 29.4157 36.2766C29.4103 36.2735 29.4043 36.2719 29.3981 36.2719L28.1649 36.2724C28.1455 36.2724 28.1359 36.2821 28.1359 36.3014V42.1994C28.1359 42.217 28.1448 42.2258 28.1628 42.2258H29.3489C29.3532 42.2258 29.3574 42.225 29.3613 42.2233C29.3652 42.2217 29.3688 42.2193 29.3718 42.2164C29.3748 42.2134 29.3771 42.2098 29.3787 42.2059C29.3803 42.202 29.3811 42.1979 29.381 42.1937L29.3779 38.7705C29.3779 38.7595 29.3824 38.7508 29.3914 38.7446ZM34.3404 37.3073C34.1864 37.663 34.0984 38.0417 34.0763 38.4437C34.0549 38.8397 34.0487 39.2731 34.0576 39.7438C34.0742 40.5979 34.2819 41.6638 35.1588 42.0285C35.4744 42.1593 35.8454 42.2249 36.2719 42.2253C36.795 42.226 37.3247 42.2263 37.861 42.2263C37.88 42.2263 37.8895 42.2168 37.8895 42.1978V41.1878C37.8895 41.1846 37.8889 41.1815 37.8877 41.1786C37.8864 41.1756 37.8847 41.173 37.8825 41.1708C37.8802 41.1686 37.8776 41.1668 37.8747 41.1656C37.8718 41.1645 37.8688 41.1639 37.8657 41.164C37.3515 41.1705 36.8413 41.1681 36.3351 41.1567C35.8524 41.1457 35.5492 40.9121 35.4256 40.4559C35.3627 40.2232 35.3265 40.0314 35.3168 39.8805C35.2971 39.5601 35.2935 39.1937 35.3059 38.7814C35.3149 38.4903 35.3689 38.2035 35.468 37.9211C35.6333 37.4492 36.0559 37.3322 36.5102 37.3332C36.9349 37.3339 37.3848 37.3346 37.86 37.3353C37.8796 37.3356 37.8895 37.3258 37.8895 37.3057V36.2973C37.8895 36.2907 37.8869 36.2844 37.8823 36.2797C37.8778 36.275 37.8716 36.2724 37.8651 36.2724C37.3686 36.2728 36.8467 36.2734 36.2994 36.2745C35.4675 36.2755 34.6963 36.4858 34.3404 37.3073ZM39.7443 37.3441C39.7503 37.3441 39.7561 37.3465 39.7604 37.3507C39.7647 37.355 39.7671 37.3608 39.7671 37.3669L39.7665 42.203C39.7665 42.206 39.7671 42.209 39.7683 42.2117C39.7694 42.2145 39.7711 42.217 39.7732 42.2191C39.7753 42.2212 39.7779 42.2229 39.7806 42.2241C39.7834 42.2252 39.7863 42.2258 39.7893 42.2258H40.9599C40.9629 42.2258 40.9659 42.2252 40.9686 42.2241C40.9714 42.2229 40.9739 42.2212 40.976 42.2191C40.9782 42.217 40.9798 42.2145 40.981 42.2117C40.9821 42.209 40.9827 42.206 40.9827 42.203L40.9817 37.3653C40.9817 37.3593 40.9841 37.3535 40.9883 37.3492C40.9926 37.3449 40.9984 37.3425 41.0045 37.3425L42.6205 37.3435C42.6265 37.3435 42.6323 37.3411 42.6366 37.3369C42.6409 37.3326 42.6433 37.3268 42.6433 37.3208L42.6422 36.2952C42.6422 36.2892 42.6398 36.2834 42.6356 36.2791C42.6313 36.2748 42.6255 36.2724 42.6195 36.2724L38.1277 36.2734C38.1217 36.2734 38.1159 36.2758 38.1116 36.2801C38.1073 36.2844 38.1049 36.2902 38.1049 36.2962L38.1039 37.3197C38.1039 37.3227 38.1045 37.3257 38.1056 37.3284C38.1068 37.3312 38.1085 37.3337 38.1106 37.3358C38.1127 37.3379 38.1152 37.3396 38.118 37.3408C38.1207 37.3419 38.1237 37.3425 38.1267 37.3425L39.7443 37.3441ZM44.1894 40.1933C44.4808 40.1951 44.7878 40.1952 45.1103 40.1939C45.649 40.1913 46.2907 40.068 46.6352 39.6578C46.8258 39.4309 46.9715 39.1541 47.0723 38.8275C47.2816 38.1521 47.1065 37.4352 46.6792 36.866C46.2218 36.2564 45.2766 36.2662 44.5965 36.2709C44.0492 36.275 43.4996 36.275 42.9478 36.2709C42.9233 36.2705 42.9111 36.2828 42.9111 36.3076L42.9105 42.1994C42.9105 42.2064 42.9134 42.2131 42.9184 42.2181C42.9235 42.223 42.9303 42.2258 42.9375 42.2258H44.1298C44.1464 42.2258 44.1547 42.2173 44.1547 42.2004L44.1536 40.2286C44.1536 40.2051 44.1655 40.1933 44.1894 40.1933ZM47.7804 37.4596C47.6561 37.8025 47.5863 38.151 47.5711 38.5053C47.5531 38.929 47.5525 39.4083 47.569 39.9432C47.5856 40.4663 47.7009 40.9325 47.915 41.3416C48.1787 41.8456 48.651 42.0994 49.1902 42.1781C49.692 42.252 50.1778 42.2463 50.6478 42.161C51.0999 42.0797 51.5221 41.8534 51.7645 41.4587C52.0535 40.9879 52.1654 40.4197 52.1809 39.8572C52.1923 39.4332 52.1916 39.0124 52.1788 38.5949C52.1716 38.3584 52.1424 38.1193 52.0913 37.8776C51.9432 37.1794 51.593 36.5998 50.87 36.3967C50.4149 36.269 49.8921 36.2396 49.3016 36.3087C48.5542 36.3967 48.0424 36.7344 47.7804 37.4596ZM53.7902 39.7893V36.2973C53.7902 36.2941 53.7896 36.2909 53.7883 36.288C53.7871 36.285 53.7852 36.2823 53.7829 36.2801C53.7806 36.2778 53.7779 36.276 53.7749 36.2748C53.7718 36.2736 53.7686 36.2729 53.7653 36.2729L52.5709 36.2724C52.5677 36.2724 52.5646 36.2731 52.5616 36.2743C52.5587 36.2756 52.556 36.2774 52.5537 36.2797C52.5515 36.282 52.5497 36.2847 52.5484 36.2878C52.5472 36.2908 52.5466 36.294 52.5466 36.2973V42.1999C52.5466 42.2066 52.5493 42.2131 52.554 42.2178C52.5588 42.2226 52.5652 42.2253 52.572 42.2253L53.8166 42.2258C53.8216 42.2258 53.8265 42.2245 53.8308 42.2219C53.8351 42.2194 53.8386 42.2157 53.841 42.2113L55.6968 38.7327C55.7237 38.6823 55.7372 38.6856 55.7372 38.7425V42.2025C55.7372 42.218 55.745 42.2258 55.7605 42.2258H56.9616C56.9782 42.2258 56.9865 42.2175 56.9865 42.2009V36.2968C56.9865 36.2812 56.9787 36.2734 56.9632 36.2734L55.7196 36.2729C55.7121 36.2729 55.7047 36.275 55.6982 36.2789C55.6917 36.2828 55.6864 36.2885 55.6828 36.2952L53.8156 39.7955C53.7987 39.8273 53.7902 39.8252 53.7902 39.7893Z" fill="#26272B"/>
<path d="M43.8014 16.5601C44.0804 16.578 44.3591 16.5856 44.6374 16.5828C46.2674 16.5658 47.9611 16.6046 49.6719 16.573C50.1288 16.5647 50.5963 16.5663 51.0746 16.5777C51.5174 16.5885 51.9509 16.5709 52.4 16.574C53.3451 16.5803 54.6799 16.5827 56.4043 16.5813C57.0896 16.5808 57.7453 16.5585 58.4098 16.5668C58.4271 16.5671 58.4357 16.5759 58.4357 16.5932L58.443 25.6885L51.0709 25.688C51.0619 25.688 51.0532 25.6844 51.0468 25.678C51.0403 25.6716 51.0367 25.6629 51.0367 25.6538L51.0362 21.1657C51.0362 21.1612 51.0344 21.1568 51.0312 21.1536C51.028 21.1504 51.0237 21.1486 51.0191 21.1486L43.8299 21.1491C43.8092 21.1491 43.7988 21.1388 43.7988 21.1181L43.8014 16.5601ZM58.2804 16.7129C58.2804 16.7079 58.2794 16.703 58.2775 16.6984C58.2756 16.6938 58.2728 16.6896 58.2693 16.6861C58.2658 16.6826 58.2616 16.6798 58.257 16.6779C58.2524 16.676 58.2475 16.675 58.2425 16.675H51.2636C51.2536 16.675 51.244 16.679 51.2369 16.6861C51.2298 16.6932 51.2258 16.7028 51.2258 16.7129V20.9249C51.2258 20.9349 51.2298 20.9445 51.2369 20.9516C51.244 20.9587 51.2536 20.9627 51.2636 20.9627H58.2425C58.2475 20.9627 58.2524 20.9617 58.257 20.9598C58.2616 20.9579 58.2658 20.9551 58.2693 20.9516C58.2728 20.9481 58.2756 20.9439 58.2775 20.9393C58.2794 20.9348 58.2804 20.9298 58.2804 20.9249V16.7129ZM51.0357 16.7118C51.0357 16.7023 51.0319 16.6933 51.0252 16.6865C51.0185 16.6798 51.0094 16.6761 51 16.6761H44.0231C44.0184 16.6761 44.0138 16.677 44.0094 16.6788C44.0051 16.6806 44.0012 16.6832 43.9978 16.6865C43.9945 16.6899 43.9919 16.6938 43.9901 16.6981C43.9883 16.7025 43.9874 16.7071 43.9874 16.7118V20.928C43.9874 20.9327 43.9883 20.9373 43.9901 20.9417C43.9919 20.946 43.9945 20.9499 43.9978 20.9533C44.0012 20.9566 44.0051 20.9592 44.0094 20.961C44.0138 20.9628 44.0184 20.9637 44.0231 20.9637H51C51.0094 20.9637 51.0185 20.96 51.0252 20.9533C51.0319 20.9465 51.0357 20.9375 51.0357 20.928V16.7118ZM58.2425 25.4979C58.252 25.4979 58.2611 25.4941 58.2678 25.4874C58.2745 25.4807 58.2783 25.4716 58.2783 25.4622L58.2772 21.2626C58.2772 21.2531 58.2735 21.244 58.2668 21.2373C58.2601 21.2306 58.251 21.2268 58.2415 21.2268H51.2615C51.2568 21.2268 51.2522 21.2278 51.2479 21.2296C51.2435 21.2314 51.2396 21.234 51.2363 21.2373C51.2329 21.2406 51.2303 21.2446 51.2285 21.2489C51.2267 21.2532 51.2258 21.2579 51.2258 21.2626L51.2263 25.4616C51.2263 25.4711 51.2301 25.4802 51.2368 25.4869C51.2435 25.4936 51.2526 25.4974 51.2621 25.4974L58.2425 25.4979Z" fill="#A6CA6A"/>
<path d="M58.2426 16.675H51.2636C51.2428 16.675 51.2258 16.692 51.2258 16.7129V20.9249C51.2258 20.9458 51.2428 20.9627 51.2636 20.9627H58.2426C58.2635 20.9627 58.2804 20.9458 58.2804 20.9249V16.7129C58.2804 16.692 58.2635 16.675 58.2426 16.675Z" fill="#5D5D5D"/>
<path d="M51 16.6761H44.0232C44.0034 16.6761 43.9874 16.6921 43.9874 16.7119V20.928C43.9874 20.9478 44.0034 20.9638 44.0232 20.9638H51C51.0198 20.9638 51.0358 20.9478 51.0358 20.928V16.7119C51.0358 16.6921 51.0198 16.6761 51 16.6761Z" fill="#5D5D5D"/>
<path d="M58.2426 25.4979L51.2621 25.4974C51.2526 25.4974 51.2435 25.4936 51.2368 25.4869C51.2301 25.4802 51.2263 25.4711 51.2263 25.4616L51.2258 21.2625C51.2258 21.2579 51.2268 21.2532 51.2286 21.2489C51.2303 21.2445 51.233 21.2406 51.2363 21.2373C51.2396 21.234 51.2436 21.2313 51.2479 21.2295C51.2522 21.2277 51.2569 21.2268 51.2616 21.2268H58.2415C58.251 21.2268 58.2601 21.2306 58.2668 21.2373C58.2735 21.244 58.2773 21.2531 58.2773 21.2625L58.2783 25.4621C58.2783 25.4716 58.2745 25.4807 58.2678 25.4874C58.2611 25.4941 58.2521 25.4979 58.2426 25.4979Z" fill="#5D5D5D"/>
<path d="M24.4941 31.9687L24.074 33.2092C24.0724 33.2142 24.0693 33.2185 24.0651 33.2215C24.0609 33.2246 24.0559 33.2263 24.0507 33.2263L22.9185 33.2258C22.9146 33.2258 22.9107 33.2248 22.9073 33.223C22.9038 33.2212 22.9008 33.2186 22.8986 33.2154C22.8963 33.2122 22.8948 33.2086 22.8942 33.2047C22.8936 33.2008 22.8939 33.1969 22.8952 33.1932L24.9022 27.288C24.9039 27.283 24.907 27.2788 24.9112 27.2757C24.9153 27.2726 24.9204 27.2709 24.9256 27.2709L26.0708 27.2719C26.0759 27.272 26.081 27.2737 26.0851 27.2767C26.0893 27.2798 26.0924 27.2841 26.0941 27.289L28.1001 33.1932C28.1013 33.1969 28.1017 33.2008 28.1011 33.2047C28.1005 33.2086 28.099 33.2122 28.0967 33.2154C28.0945 33.2186 28.0915 33.2212 28.088 33.223C28.0845 33.2248 28.0807 33.2258 28.0768 33.2258L26.9461 33.2268C26.9409 33.2268 26.9359 33.2251 26.9317 33.222C26.9275 33.219 26.9244 33.2147 26.9228 33.2098L26.5017 31.9698C26.5001 31.9648 26.497 31.9606 26.4928 31.9575C26.4886 31.9544 26.4836 31.9527 26.4784 31.9527L24.5174 31.9516C24.5122 31.9517 24.5072 31.9534 24.503 31.9565C24.4988 31.9595 24.4957 31.9638 24.4941 31.9687ZM24.8717 30.8603C24.8708 30.863 24.8705 30.8659 24.871 30.8687C24.8714 30.8716 24.8725 30.8742 24.8742 30.8766C24.8758 30.8789 24.878 30.8808 24.8806 30.8821C24.8831 30.8834 24.8859 30.8841 24.8888 30.8841L26.107 30.8862C26.1099 30.8862 26.1127 30.8855 26.1152 30.8842C26.1178 30.8829 26.12 30.881 26.1216 30.8786C26.1233 30.8763 26.1244 30.8736 26.1248 30.8708C26.1252 30.868 26.125 30.8651 26.1241 30.8624L25.5181 29.0697C25.5169 29.0662 25.5146 29.0631 25.5116 29.0609C25.5086 29.0587 25.5049 29.0574 25.5012 29.0574C25.4974 29.0573 25.4938 29.0584 25.4907 29.0606C25.4876 29.0627 25.4852 29.0657 25.4839 29.0692L24.8717 30.8603Z" fill="#A6CA6A"/>
<path d="M29.5163 31.1944C29.4983 31.194 29.4893 31.203 29.4893 31.2213L29.4904 33.1973C29.4904 33.2049 29.4874 33.2121 29.4822 33.2174C29.4769 33.2228 29.4698 33.2258 29.4624 33.2258L28.2789 33.2263C28.2745 33.2264 28.2703 33.2256 28.2662 33.2239C28.2622 33.2223 28.2586 33.2199 28.2555 33.2168C28.2524 33.2137 28.2499 33.21 28.2483 33.206C28.2466 33.2019 28.2457 33.1976 28.2457 33.1932V27.2838C28.2457 27.2752 28.2502 27.2709 28.2592 27.2709C28.917 27.2726 29.5862 27.2722 30.2668 27.2698C30.8293 27.2677 31.485 27.346 31.8932 27.7287C32.0016 27.8306 32.1076 27.9777 32.2112 28.17C32.5969 28.8883 32.5964 29.6004 32.2096 30.3066C32.0846 30.5352 31.9557 30.702 31.8227 30.8069C31.4762 31.0815 30.9598 31.1876 30.5258 31.1928C30.1977 31.197 29.8612 31.1975 29.5163 31.1944ZM29.493 28.356L29.4867 30.1098C29.4867 30.1148 29.4888 30.1197 29.4924 30.1233C29.496 30.1269 29.5008 30.1289 29.5059 30.1289L30.4056 30.132C30.6369 30.1328 30.859 30.0506 31.023 29.9034C31.1871 29.7563 31.2797 29.5562 31.2804 29.3473L31.2815 29.1308C31.2818 29.0274 31.2596 28.9248 31.2161 28.8291C31.1726 28.7333 31.1087 28.6462 31.0279 28.5728C30.9471 28.4993 30.8512 28.441 30.7455 28.401C30.6398 28.3611 30.5264 28.3403 30.4118 28.3399L29.5121 28.3368C29.507 28.3368 29.5022 28.3388 29.4986 28.3424C29.495 28.346 29.493 28.3509 29.493 28.356Z" fill="#A6CA6A"/>
<path d="M34.2006 28.3348C34.1944 28.3348 34.1885 28.3373 34.1841 28.3416C34.1798 28.346 34.1773 28.3519 34.1773 28.3581L34.1763 29.2791C34.1763 29.2823 34.1769 29.2855 34.1782 29.2885C34.1794 29.2915 34.1813 29.2942 34.1836 29.2964C34.1859 29.2987 34.1886 29.3005 34.1916 29.3017C34.1947 29.3029 34.1979 29.3035 34.2011 29.3034C34.5247 29.301 34.8344 29.3017 35.1303 29.3055C35.5727 29.3106 36.0632 29.3904 36.4361 29.6411C36.7893 29.8788 37.0359 30.4041 37.1307 30.7961C37.2804 31.4156 37.1193 31.9999 36.7852 32.5261C36.4423 33.0658 35.7622 33.2217 35.1707 33.2243C34.4674 33.2274 33.7339 33.2276 32.9705 33.2248C32.9606 33.2248 32.9511 33.221 32.9441 33.2141C32.9371 33.2072 32.9332 33.1978 32.9332 33.1881L32.9321 27.2911C32.9321 27.2887 32.9326 27.2863 32.9335 27.284C32.9345 27.2817 32.9359 27.2797 32.9376 27.278C32.9393 27.2762 32.9414 27.2748 32.9436 27.2739C32.9459 27.273 32.9483 27.2725 32.9508 27.2725L36.7381 27.272C36.7415 27.272 36.7449 27.2727 36.7481 27.274C36.7513 27.2753 36.7542 27.2773 36.7566 27.2797C36.759 27.2822 36.7609 27.2851 36.7621 27.2883C36.7634 27.2915 36.764 27.2949 36.764 27.2984L36.7624 28.3089C36.7624 28.3283 36.7527 28.3379 36.7334 28.3379L34.2006 28.3348ZM35.0107 32.161C35.4183 32.1496 35.8518 32.0019 35.9404 31.5472C36.0435 31.0168 35.8969 30.5175 35.2992 30.4072C34.9434 30.3419 34.5621 30.3662 34.1991 30.3652C34.1926 30.3652 34.1864 30.3678 34.1818 30.3723C34.1773 30.3769 34.1747 30.3831 34.1747 30.3895V32.1387C34.1747 32.1457 34.1775 32.1524 34.1824 32.1574C34.1874 32.1623 34.1941 32.1651 34.2011 32.1651C34.4784 32.1696 34.7483 32.1682 35.0107 32.161Z" fill="#A6CA6A"/>
<path d="M37.5907 29.6224C37.6098 28.8988 37.8222 27.9867 38.4546 27.594C39.0844 27.203 40.1178 27.2056 40.801 27.3703C41.2946 27.4894 41.6628 27.7608 41.8902 28.226C42.1145 28.6849 42.2005 29.193 42.2098 29.7006C42.217 30.1035 42.216 30.5001 42.2067 30.8903C42.1917 31.501 42.027 32.2386 41.6131 32.684C41.0993 33.2367 40.1297 33.2802 39.3921 33.2025C39.0104 33.1621 38.6297 33.0528 38.3267 32.8192C37.816 32.4261 37.615 31.5756 37.5943 30.9789C37.5791 30.541 37.5779 30.0889 37.5907 29.6224ZM40.9662 30.6837C40.9703 30.4154 40.9712 30.1355 40.9688 29.844C40.966 29.5657 40.9171 29.2755 40.8222 28.9734C40.6492 28.4238 40.1095 28.2363 39.5838 28.3756C39.2569 28.4627 39.0642 28.6776 38.9664 28.9998C38.797 29.5555 38.8141 30.0958 38.8286 30.6816C38.832 30.8242 38.8448 30.9578 38.8669 31.0825C38.9648 31.6372 39.1259 32.0977 39.764 32.1603C40.2234 32.2059 40.6559 32.0298 40.8103 31.5657C40.9094 31.2667 40.9613 30.9727 40.9662 30.6837Z" fill="#A6CA6A"/>
<path d="M46.2286 28.3068L44.7109 28.3063C44.7041 28.3063 44.6975 28.309 44.6926 28.3139C44.6878 28.3187 44.685 28.3253 44.685 28.3322C44.6878 29.1879 44.6875 30.0049 44.684 30.7832C44.6823 31.1585 44.6248 31.5344 44.5115 31.9108C44.1987 32.9508 43.4259 33.2134 42.4387 33.2284C42.4346 33.2285 42.4306 33.2278 42.4268 33.2263C42.423 33.2248 42.4196 33.2225 42.4167 33.2197C42.4138 33.2168 42.4115 33.2134 42.41 33.2097C42.4084 33.2059 42.4076 33.2019 42.4076 33.1979V32.2024C42.4076 32.193 42.4112 32.1839 42.4176 32.1771C42.4241 32.1702 42.4329 32.1661 42.4423 32.1656C42.9546 32.1366 43.2172 31.8745 43.343 31.371C43.411 31.0993 43.4447 30.8453 43.444 30.6091C43.442 29.5135 43.4411 28.4109 43.4414 27.3015C43.4414 27.2825 43.4509 27.273 43.4699 27.273L47.4846 27.2725C47.4912 27.2725 47.4975 27.2751 47.5022 27.2797C47.5068 27.2844 47.5095 27.2907 47.5095 27.2973V33.1999C47.5095 33.2067 47.5068 33.2131 47.5022 33.2179C47.4975 33.2227 47.4912 33.2253 47.4846 33.2253L46.3052 33.2264C46.2797 33.2264 46.2669 33.2136 46.2669 33.188L46.2679 28.3462C46.2679 28.3199 46.2548 28.3068 46.2286 28.3068Z" fill="#A6CA6A"/>
<path d="M49.1063 30.7837C49.1063 30.8199 49.1148 30.822 49.1317 30.7899L50.9907 27.3056C50.9962 27.2956 51.0042 27.2872 51.0141 27.2814C51.0239 27.2755 51.0352 27.2724 51.0466 27.2725L52.2731 27.2704C52.2796 27.2704 52.2858 27.2729 52.2903 27.2775C52.2949 27.2821 52.2975 27.2883 52.2975 27.2947L52.2954 33.1968C52.2954 33.2165 52.2856 33.2264 52.2659 33.2264L51.088 33.2253C51.0773 33.2253 51.067 33.2211 51.0595 33.2135C51.0519 33.2059 51.0476 33.1956 51.0476 33.1849L51.0471 29.755C51.0471 29.6932 51.0326 29.6896 51.0036 29.7441L49.1602 33.1984C49.1557 33.2067 49.149 33.2136 49.1409 33.2185C49.1327 33.2233 49.1235 33.2258 49.1141 33.2258H47.8979C47.8879 33.2258 47.8783 33.2219 47.8712 33.2148C47.8641 33.2077 47.8601 33.1981 47.8601 33.188L47.8596 27.2833C47.8596 27.28 47.8609 27.2769 47.8633 27.2745C47.8656 27.2722 47.8688 27.2709 47.872 27.2709L49.0768 27.2719C49.0833 27.2721 49.0895 27.2748 49.0941 27.2794C49.0986 27.284 49.1012 27.2903 49.1012 27.2968L49.1063 30.7837Z" fill="#A6CA6A"/>
<path d="M55.4187 28.3716L55.4192 33.1989C55.4192 33.2061 55.4163 33.2129 55.4113 33.218C55.4062 33.223 55.3994 33.2259 55.3922 33.2259L54.2341 33.2274C54.2269 33.2274 54.2201 33.2246 54.215 33.2195C54.21 33.2145 54.2072 33.2076 54.2072 33.2005L54.2066 28.3695C54.2066 28.3624 54.2038 28.3555 54.1988 28.3505C54.1937 28.3454 54.1868 28.3426 54.1797 28.3426L52.574 28.3441C52.5669 28.3441 52.56 28.3413 52.555 28.3363C52.5499 28.3312 52.5471 28.3244 52.5471 28.3172L52.5409 27.2989C52.5409 27.2918 52.5437 27.2849 52.5488 27.2799C52.5538 27.2748 52.5607 27.272 52.5678 27.272H57.0549C57.062 27.272 57.0689 27.2748 57.0739 27.2799C57.079 27.2849 57.0818 27.2918 57.0818 27.2989L57.0823 28.3182C57.0823 28.3254 57.0795 28.3322 57.0744 28.3373C57.0694 28.3423 57.0625 28.3452 57.0554 28.3452L55.4456 28.3447C55.4384 28.3447 55.4316 28.3475 55.4265 28.3525C55.4215 28.3576 55.4187 28.3644 55.4187 28.3716Z" fill="#A6CA6A"/>
<path d="M29.4929 28.356C29.4929 28.3509 29.4949 28.346 29.4985 28.3424C29.5021 28.3388 29.507 28.3368 29.5121 28.3368L30.4118 28.3399C30.5263 28.3403 30.6397 28.361 30.7454 28.401C30.8511 28.441 30.9471 28.4993 31.0279 28.5728C31.1086 28.6462 31.1726 28.7333 31.2161 28.829C31.2596 28.9248 31.2818 29.0273 31.2814 29.1308L31.2804 29.3473C31.2796 29.5562 31.187 29.7563 31.023 29.9034C30.8589 30.0506 30.6368 30.1328 30.4056 30.132L29.5059 30.1289C29.5008 30.1289 29.4959 30.1269 29.4923 30.1233C29.4887 30.1197 29.4867 30.1148 29.4867 30.1098L29.4929 28.356Z" fill="#26272B"/>
<path d="M40.9662 30.6836C40.9614 30.9727 40.9094 31.2667 40.8103 31.5657C40.656 32.0298 40.2235 32.2059 39.764 32.1603C39.1259 32.0977 38.9648 31.6372 38.8669 31.0825C38.8448 30.9578 38.8321 30.8242 38.8286 30.6816C38.8141 30.0958 38.797 29.5555 38.9664 28.9998C39.0643 28.6776 39.257 28.4627 39.5838 28.3756C40.1095 28.2363 40.6492 28.4238 40.8222 28.9734C40.9172 29.2755 40.966 29.5657 40.9688 29.844C40.9712 30.1355 40.9704 30.4153 40.9662 30.6836Z" fill="#26272B"/>
<path d="M24.8718 30.8603L25.484 29.0692C25.4853 29.0657 25.4877 29.0627 25.4907 29.0605C25.4938 29.0584 25.4975 29.0573 25.5013 29.0574C25.505 29.0574 25.5087 29.0586 25.5117 29.0609C25.5147 29.0631 25.517 29.0662 25.5182 29.0697L26.1242 30.8624C26.1251 30.8651 26.1253 30.868 26.1249 30.8708C26.1245 30.8736 26.1234 30.8763 26.1217 30.8786C26.12 30.881 26.1178 30.8829 26.1153 30.8842C26.1128 30.8855 26.11 30.8862 26.1071 30.8862L24.8889 30.8841C24.886 30.8841 24.8832 30.8834 24.8806 30.8821C24.8781 30.8808 24.8759 30.8789 24.8742 30.8766C24.8726 30.8742 24.8715 30.8716 24.8711 30.8687C24.8706 30.8659 24.8709 30.863 24.8718 30.8603Z" fill="#26272B"/>
<path d="M35.9404 31.5472C35.8518 32.0019 35.4183 32.1495 35.0107 32.1609C34.7482 32.1682 34.4784 32.1696 34.2011 32.1651C34.1941 32.1651 34.1874 32.1623 34.1824 32.1573C34.1775 32.1524 34.1747 32.1457 34.1747 32.1387V30.3895C34.1747 30.3831 34.1772 30.3769 34.1818 30.3723C34.1864 30.3677 34.1926 30.3652 34.199 30.3652C34.5621 30.3662 34.9433 30.3419 35.2992 30.4071C35.8969 30.5175 36.0435 31.0168 35.9404 31.5472Z" fill="#26272B"/>
<path d="M54.8179 35.0081C55.0944 34.9786 55.2369 34.7445 55.255 34.4855C55.2558 34.4737 55.261 34.4626 55.2696 34.4546C55.2781 34.4465 55.2894 34.442 55.3011 34.442L56.1014 34.4425C56.1304 34.4425 56.143 34.4569 56.1392 34.4855C56.0967 34.826 55.9646 35.1236 55.7429 35.3785C55.4135 35.7571 54.9551 35.8654 54.4713 35.7991C53.7985 35.7074 53.3779 35.1086 53.3028 34.4669C53.3025 34.4638 53.3029 34.4607 53.3039 34.4577C53.3048 34.4548 53.3064 34.452 53.3084 34.4497C53.3105 34.4475 53.313 34.4456 53.3158 34.4444C53.3185 34.4431 53.3215 34.4425 53.3246 34.4425L54.1165 34.4436C54.1549 34.4436 54.177 34.4624 54.1828 34.5C54.2422 34.8781 54.4539 35.0475 54.8179 35.0081Z" fill="white"/>
<path d="M21.651 42.2533C21.651 42.236 21.6426 42.2274 21.6256 42.2274H18.5417C18.5372 42.2274 18.5329 42.2293 18.5296 42.2326C18.5264 42.2359 18.5246 42.2403 18.5246 42.245L18.5241 43.0463C18.5241 43.0687 18.5129 43.08 18.4905 43.08L17.3018 43.0794C17.296 43.0794 17.2904 43.0771 17.2864 43.0729C17.2823 43.0687 17.28 43.0631 17.28 43.0572L17.2784 41.2174C17.2784 41.2147 17.279 41.212 17.2801 41.2095C17.2811 41.2069 17.2827 41.2047 17.2847 41.2027C17.2866 41.2008 17.289 41.1993 17.2916 41.1982C17.2941 41.1972 17.2969 41.1967 17.2997 41.1967C17.4558 41.1998 17.6082 41.2003 17.757 41.1982C17.8047 41.1975 17.8413 41.177 17.8668 41.1366C18.118 40.7435 18.2092 40.3073 18.2563 39.8474C18.2912 39.5086 18.309 39.1621 18.3097 38.8079C18.3114 37.9864 18.3128 37.149 18.3138 36.2958C18.3138 36.2806 18.3214 36.273 18.3366 36.273L22.3627 36.2725C22.3658 36.2725 22.3689 36.2731 22.3718 36.2742C22.3747 36.2754 22.3773 36.2771 22.3795 36.2793C22.3818 36.2815 22.3835 36.284 22.3847 36.2869C22.3859 36.2897 22.3865 36.2927 22.3865 36.2958V41.1734C22.3865 41.1764 22.3871 41.1795 22.3883 41.1823C22.3895 41.1851 22.3913 41.1877 22.3935 41.1898C22.3957 41.192 22.3983 41.1937 22.4012 41.1949C22.4041 41.1961 22.4072 41.1967 22.4103 41.1967L22.8677 41.1987C22.8881 41.1987 22.8983 41.2089 22.8983 41.2293L22.8977 43.0328C22.8977 43.0639 22.8822 43.0794 22.8511 43.0794L21.6821 43.08C21.6736 43.08 21.6654 43.0766 21.6594 43.0705C21.6534 43.0645 21.65 43.0564 21.65 43.0478L21.651 42.2533ZM19.0592 41.1744C19.0505 41.1917 19.0557 41.2003 19.0747 41.2003L21.1227 41.1967C21.1285 41.1967 21.134 41.1943 21.1381 41.1901C21.1422 41.186 21.1445 41.1803 21.1445 41.1744L21.1455 37.3317C21.1455 37.3248 21.1428 37.3182 21.1379 37.3134C21.1331 37.3085 21.1265 37.3058 21.1196 37.3058H19.5942C19.5732 37.3058 19.5626 37.3163 19.5626 37.3374C19.5694 38.6364 19.6574 39.981 19.0592 41.1744Z" fill="white"/>
<path d="M23.4204 37.3275C23.6476 36.7878 24.0624 36.461 24.6646 36.3471C25.1711 36.2511 25.6842 36.2473 26.2039 36.3357C26.8327 36.4424 27.2725 36.7718 27.5159 37.3602C27.6665 37.7234 27.7499 38.1292 27.7661 38.5774C27.7813 38.998 27.7811 39.4394 27.7656 39.9018C27.7504 40.3683 27.6654 40.7863 27.5107 41.1558C27.2347 41.8151 26.7048 42.1243 26.0097 42.1968C25.1276 42.289 24.0352 42.2435 23.5504 41.4256C23.2827 40.9729 23.1677 40.4265 23.1558 39.9049C23.1444 39.4253 23.1445 38.9841 23.1563 38.5815C23.1694 38.1326 23.2575 37.7146 23.4204 37.3275ZM26.3453 40.63C26.4593 40.332 26.5202 40.0259 26.5282 39.7117C26.5432 39.1285 26.5686 38.5525 26.3878 37.9848C26.3098 37.739 26.1808 37.5672 26.0009 37.4695C25.5611 37.2302 24.8635 37.2954 24.6216 37.7808C24.4797 38.0663 24.4032 38.4208 24.3921 38.8441C24.3766 39.4361 24.359 39.9883 24.5491 40.558C24.6433 40.8408 24.8308 41.0366 25.1167 41.1185C25.5808 41.2516 26.1563 41.1236 26.3453 40.63Z" fill="#A6CA6A"/>
<path d="M29.3914 38.7447C29.3824 38.7509 29.3779 38.7595 29.3779 38.7706L29.381 42.1938C29.3811 42.198 29.3803 42.2021 29.3787 42.206C29.3772 42.2099 29.3748 42.2134 29.3718 42.2164C29.3688 42.2194 29.3653 42.2218 29.3613 42.2234C29.3574 42.225 29.3532 42.2259 29.3489 42.2259H28.1628C28.1448 42.2259 28.1359 42.2171 28.1359 42.1995V36.3015C28.1359 36.2822 28.1455 36.2725 28.1649 36.2725L29.3981 36.272C29.4043 36.272 29.4103 36.2736 29.4157 36.2767C29.421 36.2798 29.4255 36.2842 29.4287 36.2896L30.8769 38.7649C30.8792 38.7687 30.8824 38.7719 30.8863 38.7742C30.8902 38.7764 30.8946 38.7776 30.899 38.7777C30.9034 38.7777 30.9078 38.7766 30.9116 38.7745C30.9155 38.7723 30.9187 38.7692 30.9209 38.7654L32.3634 36.2994C32.3734 36.2818 32.3888 36.273 32.4095 36.273H33.6314C33.6531 36.273 33.664 36.2839 33.664 36.3056L33.6645 42.2015C33.6645 42.2081 33.662 42.2145 33.6574 42.2191C33.6528 42.2238 33.6466 42.2264 33.6402 42.2264L32.4535 42.2254C32.4491 42.2254 32.4446 42.2245 32.4405 42.2228C32.4363 42.221 32.4325 42.2185 32.4294 42.2153C32.4262 42.2122 32.4237 42.2084 32.422 42.2043C32.4202 42.2001 32.4194 42.1957 32.4194 42.1912L32.4209 38.7488C32.4209 38.7476 32.4206 38.7463 32.4199 38.7452C32.4193 38.7441 32.4184 38.7432 32.4173 38.7426C32.4162 38.742 32.4149 38.7416 32.4136 38.7417C32.4124 38.7417 32.4111 38.742 32.41 38.7426C32.3966 38.7502 32.386 38.7606 32.3784 38.7737C32.0186 39.3883 31.6423 40.0356 31.2493 40.7155C31.2442 40.7242 31.237 40.7314 31.2282 40.7364C31.2195 40.7414 31.2096 40.744 31.1996 40.744L30.5946 40.7414C30.5855 40.7414 30.5765 40.739 30.5685 40.7344C30.5605 40.7297 30.5538 40.7231 30.549 40.715C30.1498 40.0341 29.7683 39.3769 29.4043 38.7437C29.4023 38.7402 29.3979 38.7406 29.3914 38.7447Z" fill="white"/>
<path d="M34.3405 37.3073C34.6963 36.4859 35.4676 36.2756 36.2994 36.2745C36.8467 36.2735 37.3686 36.2728 37.8652 36.2725C37.8716 36.2725 37.8778 36.2751 37.8824 36.2797C37.887 36.2844 37.8895 36.2907 37.8895 36.2973V37.3058C37.8895 37.3258 37.8797 37.3357 37.86 37.3353C37.3849 37.3346 36.9349 37.3339 36.5102 37.3332C36.056 37.3322 35.6333 37.4493 35.4681 37.9211C35.369 38.2036 35.3149 38.4903 35.306 38.7814C35.2935 39.1937 35.2972 39.5601 35.3168 39.8805C35.3265 40.0314 35.3628 40.2233 35.4256 40.456C35.5492 40.9121 35.8524 41.1457 36.3351 41.1568C36.8414 41.1682 37.3515 41.1706 37.8657 41.164C37.8688 41.164 37.8719 41.1645 37.8748 41.1657C37.8777 41.1669 37.8803 41.1686 37.8825 41.1708C37.8847 41.173 37.8865 41.1757 37.8877 41.1786C37.8889 41.1815 37.8895 41.1847 37.8895 41.1879V42.1979C37.8895 42.2169 37.88 42.2264 37.861 42.2264C37.3248 42.2264 36.7951 42.226 36.272 42.2253C35.8455 42.225 35.4745 42.1594 35.1589 42.0285C34.282 41.6639 34.0743 40.5979 34.0577 39.7438C34.0487 39.2732 34.0549 38.8398 34.0763 38.4437C34.0984 38.0418 34.1865 37.663 34.3405 37.3073Z" fill="white"/>
<path d="M39.7443 37.3441L38.1267 37.3426C38.1237 37.3426 38.1207 37.342 38.118 37.3408C38.1152 37.3397 38.1127 37.338 38.1106 37.3359C38.1084 37.3338 38.1068 37.3313 38.1056 37.3285C38.1045 37.3257 38.1039 37.3228 38.1039 37.3198L38.1049 36.2963C38.1049 36.2902 38.1073 36.2844 38.1116 36.2802C38.1159 36.2759 38.1217 36.2735 38.1277 36.2735L42.6194 36.2725C42.6255 36.2725 42.6313 36.2749 42.6355 36.2791C42.6398 36.2834 42.6422 36.2892 42.6422 36.2953L42.6432 37.3208C42.6432 37.3268 42.6408 37.3326 42.6366 37.3369C42.6323 37.3412 42.6265 37.3436 42.6205 37.3436L41.0044 37.3426C40.9984 37.3426 40.9926 37.345 40.9883 37.3492C40.984 37.3535 40.9816 37.3593 40.9816 37.3653L40.9827 42.2031C40.9827 42.206 40.9821 42.209 40.9809 42.2118C40.9798 42.2145 40.9781 42.2171 40.976 42.2192C40.9739 42.2213 40.9714 42.223 40.9686 42.2241C40.9658 42.2253 40.9629 42.2258 40.9599 42.2258H39.7893C39.7863 42.2258 39.7834 42.2253 39.7806 42.2241C39.7778 42.223 39.7753 42.2213 39.7732 42.2192C39.7711 42.2171 39.7694 42.2145 39.7683 42.2118C39.7671 42.209 39.7665 42.206 39.7665 42.2031L39.767 37.3669C39.767 37.3609 39.7646 37.3551 39.7604 37.3508C39.7561 37.3465 39.7503 37.3441 39.7443 37.3441Z" fill="white"/>
<path d="M44.1536 40.2285L44.1547 42.2004C44.1547 42.2173 44.1464 42.2258 44.1298 42.2258H42.9375C42.9303 42.2258 42.9235 42.223 42.9184 42.218C42.9134 42.2131 42.9105 42.2064 42.9105 42.1994L42.911 36.3076C42.911 36.2827 42.9233 36.2705 42.9478 36.2708C43.4996 36.275 44.0492 36.275 44.5965 36.2708C45.2765 36.2662 46.2218 36.2563 46.6792 36.866C47.1065 37.4352 47.2816 38.152 47.0723 38.8275C46.9715 39.1541 46.8257 39.4309 46.6351 39.6577C46.2907 40.068 45.649 40.1912 45.1103 40.1938C44.7878 40.1952 44.4808 40.195 44.1894 40.1933C44.1655 40.1933 44.1536 40.205 44.1536 40.2285ZM44.1526 37.3544L44.1557 39.1196C44.1557 39.1234 44.1572 39.1271 44.1599 39.1298C44.1627 39.1326 44.1663 39.1341 44.1702 39.1341L45.0694 39.1325C45.3015 39.1321 45.524 39.0486 45.6878 38.9005C45.8517 38.7524 45.9435 38.5517 45.9432 38.3427V38.1251C45.943 38.0216 45.9201 37.9191 45.876 37.8235C45.8318 37.7279 45.7672 37.6411 45.6857 37.5681C45.6043 37.495 45.5077 37.4371 45.4014 37.3977C45.2951 37.3583 45.1812 37.3381 45.0663 37.3383L44.1671 37.3399C44.1632 37.3399 44.1595 37.3414 44.1568 37.3441C44.1541 37.3469 44.1526 37.3505 44.1526 37.3544Z" fill="white"/>
<path d="M47.7804 37.4596C48.0425 36.7344 48.5542 36.3967 49.3016 36.3087C49.8921 36.2396 50.4149 36.269 50.87 36.3967C51.5931 36.5998 51.9432 37.1794 52.0913 37.8776C52.1424 38.1193 52.1716 38.3584 52.1789 38.5949C52.1916 39.0124 52.1923 39.4332 52.1809 39.8572C52.1654 40.4197 52.0535 40.9879 51.7645 41.4587C51.5221 41.8534 51.1 42.0797 50.6478 42.1611C50.1778 42.2464 49.692 42.2521 49.1903 42.1782C48.6511 42.0994 48.1787 41.8456 47.9151 41.3417C47.701 40.9325 47.5856 40.4663 47.5691 39.9432C47.5525 39.4083 47.5532 38.929 47.5711 38.5053C47.5863 38.1511 47.6561 37.8025 47.7804 37.4596ZM49.6538 41.1495C50.1081 41.2267 50.5929 41.0749 50.7674 40.6062C50.9777 40.0395 50.9446 39.4905 50.943 38.9036C50.942 38.5012 50.8643 37.832 50.5349 37.5533C50.1148 37.1975 49.2488 37.2659 49.0116 37.8211C48.8928 38.0987 48.8265 38.3929 48.8127 38.7037C48.7978 39.0314 48.7964 39.3834 48.8085 39.7598C48.8147 39.9549 48.8534 40.1851 48.9246 40.4503C49.0319 40.8519 49.275 41.0849 49.6538 41.1495Z" fill="#A6CA6A"/>
<path d="M53.7902 39.7894C53.7902 39.8253 53.7987 39.8274 53.8156 39.7956L55.6829 36.2953C55.6864 36.2885 55.6917 36.2829 55.6982 36.279C55.7047 36.275 55.7121 36.273 55.7196 36.273L56.9632 36.2735C56.9788 36.2735 56.9865 36.2813 56.9865 36.2968V42.201C56.9865 42.2176 56.9783 42.2258 56.9617 42.2258H55.7605C55.745 42.2258 55.7372 42.2181 55.7372 42.2025V38.7426C55.7372 38.6856 55.7238 38.6823 55.6968 38.7328L53.841 42.2113C53.8386 42.2157 53.8351 42.2194 53.8308 42.222C53.8266 42.2245 53.8217 42.2259 53.8167 42.2258L52.572 42.2253C52.5653 42.2253 52.5588 42.2227 52.5541 42.2179C52.5493 42.2131 52.5466 42.2067 52.5466 42.1999V36.2973C52.5466 36.2941 52.5473 36.2908 52.5485 36.2878C52.5497 36.2848 52.5515 36.2821 52.5538 36.2797C52.556 36.2774 52.5587 36.2756 52.5617 36.2744C52.5646 36.2731 52.5678 36.2725 52.571 36.2725L53.7654 36.273C53.7686 36.273 53.7719 36.2736 53.7749 36.2748C53.7779 36.2761 53.7807 36.2778 53.783 36.2801C53.7853 36.2824 53.7871 36.2851 53.7884 36.288C53.7896 36.291 53.7902 36.2941 53.7902 36.2973V39.7894Z" fill="white"/>
<path d="M19.0592 41.1744C19.6575 39.981 19.5694 38.6364 19.5627 37.3374C19.5627 37.3163 19.5732 37.3058 19.5943 37.3058H21.1197C21.1265 37.3058 21.1331 37.3085 21.138 37.3134C21.1428 37.3182 21.1455 37.3248 21.1455 37.3317L21.1445 41.1744C21.1445 41.1803 21.1422 41.186 21.1381 41.1901C21.1341 41.1943 21.1285 41.1967 21.1228 41.1967L19.0748 41.2003C19.0558 41.2003 19.0506 41.1917 19.0592 41.1744Z" fill="#26272B"/>
<path d="M26.3453 40.63C26.1563 41.1236 25.5808 41.2515 25.1167 41.1184C24.8308 41.0366 24.6433 40.8408 24.5491 40.558C24.359 39.9882 24.3766 39.4361 24.3921 38.8441C24.4032 38.4207 24.4796 38.0663 24.6216 37.7807C24.8635 37.2954 25.5611 37.2301 26.0009 37.4694C26.1808 37.5671 26.3098 37.7389 26.3878 37.9848C26.5686 38.5525 26.5432 39.1284 26.5282 39.7116C26.5202 40.0259 26.4593 40.332 26.3453 40.63Z" fill="#26272B"/>
<path d="M44.1526 37.3544C44.1526 37.3506 44.1541 37.3469 44.1568 37.3442C44.1596 37.3415 44.1632 37.3399 44.1671 37.3399L45.0663 37.3384C45.1812 37.3382 45.2951 37.3583 45.4014 37.3978C45.5077 37.4372 45.6043 37.4951 45.6857 37.5681C45.7672 37.6412 45.8318 37.728 45.876 37.8236C45.9201 37.9191 45.943 38.0216 45.9432 38.1252V38.3427C45.9435 38.5518 45.8517 38.7524 45.6878 38.9005C45.524 39.0487 45.3015 39.1321 45.0694 39.1326L44.1702 39.1341C44.1664 39.1341 44.1627 39.1326 44.1599 39.1299C44.1572 39.1272 44.1557 39.1235 44.1557 39.1196L44.1526 37.3544Z" fill="#26272B"/>
<path d="M50.7675 40.6061C50.5929 41.0749 50.1081 41.2266 49.6539 41.1495C49.2751 41.0849 49.032 40.8518 48.9246 40.4502C48.8534 40.185 48.8148 39.9549 48.8086 39.7598C48.7965 39.3834 48.7978 39.0314 48.8127 38.7037C48.8265 38.3929 48.8928 38.0987 49.0116 37.8211C49.2488 37.2658 50.1148 37.1975 50.5349 37.5533C50.8643 37.832 50.942 38.5012 50.943 38.9036C50.9446 39.4905 50.9777 40.0395 50.7675 40.6061Z" fill="#26272B"/>
<path d="M16.5605 44.8877L23.93 44.8861C23.9387 44.8861 23.947 44.8896 23.9531 44.8958C23.9592 44.902 23.9627 44.9105 23.9627 44.9193L23.9642 49.283C23.9642 49.3027 23.974 49.3126 23.9937 49.3126L31.1721 49.311C31.1795 49.311 31.1866 49.314 31.1919 49.3193C31.1971 49.3247 31.2 49.3319 31.2 49.3395L31.1995 53.7908C31.1995 53.7964 31.2018 53.8018 31.2058 53.8058C31.2097 53.8098 31.2151 53.812 31.2208 53.812L38.4048 53.8131C38.4231 53.8131 38.4323 53.8221 38.4323 53.84V58.4358L16.5906 58.4369C16.5716 58.4369 16.5621 58.4272 16.5621 58.4079L16.5605 44.8877ZM23.7741 45.1026C23.7741 45.0951 23.7711 45.0878 23.7658 45.0825C23.7604 45.0771 23.7532 45.0741 23.7456 45.0741H16.7512C16.7436 45.0741 16.7364 45.0771 16.731 45.0825C16.7257 45.0878 16.7227 45.0951 16.7227 45.1026V49.3208C16.7227 49.3284 16.7257 49.3356 16.731 49.341C16.7364 49.3463 16.7436 49.3493 16.7512 49.3493H23.7456C23.7532 49.3493 23.7604 49.3463 23.7658 49.341C23.7711 49.3356 23.7741 49.3284 23.7741 49.3208V45.1026ZM31.011 49.5187C31.011 49.5138 31.009 49.509 31.0055 49.5055C31.002 49.502 30.9973 49.5001 30.9923 49.5001H23.9834C23.9784 49.5001 23.9737 49.502 23.9702 49.5055C23.9667 49.509 23.9647 49.5138 23.9647 49.5187V53.7556C23.9647 53.7605 23.9667 53.7653 23.9702 53.7688C23.9737 53.7723 23.9784 53.7742 23.9834 53.7742H30.9923C30.9973 53.7742 31.002 53.7723 31.0055 53.7688C31.009 53.7653 31.011 53.7605 31.011 53.7556V49.5187ZM23.7741 49.5689C23.7741 49.561 23.771 49.5533 23.7653 49.5477C23.7597 49.5421 23.752 49.5389 23.7441 49.5389H16.7527C16.7447 49.5389 16.7371 49.5421 16.7315 49.5477C16.7258 49.5533 16.7227 49.561 16.7227 49.5689V53.783C16.7227 53.791 16.7258 53.7986 16.7315 53.8043C16.7371 53.8099 16.7447 53.8131 16.7527 53.8131H23.7441C23.752 53.8131 23.7597 53.8099 23.7653 53.8043C23.771 53.7986 23.7741 53.791 23.7741 53.783V49.5689ZM23.7741 54.0146C23.7741 54.011 23.7727 54.0076 23.7702 54.005C23.7676 54.0025 23.7642 54.0011 23.7606 54.0011H16.7361C16.7326 54.0011 16.7291 54.0025 16.7266 54.005C16.7241 54.0076 16.7227 54.011 16.7227 54.0146V58.2659C16.7227 58.2695 16.7241 58.2729 16.7266 58.2755C16.7291 58.278 16.7326 58.2794 16.7361 58.2794H23.7606C23.7642 58.2794 23.7676 58.278 23.7702 58.2755C23.7727 58.2729 23.7741 58.2695 23.7741 58.2659V54.0146ZM31.012 54.0368C31.012 54.0269 31.0081 54.0175 31.0011 54.0105C30.9941 54.0035 30.9846 53.9995 30.9747 53.9995H24.002C23.9921 53.9995 23.9826 54.0035 23.9756 54.0105C23.9687 54.0175 23.9647 54.0269 23.9647 54.0368V58.2416C23.9647 58.2515 23.9687 58.261 23.9756 58.268C23.9826 58.275 23.9921 58.2789 24.002 58.2789H30.9747C30.9846 58.2789 30.9941 58.275 31.0011 58.268C31.0081 58.261 31.012 58.2515 31.012 58.2416V54.0368ZM38.2028 58.2794C38.2087 58.2794 38.2145 58.2783 38.2199 58.276C38.2253 58.2738 38.2302 58.2705 38.2343 58.2664C38.2384 58.2622 38.2417 58.2573 38.244 58.2519C38.2462 58.2465 38.2474 58.2407 38.2474 58.2349L38.251 54.0472C38.251 54.0354 38.2463 54.0241 38.2379 54.0157C38.2296 54.0073 38.2182 54.0026 38.2064 54.0026L31.2415 54.0001C31.2356 54.0001 31.2298 54.0012 31.2244 54.0035C31.219 54.0057 31.2141 54.009 31.21 54.0131C31.2059 54.0172 31.2026 54.0222 31.2003 54.0276C31.1981 54.033 31.1969 54.0388 31.1969 54.0446L31.1949 58.2333C31.1949 58.2451 31.1996 58.2565 31.2079 58.2648C31.2163 58.2732 31.2276 58.2779 31.2394 58.2779L38.2028 58.2794Z" fill="#A6CA6A"/>
<path d="M23.7457 45.0741H16.7513C16.7355 45.0741 16.7228 45.0869 16.7228 45.1026V49.3208C16.7228 49.3365 16.7355 49.3493 16.7513 49.3493H23.7457C23.7615 49.3493 23.7742 49.3365 23.7742 49.3208V45.1026C23.7742 45.0869 23.7615 45.0741 23.7457 45.0741Z" fill="#5D5D5D"/>
<path d="M30.9923 49.5H23.9834C23.9731 49.5 23.9647 49.5083 23.9647 49.5186V53.7555C23.9647 53.7658 23.9731 53.7742 23.9834 53.7742H30.9923C31.0026 53.7742 31.011 53.7658 31.011 53.7555V49.5186C31.011 49.5083 31.0026 49.5 30.9923 49.5Z" fill="#5D5D5D"/>
<path d="M23.7442 49.5388H16.7528C16.7362 49.5388 16.7228 49.5523 16.7228 49.5689V53.7829C16.7228 53.7995 16.7362 53.813 16.7528 53.813H23.7442C23.7608 53.813 23.7742 53.7995 23.7742 53.7829V49.5689C23.7742 49.5523 23.7608 49.5388 23.7442 49.5388Z" fill="#5D5D5D"/>
<path d="M58.4441 53.813L58.4358 58.4171C58.4358 58.4195 58.4353 58.4218 58.4344 58.424C58.4335 58.4262 58.4321 58.4282 58.4305 58.4299C58.4288 58.4316 58.4268 58.4329 58.4246 58.4338C58.4224 58.4348 58.42 58.4352 58.4176 58.4352L51.0383 58.4383L51.0363 53.841C51.0363 53.8335 51.0392 53.8264 51.0444 53.8212C51.0497 53.8159 51.0568 53.813 51.0642 53.813H58.4441ZM51.2636 54.002C51.2536 54.002 51.244 54.006 51.2369 54.0131C51.2298 54.0202 51.2258 54.0298 51.2258 54.0399L51.2263 58.2348C51.2263 58.2448 51.2303 58.2544 51.2374 58.2615C51.2445 58.2686 51.2541 58.2726 51.2642 58.2726L58.2441 58.2855C58.2542 58.2855 58.2638 58.2816 58.2709 58.2745C58.278 58.2674 58.2819 58.2578 58.2819 58.2477L58.2757 54.0383C58.2757 54.0283 58.2717 54.0187 58.2646 54.0116C58.2576 54.0045 58.2479 54.0005 58.2379 54.0005L51.2636 54.002Z" fill="#A6CA6A"/>
<path d="M23.7608 54.001H16.7362C16.7288 54.001 16.7228 54.007 16.7228 54.0144V58.2658C16.7228 58.2733 16.7288 58.2793 16.7362 58.2793H23.7608C23.7682 58.2793 23.7742 58.2733 23.7742 58.2658V54.0144C23.7742 54.007 23.7682 54.001 23.7608 54.001Z" fill="#5D5D5D"/>
<path d="M30.9747 53.9995H24.002C23.9814 53.9995 23.9647 54.0162 23.9647 54.0368V58.2416C23.9647 58.2622 23.9814 58.2789 24.002 58.2789H30.9747C30.9953 58.2789 31.012 58.2622 31.012 58.2416V54.0368C31.012 54.0162 30.9953 53.9995 30.9747 53.9995Z" fill="#5D5D5D"/>
<path d="M38.2029 58.2794L31.2395 58.2778C31.2277 58.2778 31.2163 58.2731 31.208 58.2647C31.1996 58.2564 31.1949 58.2451 31.1949 58.2333L31.197 54.0445C31.197 54.0387 31.1982 54.0329 31.2004 54.0275C31.2026 54.0221 31.2059 54.0172 31.2101 54.013C31.2142 54.0089 31.2191 54.0056 31.2245 54.0034C31.2299 54.0012 31.2357 54 31.2416 54L38.2065 54.0026C38.2183 54.0026 38.2297 54.0073 38.238 54.0156C38.2464 54.024 38.2511 54.0353 38.2511 54.0471L38.2474 58.2348C38.2474 58.2407 38.2463 58.2464 38.244 58.2518C38.2418 58.2573 38.2385 58.2622 38.2344 58.2663C38.2302 58.2704 38.2253 58.2737 38.2199 58.276C38.2145 58.2782 38.2087 58.2794 38.2029 58.2794Z" fill="#5D5D5D"/>
<path d="M51.2636 54.002L58.2379 54.0005C58.2479 54.0005 58.2576 54.0045 58.2647 54.0116C58.2717 54.0187 58.2757 54.0283 58.2757 54.0383L58.2819 58.2477C58.2819 58.2578 58.278 58.2674 58.2709 58.2745C58.2638 58.2816 58.2542 58.2855 58.2441 58.2855L51.2642 58.2726C51.2541 58.2726 51.2445 58.2686 51.2374 58.2615C51.2303 58.2544 51.2263 58.2448 51.2263 58.2348L51.2258 54.0399C51.2258 54.0298 51.2298 54.0202 51.2369 54.0131C51.244 54.006 51.2536 54.002 51.2636 54.002Z" fill="#5D5D5D"/>
</svg>
