<svg width="78" height="78" viewBox="0 0 78 78" fill="none" xmlns="http://www.w3.org/2000/svg">
<path d="M75.1219 6.0905C75.1219 6.0835 75.1191 6.07679 75.1142 6.07184C75.1092 6.06689 75.1025 6.06411 75.0955 6.06411H41.4633C41.4578 6.064 41.4524 6.06215 41.448 6.05882C41.4435 6.05549 41.4403 6.05085 41.4386 6.04556C41.437 6.04026 41.4371 6.03459 41.4388 6.02934C41.4406 6.02408 41.444 6.01952 41.4485 6.01629L44.509 3.8627C44.5146 3.85871 44.5185 3.85268 44.5197 3.8459C44.5209 3.83912 44.5195 3.83213 44.5156 3.82642L43.8296 2.8263C43.8256 2.82068 43.8196 2.81684 43.8128 2.81561C43.806 2.81438 43.7991 2.81585 43.7933 2.8197L1.87488 32.3096C1.86926 32.3136 1.86543 32.3196 1.8642 32.3264C1.86296 32.3332 1.86443 32.3402 1.86829 32.3459L2.55262 33.346C2.5546 33.3489 2.55714 33.3514 2.56009 33.3533C2.56303 33.3552 2.56633 33.3565 2.56979 33.3571C2.57324 33.3577 2.57679 33.3577 2.58021 33.3569C2.58363 33.3561 2.58687 33.3547 2.58972 33.3526L6.02295 30.9377C6.02695 30.9349 6.03161 30.9334 6.03644 30.9331C6.04127 30.9329 6.04608 30.934 6.05033 30.9363C6.05458 30.9386 6.05812 30.942 6.06057 30.9461C6.06301 30.9503 6.06426 30.9551 6.06417 30.9599L6.06335 75.0963C6.06335 75.1033 6.06613 75.11 6.07108 75.115C6.07602 75.1199 6.08274 75.1227 6.08973 75.1227H75.0955C75.1025 75.1227 75.1092 75.1199 75.1142 75.115C75.1191 75.11 75.1219 75.1033 75.1219 75.0963V6.0905Z" stroke="#939395" stroke-width="2"/>
<path d="M7.25964 52.3516L7.26212 73.8735C7.26212 73.9043 7.27723 73.9197 7.30746 73.9197L42.0759 73.918" stroke="#D3E5B5" stroke-width="2"/>
<path d="M42.0759 73.918L62.1426 73.9237" stroke="#939395" stroke-width="2"/>
<path d="M62.1426 73.9221L73.8892 73.9172C73.893 73.9172 73.8968 73.9164 73.9003 73.915C73.9038 73.9135 73.907 73.9114 73.9097 73.9087C73.9123 73.906 73.9145 73.9029 73.9159 73.8994C73.9174 73.8959 73.9181 73.8921 73.9181 73.8883L73.9313 66.5593" stroke="#D3E5B5" stroke-width="2"/>
<path d="M73.932 66.5594L73.9297 21.7898" stroke="#939395" stroke-width="2"/>
<path d="M73.9297 21.7898L73.9181 7.31156C73.9181 7.28407 73.9044 7.27006 73.8769 7.26951C72.8191 7.25632 71.7753 7.29177 70.6844 7.29259C67.9394 7.29479 65.8147 7.29094 64.3102 7.28105C63.5954 7.2761 62.9053 7.30414 62.2003 7.28682C61.439 7.26868 60.6948 7.26621 59.9676 7.2794C57.2443 7.3297 54.5481 7.26786 51.9534 7.29507C51.5104 7.29946 51.0668 7.28737 50.6227 7.25879" stroke="#D3E5B5" stroke-width="2"/>
<path d="M50.6227 7.25892C47.035 7.25673 43.4441 7.25343 39.8498 7.24903C39.7476 7.24848 39.6547 7.27761 39.5711 7.33643C28.8136 14.9042 18.0549 22.4729 7.29519 30.0424C7.271 30.0594 7.25891 30.0828 7.25891 30.1124L7.25974 52.3517" stroke="#939395" stroke-width="2"/>
<path d="M50.6227 7.25879L50.6185 14.5144C50.6185 14.5474 50.635 14.5639 50.668 14.5639L62.1121 14.563C62.1193 14.563 62.1262 14.5659 62.1313 14.571C62.1364 14.5761 62.1393 14.583 62.1393 14.5903L62.1401 21.7346C62.1401 21.749 62.1458 21.7628 62.156 21.773C62.1663 21.7832 62.1801 21.789 62.1945 21.789L73.9296 21.7898" stroke="#66794B" stroke-width="2"/>
<path d="M73.9313 66.5593H62.1838C62.172 66.5593 62.1607 66.564 62.1523 66.5724C62.144 66.5807 62.1393 66.592 62.1393 66.6039L62.1426 73.9221" stroke="#66794B" stroke-width="2"/>
<path d="M42.0759 73.9181V66.6023C42.0759 66.5737 42.0613 66.5594 42.0322 66.5594L30.5963 66.5578C30.5874 66.5578 30.5788 66.5542 30.5724 66.5479C30.5661 66.5415 30.5625 66.5329 30.5625 66.5239L30.5633 59.4382C30.5633 59.4262 30.5587 59.4146 30.5503 59.4061C30.542 59.3976 30.5306 59.3928 30.5188 59.3928L19.0921 59.3953C19.0607 59.3953 19.0451 59.3796 19.0451 59.3483L19.0426 52.4019C19.0426 52.3879 19.0371 52.3745 19.0274 52.3646C19.0176 52.3547 19.0044 52.3491 18.9906 52.3491L7.25964 52.3516" stroke="#66794B" stroke-width="2"/>
<path d="M19.8885 31.7868C19.8911 31.779 19.8961 31.7721 19.9027 31.7673C19.9094 31.7624 19.9174 31.7597 19.9256 31.7596L23.0472 31.7613C23.0554 31.7614 23.0635 31.764 23.0701 31.7689C23.0768 31.7738 23.0817 31.7806 23.0843 31.7885L23.7546 33.7623C23.7572 33.7702 23.7622 33.777 23.7688 33.7819C23.7755 33.7867 23.7835 33.7894 23.7917 33.7895L25.5916 33.7879C25.5978 33.7878 25.6039 33.7863 25.6094 33.7834C25.6149 33.7805 25.6197 33.7764 25.6233 33.7713C25.6269 33.7663 25.6293 33.7604 25.6302 33.7543C25.6312 33.7481 25.6306 33.7418 25.6287 33.7359L22.4354 24.3374C22.4328 24.3296 22.4279 24.3228 22.4212 24.3179C22.4146 24.313 22.4066 24.3103 22.3983 24.3102L20.5753 24.3086C20.5671 24.3087 20.5591 24.3114 20.5524 24.3163C20.5458 24.3211 20.5408 24.328 20.5382 24.3358L17.3433 33.7359C17.3413 33.7418 17.3408 33.7481 17.3418 33.7543C17.3427 33.7604 17.3451 33.7663 17.3487 33.7713C17.3523 33.7764 17.357 33.7805 17.3626 33.7834C17.3681 33.7863 17.3742 33.7878 17.3804 33.7879L19.1828 33.7887C19.191 33.7886 19.199 33.7859 19.2057 33.781C19.2123 33.7762 19.2173 33.7693 19.2199 33.7615L19.8885 31.7868Z" stroke="#66794B" stroke-width="2"/>
<path d="M27.883 30.5542C28.4321 30.5591 28.9677 30.5583 29.4899 30.5517C30.1809 30.5435 31.0029 30.3745 31.5545 29.9375C31.7661 29.7704 31.9714 29.5049 32.1704 29.141C32.786 28.0169 32.7868 26.8832 32.1729 25.7399C32.008 25.4338 31.8392 25.1996 31.6666 25.0375C31.0169 24.4281 29.9731 24.3036 29.0777 24.3069C27.9943 24.3108 26.929 24.3113 25.8819 24.3086C25.8676 24.3086 25.8605 24.3155 25.8605 24.3292V33.7359C25.8605 33.7429 25.8618 33.7499 25.8645 33.7563C25.8672 33.7628 25.8711 33.7686 25.876 33.7736C25.8809 33.7785 25.8867 33.7823 25.8931 33.7849C25.8995 33.7875 25.9063 33.7888 25.9132 33.7887L27.7972 33.7879C27.809 33.7879 27.8204 33.7831 27.8287 33.7746C27.8371 33.7661 27.8417 33.7546 27.8417 33.7425L27.8401 30.5971C27.8401 30.5679 27.8544 30.5536 27.883 30.5542Z" stroke="#66794B" stroke-width="2"/>
<path d="M35.3398 26.0022L39.3716 26.0071C39.4024 26.0071 39.4177 25.9917 39.4177 25.961L39.4202 24.3523C39.4203 24.3469 39.4193 24.3414 39.4173 24.3363C39.4153 24.3312 39.4123 24.3266 39.4084 24.3227C39.4046 24.3188 39.4 24.3156 39.395 24.3135C39.3899 24.3114 39.3845 24.3103 39.379 24.3103L33.3502 24.3111C33.3463 24.3111 33.3425 24.3119 33.3389 24.3134C33.3353 24.3149 33.332 24.3171 33.3293 24.3198C33.3265 24.3226 33.3243 24.3258 33.3228 24.3294C33.3213 24.333 33.3206 24.3369 33.3206 24.3408L33.3222 33.7278C33.3222 33.7433 33.3285 33.7582 33.3396 33.7691C33.3507 33.7801 33.3658 33.7863 33.3816 33.7863C34.5969 33.7907 35.7644 33.7904 36.8841 33.7855C37.8256 33.7813 38.9082 33.5332 39.454 32.674C39.9858 31.8363 40.2422 30.9063 40.004 29.9202C39.8531 29.2961 39.4606 28.46 38.8983 28.0816C38.3047 27.6825 37.5239 27.5555 36.8197 27.5473C36.3487 27.5412 35.8556 27.5401 35.3406 27.544C35.3354 27.5441 35.3303 27.5432 35.3255 27.5413C35.3207 27.5394 35.3163 27.5365 35.3126 27.5329C35.309 27.5293 35.306 27.525 35.304 27.5203C35.302 27.5155 35.301 27.5104 35.301 27.5052L35.3027 26.0393C35.3027 26.0294 35.3066 26.02 35.3135 26.013C35.3205 26.0061 35.3299 26.0022 35.3398 26.0022Z" stroke="#66794B" stroke-width="2"/>
<path d="M42.1114 24.8232C41.1047 25.4481 40.7666 26.9001 40.7361 28.0519C40.7158 28.7945 40.7177 29.5143 40.7419 30.2113C40.7749 31.1611 41.0948 32.5149 41.9077 33.1407C42.3901 33.5126 42.9961 33.6866 43.6037 33.7509C44.7778 33.8746 46.3213 33.8053 47.1392 32.9256C47.798 32.2165 48.0601 31.0424 48.0841 30.0703C48.0989 29.4492 48.1005 28.8179 48.089 28.1764C48.0742 27.3684 47.9373 26.5596 47.5803 25.8291C47.2183 25.0887 46.6321 24.6566 45.8464 24.467C44.7588 24.2048 43.114 24.2007 42.1114 24.8232Z" stroke="#66794B" stroke-width="2"/>
<path d="M54.5489 26.0202L54.5473 33.7277C54.5473 33.7683 54.5676 33.7887 54.6083 33.7887L56.4857 33.787C56.4962 33.787 56.5063 33.7828 56.5137 33.7752C56.5211 33.7676 56.5253 33.7573 56.5253 33.7466V24.3506C56.5253 24.3401 56.5211 24.3301 56.5137 24.3226C56.5063 24.3152 56.4962 24.311 56.4857 24.311L50.095 24.3119C50.0648 24.3119 50.0496 24.327 50.0496 24.3572C50.0491 26.1233 50.0505 27.8784 50.0538 29.6225C50.0549 29.9984 50.0013 30.4027 49.893 30.8353C49.6926 31.6367 49.2746 32.0539 48.4592 32.1001C48.4442 32.1009 48.4302 32.1075 48.4199 32.1184C48.4096 32.1293 48.4039 32.1437 48.4039 32.1586V33.7433C48.4039 33.7498 48.4052 33.7562 48.4077 33.7621C48.4102 33.7681 48.4139 33.7735 48.4185 33.778C48.4231 33.7826 48.4285 33.7861 48.4345 33.7885C48.4405 33.7909 48.4469 33.7921 48.4534 33.792C50.0249 33.7681 51.2551 33.35 51.7531 31.6944C51.9333 31.0953 52.0249 30.497 52.0276 29.8995C52.0331 28.6606 52.0337 27.36 52.0293 25.998C52.0293 25.987 52.0336 25.9765 52.0413 25.9688C52.0491 25.9611 52.0596 25.9567 52.0705 25.9567L54.4863 25.9576C54.5281 25.9576 54.5489 25.9785 54.5489 26.0202Z" stroke="#66794B" stroke-width="2"/>
<path d="M59.0672 29.9005L59.059 24.3499C59.059 24.3396 59.0549 24.3296 59.0477 24.3222C59.0404 24.3148 59.0306 24.3106 59.0202 24.3103L57.1024 24.3087C57.0972 24.3087 57.0921 24.3108 57.0884 24.3145C57.0847 24.3182 57.0826 24.3232 57.0826 24.3285L57.0835 33.7278C57.0835 33.7437 57.0898 33.7591 57.1011 33.7703C57.1124 33.7816 57.1277 33.788 57.1437 33.788H59.0796C59.0945 33.788 59.1093 33.7839 59.1222 33.7762C59.1351 33.7686 59.1457 33.7575 59.153 33.7443L62.0874 28.2457C62.1335 28.1588 62.1566 28.1646 62.1566 28.263L62.1574 33.7228C62.1574 33.7399 62.1642 33.7563 62.1763 33.7683C62.1883 33.7804 62.2047 33.7871 62.2218 33.7871L64.0967 33.7888C64.128 33.7888 64.1437 33.7731 64.1437 33.7418L64.147 24.3466C64.147 24.3363 64.1429 24.3265 64.1356 24.3192C64.1283 24.3119 64.1185 24.3079 64.1082 24.3079L62.1558 24.3112C62.1376 24.3111 62.1197 24.316 62.104 24.3253C62.0884 24.3346 62.0755 24.3479 62.0668 24.3639L59.1076 29.9103C59.0807 29.9615 59.0672 29.9582 59.0672 29.9005Z" stroke="#66794B" stroke-width="2"/>
<path d="M69.1155 26.0607C69.1155 26.0493 69.12 26.0384 69.128 26.0304C69.1361 26.0224 69.147 26.0178 69.1583 26.0178L71.7209 26.0187C71.7323 26.0187 71.7432 26.0142 71.7512 26.0061C71.7593 25.9981 71.7638 25.9872 71.7638 25.9758L71.763 24.3532C71.763 24.3418 71.7584 24.3309 71.7504 24.3229C71.7423 24.3148 71.7314 24.3103 71.7201 24.3103H64.5774C64.566 24.3103 64.5551 24.3148 64.5471 24.3229C64.5391 24.3309 64.5345 24.3418 64.5345 24.3532L64.5444 25.9741C64.5444 25.9855 64.549 25.9964 64.557 26.0045C64.565 26.0125 64.5759 26.017 64.5873 26.017L67.1433 26.0145C67.1546 26.0145 67.1655 26.0191 67.1736 26.0271C67.1816 26.0351 67.1861 26.046 67.1861 26.0574L67.187 33.7475C67.187 33.7589 67.1915 33.7698 67.1995 33.7779C67.2076 33.7859 67.2185 33.7904 67.2298 33.7904L69.0734 33.7879C69.0848 33.7879 69.0957 33.7834 69.1037 33.7754C69.1118 33.7673 69.1163 33.7564 69.1163 33.7451L69.1155 26.0607Z" stroke="#66794B" stroke-width="2"/>
<path d="M68.159 36.6251C67.5797 36.6877 67.2427 36.4181 67.1482 35.8162C67.1388 35.7563 67.1037 35.7263 67.0426 35.7263L65.782 35.7247C65.7771 35.7247 65.7723 35.7257 65.7679 35.7276C65.7635 35.7296 65.7595 35.7325 65.7562 35.7362C65.753 35.7398 65.7505 35.7442 65.749 35.7488C65.7474 35.7535 65.7469 35.7585 65.7474 35.7635C65.8669 36.785 66.5364 37.7381 67.6074 37.8841C68.3775 37.9896 69.1072 37.8173 69.6316 37.2146C69.9845 36.8089 70.1947 36.3351 70.2623 35.7931C70.2684 35.7475 70.2483 35.7247 70.2021 35.7247L68.9283 35.7239C68.9096 35.7238 68.8917 35.731 68.8781 35.7439C68.8644 35.7567 68.8562 35.7743 68.8549 35.7931C68.826 36.2054 68.5993 36.5781 68.159 36.6251Z" stroke="#939395" stroke-width="2"/>
<path d="M15.3629 48.1582L15.3613 49.423C15.3613 49.4366 15.3666 49.4496 15.3762 49.4591C15.3858 49.4687 15.3988 49.4741 15.4124 49.4741L17.2733 49.4733C17.3227 49.4733 17.3475 49.4486 17.3475 49.3991L17.3483 46.5282C17.3483 46.4957 17.3321 46.4795 17.2997 46.4795L16.5716 46.4762C16.5666 46.4762 16.5617 46.4753 16.5571 46.4734C16.5525 46.4715 16.5483 46.4688 16.5448 46.4654C16.5413 46.4619 16.5385 46.4578 16.5366 46.4533C16.5347 46.4488 16.5337 46.444 16.5337 46.4391V38.6748C16.5337 38.6699 16.5327 38.6651 16.5308 38.6606C16.5289 38.6561 16.5261 38.652 16.5226 38.6486C16.5191 38.6451 16.5149 38.6424 16.5103 38.6405C16.5057 38.6387 16.5007 38.6377 16.4958 38.6377L10.0869 38.6385C10.0627 38.6385 10.0506 38.6506 10.0506 38.6748C10.049 40.033 10.0468 41.366 10.044 42.6736C10.0429 43.2376 10.0146 43.7892 9.95912 44.3284C9.88409 45.0606 9.73898 45.7548 9.3391 46.3806C9.29842 46.4449 9.24016 46.4776 9.1643 46.4787C8.9274 46.482 8.68472 46.4812 8.43627 46.4762C8.43183 46.4762 8.42744 46.4771 8.42333 46.4787C8.41923 46.4804 8.41551 46.4828 8.41237 46.4859C8.40923 46.489 8.40674 46.4926 8.40504 46.4966C8.40334 46.5006 8.40247 46.5049 8.40247 46.5092L8.40494 49.4378C8.40494 49.4472 8.40859 49.4563 8.41508 49.4629C8.42158 49.4696 8.43039 49.4733 8.43957 49.4733L10.3318 49.4741C10.3675 49.4741 10.3854 49.4563 10.3854 49.4205L10.3862 48.145C10.3862 48.1376 10.3891 48.1305 10.3942 48.1252C10.3993 48.1199 10.4062 48.117 10.4134 48.117H15.3225C15.3494 48.117 15.3629 48.1307 15.3629 48.1582Z" stroke="#939395" stroke-width="2"/>
<path d="M18.1794 40.3171C17.9199 40.9332 17.7797 41.5986 17.7589 42.3132C17.7402 42.9541 17.7399 43.6563 17.758 44.4198C17.777 45.2501 17.96 46.1199 18.3863 46.8405C19.158 48.1424 20.8969 48.215 22.301 48.0682C23.4075 47.9528 24.251 47.4605 24.6904 46.411C24.9367 45.8228 25.0719 45.1574 25.0961 44.4148C25.1208 43.6788 25.1211 42.9761 25.0969 42.3066C25.0711 41.5931 24.9383 40.9473 24.6987 40.369C24.3112 39.4324 23.6112 38.908 22.6102 38.7382C21.783 38.5974 20.9662 38.6035 20.1598 38.7563C19.2012 38.9377 18.541 39.4579 18.1794 40.3171Z" stroke="#66794B" stroke-width="2"/>
<path d="M27.6843 42.5731C27.6947 42.5665 27.7016 42.566 27.7049 42.5715C28.2842 43.5796 28.8916 44.6256 29.527 45.7095C29.5346 45.7224 29.5453 45.733 29.558 45.7404C29.5707 45.7477 29.5851 45.7516 29.5996 45.7516L30.5626 45.7557C30.5786 45.7557 30.5943 45.7516 30.6082 45.7436C30.6221 45.7356 30.6337 45.7242 30.6417 45.7104C31.2673 44.6281 31.8664 43.5977 32.4392 42.6193C32.4512 42.5984 32.468 42.5819 32.4894 42.5698C32.4912 42.5688 32.4932 42.5683 32.4952 42.5683C32.4972 42.5683 32.4992 42.5688 32.5009 42.5698C32.5027 42.5708 32.5042 42.5723 32.5052 42.574C32.5062 42.5757 32.5067 42.5777 32.5068 42.5797L32.5043 48.0594C32.5043 48.0665 32.5057 48.0736 32.5084 48.0802C32.5112 48.0868 32.5152 48.0928 32.5202 48.0978C32.5253 48.1029 32.5313 48.1069 32.5379 48.1096C32.5445 48.1124 32.5516 48.1138 32.5587 48.1138L34.4476 48.1154C34.4579 48.1154 34.4678 48.1113 34.475 48.1038C34.4823 48.0964 34.4864 48.0864 34.4864 48.0759L34.4856 38.6906C34.4856 38.6559 34.4683 38.6386 34.4336 38.6386H32.4886C32.4556 38.6386 32.4312 38.6526 32.4152 38.6807L30.119 42.6061C30.1154 42.6121 30.1104 42.6171 30.1042 42.6205C30.0981 42.6239 30.0912 42.6257 30.0841 42.6256C30.0771 42.6255 30.0701 42.6236 30.0639 42.62C30.0578 42.6165 30.0526 42.6114 30.0489 42.6053L27.7436 38.665C27.7386 38.6565 27.7315 38.6494 27.7229 38.6445C27.7144 38.6395 27.7048 38.637 27.695 38.637L25.7318 38.6378C25.7011 38.6378 25.6857 38.6532 25.6857 38.684V48.0726C25.6857 48.1006 25.7 48.1146 25.7285 48.1146H27.6166C27.6234 48.1146 27.6301 48.1133 27.6364 48.1107C27.6427 48.1081 27.6483 48.1043 27.6531 48.0996C27.6578 48.0948 27.6616 48.0892 27.6641 48.083C27.6666 48.0768 27.6679 48.0702 27.6678 48.0635L27.6628 42.6144C27.6628 42.5968 27.67 42.583 27.6843 42.5731Z" stroke="#939395" stroke-width="2"/>
<path d="M35.5623 40.2851C35.3172 40.8512 35.177 41.4542 35.1419 42.094C35.1078 42.7245 35.0979 43.4143 35.1122 44.1635C35.1386 45.5231 35.4692 47.2199 36.8651 47.8004C37.3675 48.0087 37.9581 48.1131 38.6369 48.1137C39.4697 48.1148 40.3128 48.1153 41.1665 48.1153C41.1967 48.1153 41.2118 48.1002 41.2118 48.07V46.4622C41.2118 46.4572 41.2108 46.4522 41.2089 46.4475C41.207 46.4428 41.2042 46.4386 41.2007 46.4351C41.1971 46.4316 41.1929 46.4288 41.1883 46.4269C41.1838 46.4251 41.1788 46.4242 41.1739 46.4243C40.3554 46.4347 39.5433 46.4309 38.7375 46.4127C37.9691 46.3952 37.4865 46.0233 37.2897 45.2972C37.1896 44.9267 37.1319 44.6214 37.1165 44.3812C37.0852 43.8711 37.0794 43.2879 37.0992 42.6316C37.1135 42.1682 37.1995 41.7117 37.3573 41.2621C37.6203 40.511 38.2931 40.3246 39.0162 40.3263C39.6923 40.3274 40.4085 40.3285 41.1648 40.3296C41.1962 40.3301 41.2118 40.3145 41.2118 40.2826V38.6773C41.2118 38.6668 41.2077 38.6567 41.2005 38.6493C41.1932 38.6419 41.1834 38.6377 41.1731 38.6377C40.3827 38.6382 39.5518 38.6393 38.6806 38.641C37.3565 38.6426 36.1288 38.9774 35.5623 40.2851Z" stroke="#939395" stroke-width="2"/>
<path d="M44.1644 40.3436C44.174 40.3436 44.1833 40.3474 44.1901 40.3542C44.1969 40.361 44.2007 40.3702 44.2007 40.3799L44.1999 48.0782C44.1999 48.083 44.2008 48.0877 44.2026 48.0921C44.2045 48.0965 44.2071 48.1005 44.2105 48.1039C44.2139 48.1073 44.2179 48.1099 44.2223 48.1117C44.2267 48.1136 44.2314 48.1145 44.2362 48.1145H46.0995C46.1043 48.1145 46.109 48.1136 46.1134 48.1117C46.1178 48.1099 46.1218 48.1073 46.1252 48.1039C46.1285 48.1005 46.1312 48.0965 46.133 48.0921C46.1349 48.0877 46.1358 48.083 46.1358 48.0782L46.1342 40.3774C46.1342 40.3678 46.138 40.3585 46.1448 40.3517C46.1516 40.3449 46.1608 40.3411 46.1704 40.3411L48.7429 40.3428C48.7525 40.3428 48.7617 40.3389 48.7685 40.3321C48.7753 40.3253 48.7792 40.3161 48.7792 40.3065L48.7775 38.674C48.7775 38.6644 48.7737 38.6551 48.7669 38.6483C48.7601 38.6415 48.7508 38.6377 48.7412 38.6377L41.5912 38.6393C41.5815 38.6393 41.5723 38.6432 41.5655 38.65C41.5587 38.6568 41.5549 38.666 41.5549 38.6756L41.5532 40.3048C41.5532 40.3096 41.5542 40.3143 41.556 40.3187C41.5578 40.3231 41.5605 40.3271 41.5639 40.3305C41.5672 40.3339 41.5712 40.3365 41.5756 40.3384C41.58 40.3402 41.5847 40.3411 41.5895 40.3411L44.1644 40.3436Z" stroke="#939395" stroke-width="2"/>
<path d="M51.2403 44.8792C51.7042 44.882 52.1929 44.8822 52.7062 44.88C53.5637 44.8759 54.5853 44.6797 55.1336 44.0267C55.437 43.6656 55.669 43.225 55.8295 42.705C56.1626 41.6299 55.8839 40.4888 55.2037 39.5826C54.4756 38.6122 52.9709 38.6279 51.8883 38.6353C51.0171 38.6419 50.1423 38.6419 49.264 38.6353C49.2249 38.6347 49.2054 38.6542 49.2054 38.6938L49.2046 48.0725C49.2046 48.0837 49.2091 48.0944 49.2171 48.1022C49.2252 48.1101 49.2361 48.1146 49.2475 48.1146H51.1455C51.1718 48.1146 51.185 48.1011 51.185 48.0742L51.1834 44.9353C51.1834 44.8979 51.2024 44.8792 51.2403 44.8792Z" stroke="#939395" stroke-width="2"/>
<path d="M56.9565 40.5273C56.7586 41.0732 56.6476 41.6281 56.6234 42.192C56.5948 42.8665 56.5937 43.6294 56.6201 44.4808C56.6465 45.3136 56.83 46.0556 57.1708 46.707C57.5905 47.5092 58.3425 47.9132 59.2008 48.0386C59.9994 48.1562 60.7728 48.1471 61.5209 48.0113C62.2407 47.8819 62.9127 47.5216 63.2985 46.8933C63.7586 46.1439 63.9367 45.2394 63.9614 44.344C63.9796 43.669 63.9785 42.9992 63.9581 42.3347C63.9466 41.9581 63.9001 41.5775 63.8188 41.1927C63.583 40.0813 63.0256 39.1587 61.8746 38.8355C61.1502 38.6321 60.318 38.5854 59.378 38.6953C58.1883 38.8355 57.3737 39.373 56.9565 40.5273Z" stroke="#66794B" stroke-width="2"/>
<path d="M66.5232 44.2361V38.6773C66.5232 38.6722 66.5222 38.6671 66.5202 38.6624C66.5182 38.6577 66.5153 38.6535 66.5116 38.6499C66.5079 38.6463 66.5036 38.6434 66.4988 38.6415C66.494 38.6395 66.4888 38.6385 66.4836 38.6385L64.5823 38.6377C64.5772 38.6377 64.5722 38.6387 64.5675 38.6407C64.5628 38.6427 64.5585 38.6456 64.5549 38.6493C64.5513 38.653 64.5485 38.6573 64.5465 38.6621C64.5446 38.6669 64.5436 38.6721 64.5436 38.6773V48.0733C64.5436 48.084 64.5478 48.0943 64.5554 48.1019C64.563 48.1094 64.5733 48.1137 64.584 48.1137L66.5653 48.1145C66.5732 48.1146 66.581 48.1124 66.5878 48.1084C66.5947 48.1043 66.6003 48.0984 66.604 48.0914L69.5582 42.5541C69.6011 42.4738 69.6225 42.479 69.6225 42.5697V48.0774C69.6225 48.1021 69.6349 48.1145 69.6596 48.1145H71.5716C71.598 48.1145 71.6112 48.1013 71.6112 48.0749V38.6764C71.6112 38.6517 71.5988 38.6393 71.5741 38.6393L69.5945 38.6385C69.5825 38.6385 69.5707 38.6418 69.5604 38.6481C69.5501 38.6543 69.5416 38.6633 69.5359 38.674L66.5636 44.246C66.5367 44.2965 66.5232 44.2932 66.5232 44.2361Z" stroke="#939395" stroke-width="2"/>
<path d="M73.6707 7.50208C73.6707 7.49418 73.6692 7.48635 73.6662 7.47905C73.6631 7.47175 73.6587 7.46511 73.6531 7.45952C73.6475 7.45393 73.6409 7.4495 73.6336 7.44648C73.6263 7.44345 73.6185 7.44189 73.6106 7.44189H62.5012C62.4853 7.44189 62.47 7.44824 62.4587 7.45952C62.4474 7.47081 62.441 7.48612 62.441 7.50208V14.2069C62.441 14.2229 62.4474 14.2382 62.4587 14.2495C62.47 14.2608 62.4853 14.2671 62.5012 14.2671H73.6106C73.6185 14.2671 73.6263 14.2656 73.6336 14.2625C73.6409 14.2595 73.6475 14.2551 73.6531 14.2495C73.6587 14.2439 73.6631 14.2373 73.6662 14.23C73.6692 14.2227 73.6707 14.2148 73.6707 14.2069V7.50208Z" stroke="#829464" stroke-width="2"/>
<path d="M62.1385 7.50049C62.1385 7.48541 62.1325 7.47094 62.1219 7.46027C62.1112 7.4496 62.0967 7.4436 62.0816 7.4436H50.9756C50.9681 7.4436 50.9607 7.44507 50.9538 7.44793C50.9469 7.45079 50.9406 7.45499 50.9354 7.46027C50.9301 7.46555 50.9259 7.47182 50.923 7.47872C50.9202 7.48563 50.9187 7.49302 50.9187 7.50049V14.2119C50.9187 14.2194 50.9202 14.2268 50.923 14.2337C50.9259 14.2406 50.9301 14.2469 50.9354 14.2522C50.9406 14.2574 50.9469 14.2616 50.9538 14.2645C50.9607 14.2674 50.9681 14.2688 50.9756 14.2688H62.0816C62.0967 14.2688 62.1112 14.2628 62.1219 14.2522C62.1325 14.2415 62.1385 14.227 62.1385 14.2119V7.50049Z" stroke="#829464" stroke-width="2"/>
<path d="M73.6106 21.4863C73.6256 21.4863 73.6401 21.4803 73.6508 21.4697C73.6615 21.459 73.6674 21.4445 73.6674 21.4294L73.6658 14.7444C73.6658 14.7293 73.6598 14.7148 73.6491 14.7042C73.6385 14.6935 73.624 14.6875 73.6089 14.6875H62.4979C62.4905 14.6875 62.4831 14.689 62.4762 14.6918C62.4693 14.6947 62.463 14.6989 62.4577 14.7042C62.4524 14.7094 62.4482 14.7157 62.4454 14.7226C62.4425 14.7295 62.441 14.7369 62.441 14.7444L62.4419 21.4286C62.4419 21.4437 62.4479 21.4582 62.4585 21.4688C62.4692 21.4795 62.4837 21.4855 62.4988 21.4855L73.6106 21.4863Z" stroke="#829464" stroke-width="2"/>
<path d="M20.4896 30.0226C20.4882 30.0269 20.4878 30.0315 20.4885 30.036C20.4892 30.0405 20.4909 30.0447 20.4936 30.0484C20.4962 30.0521 20.4997 30.0552 20.5038 30.0573C20.5078 30.0593 20.5123 30.0605 20.5168 30.0605L22.4561 30.0638C22.4606 30.0637 22.4651 30.0626 22.4691 30.0606C22.4732 30.0585 22.4767 30.0554 22.4793 30.0517C22.482 30.048 22.4837 30.0438 22.4844 30.0393C22.4851 30.0348 22.4847 30.0302 22.4833 30.0259L21.5186 27.1723C21.5167 27.1666 21.5131 27.1617 21.5083 27.1581C21.5034 27.1546 21.4977 27.1527 21.4917 27.1526C21.4857 27.1525 21.4799 27.1543 21.4749 27.1576C21.47 27.161 21.4663 27.1658 21.4642 27.1714L20.4896 30.0226Z" stroke="#66794B" stroke-width="2"/>
<path d="M27.8458 26.0361L27.8359 28.8279C27.8359 28.836 27.8392 28.8437 27.8449 28.8494C27.8506 28.8552 27.8584 28.8584 27.8664 28.8584L29.2986 28.8633C29.6668 28.8646 30.0203 28.7337 30.2815 28.4994C30.5426 28.2652 30.69 27.9468 30.6912 27.6142L30.6928 27.2696C30.6934 27.1049 30.6581 26.9416 30.5888 26.7892C30.5196 26.6368 30.4178 26.4982 30.2892 26.3812C30.1607 26.2643 30.0079 26.1714 29.8396 26.1078C29.6713 26.0442 29.4909 26.0112 29.3085 26.0106L27.8763 26.0056C27.8683 26.0056 27.8605 26.0088 27.8548 26.0145C27.849 26.0203 27.8458 26.028 27.8458 26.0361Z" stroke="#66794B" stroke-width="2"/>
<path d="M36.6292 32.0928C37.2781 32.0747 37.9682 31.8397 38.1092 31.1158C38.2733 30.2715 38.0399 29.4767 37.0885 29.301C36.522 29.1972 35.9152 29.2359 35.3372 29.2343C35.3269 29.2343 35.3171 29.2383 35.3098 29.2456C35.3025 29.2529 35.2985 29.2627 35.2985 29.273V32.0573C35.2985 32.0685 35.3029 32.0792 35.3108 32.0871C35.3187 32.095 35.3294 32.0994 35.3405 32.0994C35.7819 32.1065 36.2115 32.1043 36.6292 32.0928Z" stroke="#66794B" stroke-width="2"/>
<path d="M46.1094 29.7414C46.116 29.3143 46.1173 28.8688 46.1135 28.4049C46.1091 27.9619 46.0313 27.4999 45.8802 27.0189C45.6048 26.1441 44.7456 25.8457 43.9088 26.0674C43.3885 26.206 43.0818 26.5481 42.926 27.061C42.6564 27.9457 42.6836 28.8056 42.7067 29.7381C42.7122 29.9651 42.7325 30.1779 42.7677 30.3763C42.9235 31.2593 43.1799 31.9923 44.1957 32.0921C44.927 32.1646 45.6155 31.8843 45.8612 31.1455C46.0189 30.6695 46.1017 30.2015 46.1094 29.7414Z" stroke="#66794B" stroke-width="2"/>
<path d="M11.2372 46.4407C11.2234 46.4682 11.2317 46.4819 11.2619 46.4819L14.522 46.4761C14.5312 46.4761 14.54 46.4724 14.5465 46.4657C14.5529 46.4591 14.5566 46.4501 14.5566 46.4407L14.5582 40.3237C14.5582 40.3128 14.5539 40.3023 14.5462 40.2945C14.5384 40.2868 14.528 40.2825 14.517 40.2825H12.0889C12.0553 40.2825 12.0386 40.2992 12.0386 40.3328C12.0493 42.4006 12.1895 44.541 11.2372 46.4407Z" stroke="#939395" stroke-width="2"/>
<path d="M22.8353 45.5741C23.0167 45.0998 23.1137 44.6125 23.1264 44.1123C23.1503 43.1839 23.1907 42.2671 22.9029 41.3634C22.7787 40.972 22.5734 40.6986 22.287 40.543C21.587 40.1621 20.4764 40.266 20.0914 41.0385C19.8655 41.4931 19.7437 42.0574 19.7261 42.7313C19.7014 43.6737 19.6734 44.5526 19.976 45.4595C20.126 45.9097 20.4245 46.2214 20.8796 46.3516C21.6184 46.5635 22.5344 46.3599 22.8353 45.5741Z" stroke="#66794B" stroke-width="2"/>
<path d="M51.1816 40.36L51.1866 43.1699C51.1866 43.1761 51.189 43.1819 51.1934 43.1863C51.1977 43.1906 51.2036 43.193 51.2097 43.193L52.641 43.1905C53.0105 43.1898 53.3646 43.057 53.6255 42.8212C53.8863 42.5854 54.0325 42.266 54.0319 41.9332V41.5869C54.0316 41.4221 53.9953 41.2589 53.925 41.1068C53.8547 40.9547 53.7518 40.8165 53.6222 40.7002C53.4925 40.5839 53.3387 40.4917 53.1695 40.429C53.0003 40.3662 52.8191 40.3341 52.6361 40.3345L51.2047 40.3369C51.1986 40.3369 51.1927 40.3394 51.1884 40.3437C51.1841 40.348 51.1816 40.3539 51.1816 40.36Z" stroke="#939395" stroke-width="2"/>
<path d="M59.9387 46.4012C60.6618 46.5241 61.4336 46.2825 61.7114 45.5363C62.0462 44.6343 61.9934 43.7603 61.9909 42.8262C61.9893 42.1855 61.8656 41.1203 61.3412 40.6767C60.6725 40.1103 59.294 40.2191 58.9164 41.103C58.7273 41.5449 58.6217 42.0132 58.5997 42.5079C58.5761 43.0296 58.5739 43.5899 58.5932 44.1891C58.603 44.4996 58.6646 44.866 58.7778 45.2881C58.9488 45.9274 59.3358 46.2984 59.9387 46.4012Z" stroke="#66794B" stroke-width="2"/>
<path d="M18.7426 52.6938C18.7426 52.6818 18.7378 52.6702 18.7293 52.6617C18.7208 52.6532 18.7093 52.6484 18.6972 52.6484H7.56317C7.55114 52.6484 7.53961 52.6532 7.53111 52.6617C7.5226 52.6702 7.51782 52.6818 7.51782 52.6938V59.4085C7.51782 59.4205 7.5226 59.4321 7.53111 59.4406C7.53961 59.4491 7.55114 59.4539 7.56317 59.4539H18.6972C18.7093 59.4539 18.7208 59.4491 18.7293 59.4406C18.7378 59.4321 18.7426 59.4205 18.7426 59.4085V52.6938Z" stroke="#829464" stroke-width="2"/>
<path d="M30.2624 59.7235C30.2624 59.7157 30.2593 59.7081 30.2537 59.7025C30.2482 59.697 30.2406 59.6938 30.2327 59.6938H19.0756C19.0677 59.6938 19.0602 59.697 19.0546 59.7025C19.049 59.7081 19.0459 59.7157 19.0459 59.7235V66.4679C19.0459 66.4758 19.049 66.4834 19.0546 66.4889C19.0602 66.4945 19.0677 66.4976 19.0756 66.4976H30.2327C30.2406 66.4976 30.2482 66.4945 30.2537 66.4889C30.2593 66.4834 30.2624 66.4758 30.2624 66.4679V59.7235Z" stroke="#829464" stroke-width="2"/>
<path d="M18.7426 59.8034C18.7426 59.7908 18.7375 59.7786 18.7286 59.7696C18.7196 59.7607 18.7074 59.7556 18.6948 59.7556H7.56564C7.55296 59.7556 7.5408 59.7607 7.53183 59.7696C7.52286 59.7786 7.51782 59.7908 7.51782 59.8034V66.5116C7.51782 66.5243 7.52286 66.5364 7.53183 66.5454C7.5408 66.5544 7.55296 66.5594 7.56564 66.5594H18.6948C18.7074 66.5594 18.7196 66.5544 18.7286 66.5454C18.7375 66.5364 18.7426 66.5243 18.7426 66.5116V59.8034Z" stroke="#829464" stroke-width="2"/>
<path d="M18.7426 66.8801C18.7426 66.8744 18.7403 66.8689 18.7363 66.8649C18.7323 66.8609 18.7268 66.8586 18.7211 66.8586H7.53926C7.53357 66.8586 7.52812 66.8609 7.5241 66.8649C7.52008 66.8689 7.51782 66.8744 7.51782 66.8801V73.6476C7.51782 73.6533 7.52008 73.6587 7.5241 73.6627C7.52812 73.6668 7.53357 73.669 7.53926 73.669H18.7211C18.7268 73.669 18.7323 73.6668 18.7363 73.6627C18.7403 73.6587 18.7426 73.6533 18.7426 73.6476V66.8801Z" stroke="#829464" stroke-width="2"/>
<path d="M30.2641 66.9156C30.2641 66.8998 30.2578 66.8847 30.2467 66.8736C30.2355 66.8625 30.2204 66.8562 30.2047 66.8562H19.1053C19.0895 66.8562 19.0744 66.8625 19.0633 66.8736C19.0522 66.8847 19.0459 66.8998 19.0459 66.9156V73.6089C19.0459 73.6246 19.0522 73.6397 19.0633 73.6508C19.0744 73.662 19.0895 73.6682 19.1053 73.6682H30.2047C30.2204 73.6682 30.2355 73.662 30.2467 73.6508C30.2578 73.6397 30.2641 73.6246 30.2641 73.6089V66.9156Z" stroke="#829464" stroke-width="2"/>
<path d="M41.7107 73.669C41.72 73.669 41.7292 73.6671 41.7378 73.6636C41.7464 73.66 41.7542 73.6548 41.7608 73.6482C41.7674 73.6416 41.7726 73.6338 41.7762 73.6252C41.7797 73.6166 41.7816 73.6074 41.7816 73.598L41.7874 66.932C41.7874 66.9132 41.7799 66.8951 41.7666 66.8818C41.7533 66.8685 41.7353 66.8611 41.7164 66.8611L30.6294 66.8569C30.6201 66.8569 30.6108 66.8588 30.6022 66.8623C30.5936 66.8659 30.5858 66.8711 30.5792 66.8777C30.5727 66.8843 30.5674 66.8921 30.5639 66.9007C30.5603 66.9093 30.5585 66.9185 30.5585 66.9278L30.5552 73.5956C30.5552 73.6144 30.5626 73.6324 30.5759 73.6457C30.5892 73.659 30.6073 73.6665 30.6261 73.6665L41.7107 73.669Z" stroke="#829464" stroke-width="2"/>
<path d="M62.5012 66.8604C62.4853 66.8604 62.47 66.8667 62.4587 66.878C62.4474 66.8893 62.441 66.9046 62.441 66.9206L62.4419 73.5982C62.4419 73.6142 62.4482 73.6295 62.4595 73.6408C62.4708 73.6521 62.4861 73.6584 62.5021 73.6584L73.613 73.679C73.629 73.679 73.6443 73.6727 73.6556 73.6614C73.6669 73.6501 73.6732 73.6348 73.6732 73.6188L73.6633 66.9181C73.6633 66.9021 73.657 66.8868 73.6457 66.8755C73.6344 66.8643 73.6191 66.8579 73.6031 66.8579L62.5012 66.8604Z" stroke="#829464" stroke-width="2"/>
<path d="M75.1219 6.0905V75.0963C75.1219 75.1033 75.1191 75.11 75.1142 75.115C75.1092 75.1199 75.1025 75.1227 75.0955 75.1227H6.08973C6.08274 75.1227 6.07602 75.1199 6.07108 75.115C6.06613 75.11 6.06335 75.1033 6.06335 75.0963L6.06417 30.9599C6.06426 30.9551 6.06301 30.9503 6.06057 30.9461C6.05812 30.942 6.05458 30.9386 6.05033 30.9363C6.04608 30.934 6.04127 30.9329 6.03644 30.9331C6.03161 30.9334 6.02695 30.9349 6.02295 30.9377L2.58972 33.3526C2.58687 33.3547 2.58363 33.3561 2.58021 33.3569C2.57679 33.3577 2.57324 33.3577 2.56979 33.3571C2.56633 33.3565 2.56303 33.3552 2.56009 33.3533C2.55714 33.3514 2.5546 33.3489 2.55262 33.346L1.86829 32.3459C1.86443 32.3402 1.86296 32.3332 1.8642 32.3264C1.86543 32.3196 1.86926 32.3136 1.87488 32.3096L43.7933 2.8197C43.7991 2.81585 43.806 2.81438 43.8128 2.81561C43.8196 2.81684 43.8256 2.82068 43.8296 2.8263L44.5156 3.82642C44.5195 3.83213 44.5209 3.83912 44.5197 3.8459C44.5185 3.85268 44.5146 3.85871 44.509 3.8627L41.4485 6.01629C41.444 6.01952 41.4406 6.02408 41.4388 6.02934C41.4371 6.03459 41.437 6.04026 41.4386 6.04556C41.4403 6.05085 41.4435 6.05549 41.448 6.05882C41.4524 6.06215 41.4578 6.064 41.4633 6.06411H75.0955C75.1025 6.06411 75.1092 6.06689 75.1142 6.07184C75.1191 6.07679 75.1219 6.0835 75.1219 6.0905ZM7.2597 52.3516L7.26217 73.8736C7.26217 73.9043 7.27729 73.9197 7.30752 73.9197L42.0759 73.9181L62.1426 73.9222L73.8893 73.9173C73.8931 73.9173 73.8968 73.9165 73.9003 73.9151C73.9038 73.9136 73.907 73.9115 73.9097 73.9088C73.9124 73.9061 73.9145 73.9029 73.9159 73.8994C73.9174 73.8959 73.9181 73.8922 73.9181 73.8884L73.9313 66.5594L73.9297 21.7898L73.9181 7.31158C73.9181 7.2841 73.9044 7.27008 73.8769 7.26953C72.8191 7.25634 71.7753 7.2918 70.6844 7.29262C67.9394 7.29482 65.8147 7.29097 64.3102 7.28108C63.5954 7.27613 62.9053 7.30416 62.2003 7.28685C61.439 7.26871 60.6948 7.26624 59.9676 7.27943C57.2443 7.32972 54.5481 7.26789 51.9534 7.29509C51.5104 7.29949 51.0668 7.2874 50.6227 7.25882C47.035 7.25662 43.444 7.25332 39.8498 7.24892C39.7475 7.24837 39.6546 7.2775 39.5711 7.33632C28.8135 14.9041 18.0549 22.4728 7.29515 30.0423C7.27097 30.0593 7.25888 30.0827 7.25888 30.1123L7.2597 52.3516Z" fill="white"/>
<path d="M50.6227 7.25892L50.6186 14.5145C50.6186 14.5475 50.6351 14.564 50.6681 14.564L62.1121 14.5632C62.1194 14.5632 62.1263 14.566 62.1314 14.5711C62.1365 14.5762 62.1394 14.5832 62.1394 14.5904L62.1402 21.7347C62.1402 21.7491 62.1459 21.763 62.1561 21.7732C62.1663 21.7834 62.1802 21.7891 62.1946 21.7891L73.9297 21.7899L73.9314 66.5595H62.1839C62.1721 66.5595 62.1607 66.5642 62.1524 66.5725C62.144 66.5809 62.1394 66.5922 62.1394 66.604L62.1427 73.9223L42.0759 73.9182V66.6024C42.0759 66.5738 42.0614 66.5595 42.0322 66.5595L30.5964 66.5579C30.5874 66.5579 30.5789 66.5543 30.5725 66.548C30.5662 66.5416 30.5626 66.533 30.5626 66.5241L30.5634 59.4383C30.5634 59.4263 30.5587 59.4147 30.5504 59.4062C30.542 59.3977 30.5307 59.3929 30.5189 59.3929L19.0921 59.3954C19.0608 59.3954 19.0452 59.3798 19.0452 59.3484L19.0427 52.402C19.0427 52.388 19.0372 52.3746 19.0275 52.3647C19.0177 52.3548 19.0045 52.3492 18.9907 52.3492L7.25974 52.3517L7.25891 30.1124C7.25891 30.0828 7.271 30.0594 7.29519 30.0424C18.0549 22.4729 28.8136 14.9042 39.5711 7.33643C39.6547 7.27761 39.7476 7.24848 39.8498 7.24903C43.4441 7.25343 47.035 7.25673 50.6227 7.25892ZM19.8886 31.787C19.8912 31.7792 19.8962 31.7723 19.9028 31.7675C19.9095 31.7626 19.9175 31.7599 19.9257 31.7598L23.0473 31.7614C23.0555 31.7615 23.0635 31.7642 23.0702 31.7691C23.0768 31.774 23.0818 31.7808 23.0844 31.7887L23.7547 33.7625C23.7573 33.7703 23.7622 33.7772 23.7689 33.7821C23.7755 33.7869 23.7836 33.7896 23.7918 33.7897L25.5917 33.7881C25.5979 33.788 25.604 33.7865 25.6095 33.7836C25.615 33.7807 25.6198 33.7766 25.6234 33.7715C25.627 33.7664 25.6294 33.7606 25.6303 33.7545C25.6313 33.7483 25.6307 33.742 25.6288 33.7361L22.4355 24.3376C22.4329 24.3298 22.428 24.323 22.4213 24.3181C22.4147 24.3132 22.4066 24.3105 22.3984 24.3104L20.5754 24.3088C20.5672 24.3089 20.5592 24.3116 20.5525 24.3164C20.5459 24.3213 20.5409 24.3282 20.5383 24.336L17.3434 33.7361C17.3414 33.742 17.3409 33.7483 17.3419 33.7545C17.3428 33.7606 17.3452 33.7664 17.3488 33.7715C17.3524 33.7766 17.3571 33.7807 17.3626 33.7836C17.3682 33.7865 17.3743 33.788 17.3805 33.7881L19.1828 33.7889C19.1911 33.7888 19.1991 33.7861 19.2058 33.7812C19.2124 33.7764 19.2174 33.7695 19.2199 33.7617L19.8886 31.787ZM27.883 30.5544C28.4321 30.5593 28.9677 30.5585 29.4899 30.5519C30.1809 30.5437 31.0029 30.3746 31.5545 29.9377C31.7661 29.7706 31.9714 29.5051 32.1704 29.1412C32.786 28.0171 32.7868 26.8834 32.1729 25.7401C32.008 25.4339 31.8392 25.1998 31.6666 25.0376C31.0169 24.4283 29.9731 24.3038 29.0777 24.3071C27.9943 24.311 26.929 24.3115 25.8819 24.3088C25.8676 24.3088 25.8605 24.3157 25.8605 24.3294V33.7361C25.8605 33.7431 25.8618 33.7501 25.8645 33.7565C25.8672 33.763 25.8711 33.7688 25.876 33.7737C25.8809 33.7786 25.8867 33.7825 25.8931 33.7851C25.8995 33.7877 25.9064 33.789 25.9132 33.7889L27.7972 33.7881C27.809 33.7881 27.8204 33.7833 27.8287 33.7748C27.8371 33.7663 27.8418 33.7547 27.8418 33.7427L27.8401 30.5973C27.8401 30.5681 27.8544 30.5538 27.883 30.5544ZM35.3398 26.0023L39.3716 26.0073C39.4024 26.0073 39.4178 25.9919 39.4178 25.9611L39.4202 24.3525C39.4203 24.347 39.4193 24.3415 39.4173 24.3364C39.4153 24.3314 39.4123 24.3267 39.4084 24.3228C39.4046 24.3189 39.4 24.3158 39.395 24.3136C39.3899 24.3115 39.3845 24.3104 39.379 24.3104L33.3502 24.3113C33.3463 24.3113 33.3425 24.312 33.3389 24.3135C33.3353 24.315 33.332 24.3172 33.3293 24.3199C33.3265 24.3227 33.3243 24.326 33.3228 24.3296C33.3213 24.3332 33.3206 24.337 33.3206 24.3409L33.3222 33.7279C33.3222 33.7434 33.3285 33.7583 33.3396 33.7693C33.3507 33.7803 33.3658 33.7864 33.3816 33.7864C34.5969 33.7908 35.7644 33.7905 36.8841 33.7856C37.8256 33.7815 38.9082 33.5333 39.454 32.6742C39.9858 31.8365 40.2423 30.9064 40.004 29.9203C39.8531 29.2962 39.4606 28.4601 38.8983 28.0817C38.3047 27.6826 37.5239 27.5557 36.8197 27.5474C36.3487 27.5414 35.8556 27.5403 35.3406 27.5441C35.3354 27.5442 35.3303 27.5433 35.3255 27.5414C35.3207 27.5395 35.3163 27.5367 35.3127 27.5331C35.309 27.5295 35.306 27.5252 35.304 27.5204C35.302 27.5156 35.301 27.5105 35.301 27.5054L35.3027 26.0394C35.3027 26.0296 35.3066 26.0201 35.3135 26.0132C35.3205 26.0062 35.3299 26.0023 35.3398 26.0023ZM42.1114 24.8233C41.1047 25.4482 40.7666 26.9002 40.7361 28.052C40.7158 28.7946 40.7177 29.5144 40.7419 30.2114C40.7749 31.1612 41.0948 32.515 41.9077 33.1408C42.3901 33.5127 42.9961 33.6867 43.6037 33.751C44.7778 33.8746 46.3213 33.8054 47.1392 32.9256C47.798 32.2166 48.0602 31.0425 48.0841 30.0704C48.0989 29.4493 48.1006 28.818 48.089 28.1765C48.0742 27.3685 47.9373 26.5597 47.5803 25.8292C47.2184 25.0888 46.6321 24.6567 45.8464 24.4671C44.7589 24.2049 43.114 24.2008 42.1114 24.8233ZM54.549 26.0204L54.5473 33.7279C54.5473 33.7686 54.5677 33.7889 54.6084 33.7889L56.4858 33.7872C56.4962 33.7872 56.5063 33.783 56.5137 33.7754C56.5212 33.7678 56.5253 33.7576 56.5253 33.7468V24.3508C56.5253 24.3403 56.5212 24.3303 56.5137 24.3228C56.5063 24.3154 56.4962 24.3113 56.4858 24.3113L50.095 24.3121C50.0648 24.3121 50.0497 24.3272 50.0497 24.3574C50.0491 26.1235 50.0505 27.8786 50.0538 29.6227C50.0549 29.9987 50.0013 30.4029 49.893 30.8355C49.6927 31.6369 49.2747 32.0541 48.4592 32.1003C48.4443 32.1012 48.4302 32.1077 48.42 32.1186C48.4097 32.1295 48.404 32.1439 48.404 32.1589V33.7435C48.404 33.75 48.4053 33.7564 48.4078 33.7624C48.4103 33.7683 48.4139 33.7737 48.4185 33.7782C48.4231 33.7828 48.4286 33.7863 48.4346 33.7887C48.4406 33.7911 48.447 33.7923 48.4535 33.7922C50.025 33.7683 51.2551 33.3503 51.7531 31.6947C51.9334 31.0955 52.0249 30.4972 52.0277 29.8997C52.0332 28.6608 52.0337 27.3603 52.0293 25.9982C52.0293 25.9872 52.0337 25.9768 52.0414 25.969C52.0491 25.9613 52.0596 25.957 52.0705 25.957L54.4863 25.9578C54.5281 25.9578 54.549 25.9787 54.549 26.0204ZM59.0673 29.9005L59.059 24.35C59.059 24.3397 59.055 24.3297 59.0477 24.3223C59.0405 24.3149 59.0306 24.3106 59.0203 24.3104L57.1025 24.3088C57.0972 24.3088 57.0922 24.3109 57.0885 24.3146C57.0848 24.3183 57.0827 24.3233 57.0827 24.3286L57.0835 33.7279C57.0835 33.7438 57.0899 33.7592 57.1011 33.7704C57.1124 33.7817 57.1277 33.7881 57.1437 33.7881H59.0796C59.0946 33.7881 59.1093 33.784 59.1222 33.7763C59.1351 33.7687 59.1458 33.7576 59.153 33.7444L62.0874 28.2458C62.1336 28.1589 62.1567 28.1647 62.1567 28.2631L62.1575 33.7229C62.1575 33.74 62.1643 33.7563 62.1763 33.7684C62.1884 33.7805 62.2047 33.7872 62.2218 33.7872L64.0967 33.7889C64.128 33.7889 64.1437 33.7732 64.1437 33.7419L64.147 24.3467C64.147 24.3364 64.1429 24.3266 64.1357 24.3193C64.1284 24.312 64.1185 24.308 64.1083 24.308L62.1558 24.3113C62.1376 24.3112 62.1198 24.3161 62.1041 24.3254C62.0884 24.3347 62.0755 24.348 62.0668 24.364L59.1077 29.9104C59.0807 29.9616 59.0673 29.9583 59.0673 29.9005ZM69.1155 26.0608C69.1155 26.0495 69.12 26.0386 69.128 26.0305C69.1361 26.0225 69.147 26.018 69.1583 26.018L71.7209 26.0188C71.7323 26.0188 71.7432 26.0143 71.7512 26.0062C71.7592 25.9982 71.7638 25.9873 71.7638 25.9759L71.7629 24.3533C71.7629 24.3419 71.7584 24.331 71.7504 24.323C71.7423 24.3149 71.7314 24.3104 71.7201 24.3104H64.5774C64.566 24.3104 64.5551 24.3149 64.5471 24.323C64.539 24.331 64.5345 24.3419 64.5345 24.3533L64.5444 25.9743C64.5444 25.9856 64.5489 25.9965 64.557 26.0046C64.565 26.0126 64.5759 26.0171 64.5873 26.0171L67.1433 26.0147C67.1546 26.0147 67.1655 26.0192 67.1736 26.0272C67.1816 26.0353 67.1861 26.0462 67.1861 26.0575L67.187 33.7477C67.187 33.759 67.1915 33.7699 67.1995 33.778C67.2075 33.786 67.2184 33.7905 67.2298 33.7905L69.0734 33.7881C69.0848 33.7881 69.0957 33.7836 69.1037 33.7755C69.1118 33.7675 69.1163 33.7566 69.1163 33.7452L69.1155 26.0608ZM68.159 36.6252C67.5797 36.6878 67.2427 36.4182 67.1482 35.8163C67.1389 35.7564 67.1037 35.7265 67.0427 35.7265L65.782 35.7248C65.7772 35.7248 65.7724 35.7258 65.7679 35.7278C65.7635 35.7297 65.7595 35.7327 65.7563 35.7363C65.753 35.74 65.7505 35.7443 65.749 35.749C65.7475 35.7537 65.7469 35.7586 65.7474 35.7636C65.8669 36.7851 66.5364 37.7383 67.6074 37.8842C68.3775 37.9897 69.1072 37.8174 69.6316 37.2147C69.9845 36.809 70.1947 36.3352 70.2623 35.7933C70.2684 35.7476 70.2483 35.7248 70.2021 35.7248L68.9283 35.724C68.9097 35.724 68.8917 35.7311 68.8781 35.744C68.8645 35.7568 68.8562 35.7745 68.8549 35.7933C68.8261 36.2055 68.5993 36.5782 68.159 36.6252ZM15.3629 48.1583L15.3613 49.4231C15.3613 49.4366 15.3667 49.4496 15.3763 49.4592C15.3858 49.4688 15.3988 49.4742 15.4124 49.4742L17.2733 49.4734C17.3228 49.4734 17.3475 49.4486 17.3475 49.3992L17.3483 46.5283C17.3483 46.4958 17.3321 46.4796 17.2997 46.4796L16.5717 46.4763C16.5667 46.4763 16.5617 46.4754 16.5571 46.4735C16.5525 46.4716 16.5484 46.4689 16.5448 46.4654C16.5413 46.462 16.5385 46.4579 16.5366 46.4534C16.5347 46.4489 16.5337 46.4441 16.5337 46.4392V38.6749C16.5337 38.67 16.5327 38.6652 16.5308 38.6607C16.5289 38.6562 16.5261 38.6521 16.5226 38.6487C16.5191 38.6452 16.5149 38.6425 16.5103 38.6406C16.5057 38.6387 16.5008 38.6378 16.4958 38.6378L10.0869 38.6386C10.0628 38.6386 10.0507 38.6507 10.0507 38.6749C10.049 40.0331 10.0468 41.3661 10.0441 42.6737C10.043 43.2377 10.0147 43.7893 9.95915 44.3285C9.88412 45.0606 9.73901 45.7549 9.33913 46.3807C9.29845 46.445 9.24019 46.4777 9.16433 46.4788C8.92743 46.4821 8.68475 46.4813 8.4363 46.4763C8.43186 46.4763 8.42746 46.4772 8.42336 46.4788C8.41926 46.4805 8.41553 46.4829 8.41239 46.486C8.40926 46.489 8.40677 46.4927 8.40507 46.4967C8.40337 46.5007 8.40249 46.505 8.40249 46.5093L8.40497 49.4379C8.40497 49.4473 8.40862 49.4563 8.41511 49.463C8.4216 49.4696 8.43041 49.4734 8.4396 49.4734L10.3318 49.4742C10.3676 49.4742 10.3854 49.4563 10.3854 49.4206L10.3862 48.1451C10.3862 48.1377 10.3891 48.1305 10.3942 48.1253C10.3993 48.12 10.4062 48.1171 10.4135 48.1171H15.3225C15.3495 48.1171 15.3629 48.1308 15.3629 48.1583ZM18.1794 40.3173C17.92 40.9335 17.7798 41.5988 17.7589 42.3134C17.7402 42.9543 17.74 43.6565 17.7581 44.42C17.7771 45.2503 17.9601 46.1201 18.3864 46.8407C19.1581 48.1426 20.897 48.2152 22.3011 48.0684C23.4076 47.953 24.2511 47.4608 24.6905 46.4112C24.9368 45.823 25.072 45.1577 25.0962 44.4151C25.1209 43.6791 25.1212 42.9763 25.097 42.3068C25.0712 41.5933 24.9384 40.9475 24.6988 40.3692C24.3112 39.4326 23.6112 38.9082 22.6103 38.7384C21.783 38.5977 20.9662 38.6037 20.1599 38.7565C19.2013 38.9379 18.5411 39.4582 18.1794 40.3173ZM27.6843 42.5731C27.6947 42.5665 27.7016 42.566 27.7049 42.5715C28.2842 43.5796 28.8916 44.6256 29.527 45.7095C29.5346 45.7224 29.5453 45.733 29.558 45.7403C29.5707 45.7477 29.5851 45.7516 29.5996 45.7516L30.5626 45.7557C30.5786 45.7557 30.5943 45.7516 30.6082 45.7436C30.6221 45.7356 30.6337 45.7242 30.6418 45.7104C31.2673 44.6281 31.8664 43.5977 32.4392 42.6193C32.4513 42.5984 32.468 42.5819 32.4895 42.5698C32.4912 42.5688 32.4932 42.5683 32.4952 42.5683C32.4972 42.5683 32.4992 42.5688 32.501 42.5698C32.5027 42.5708 32.5042 42.5722 32.5052 42.574C32.5062 42.5757 32.5068 42.5777 32.5068 42.5797L32.5043 48.0594C32.5043 48.0665 32.5057 48.0736 32.5085 48.0802C32.5112 48.0868 32.5152 48.0928 32.5202 48.0978C32.5253 48.1029 32.5313 48.1069 32.5379 48.1096C32.5445 48.1124 32.5516 48.1138 32.5587 48.1138L34.4477 48.1154C34.4579 48.1154 34.4678 48.1113 34.4751 48.1038C34.4823 48.0964 34.4864 48.0863 34.4864 48.0758L34.4856 38.6906C34.4856 38.6559 34.4683 38.6386 34.4336 38.6386H32.4886C32.4557 38.6386 32.4312 38.6526 32.4153 38.6807L30.119 42.6061C30.1155 42.6121 30.1104 42.6171 30.1043 42.6205C30.0981 42.6239 30.0912 42.6257 30.0842 42.6256C30.0771 42.6255 30.0701 42.6236 30.064 42.62C30.0578 42.6165 30.0526 42.6114 30.0489 42.6053L27.7436 38.665C27.7386 38.6564 27.7315 38.6494 27.723 38.6445C27.7144 38.6395 27.7048 38.6369 27.695 38.637L25.7319 38.6378C25.7011 38.6378 25.6857 38.6532 25.6857 38.684V48.0725C25.6857 48.1006 25.7 48.1146 25.7286 48.1146H27.6167C27.6235 48.1146 27.6302 48.1133 27.6364 48.1107C27.6427 48.1081 27.6483 48.1043 27.6531 48.0996C27.6579 48.0948 27.6616 48.0892 27.6641 48.083C27.6667 48.0768 27.6679 48.0702 27.6678 48.0635L27.6628 42.6144C27.6628 42.5968 27.67 42.583 27.6843 42.5731ZM35.5624 40.2851C35.3172 40.8513 35.1771 41.4543 35.1419 42.0941C35.1078 42.7246 35.0979 43.4144 35.1122 44.1636C35.1386 45.5232 35.4692 47.22 36.8651 47.8005C37.3675 48.0088 37.9581 48.1132 38.6369 48.1138C39.4697 48.1149 40.3129 48.1154 41.1665 48.1154C41.1967 48.1154 41.2119 48.1003 41.2119 48.0701V46.4623C41.2119 46.4572 41.2109 46.4522 41.209 46.4476C41.207 46.4429 41.2042 46.4387 41.2007 46.4352C41.1972 46.4317 41.193 46.4289 41.1884 46.427C41.1838 46.4252 41.1789 46.4243 41.1739 46.4244C40.3555 46.4348 39.5434 46.431 38.7375 46.4128C37.9691 46.3952 37.4865 46.0234 37.2897 45.2973C37.1897 44.9268 37.132 44.6215 37.1166 44.3813C37.0852 43.8712 37.0795 43.288 37.0993 42.6317C37.1135 42.1683 37.1996 41.7118 37.3573 41.2622C37.6203 40.511 38.2931 40.3247 39.0162 40.3264C39.6923 40.3275 40.4085 40.3286 41.1649 40.3297C41.1962 40.3302 41.2119 40.3145 41.2119 40.2827V38.6774C41.2119 38.6669 41.2078 38.6568 41.2005 38.6494C41.1932 38.642 41.1834 38.6378 41.1731 38.6378C40.3827 38.6383 39.5519 38.6394 38.6806 38.6411C37.3565 38.6427 36.1288 38.9775 35.5624 40.2851ZM44.1644 40.3437C44.174 40.3437 44.1833 40.3475 44.1901 40.3543C44.1969 40.3611 44.2007 40.3703 44.2007 40.38L44.1999 48.0783C44.1999 48.0831 44.2008 48.0878 44.2026 48.0922C44.2044 48.0966 44.2071 48.1006 44.2105 48.104C44.2138 48.1073 44.2179 48.11 44.2223 48.1118C44.2267 48.1137 44.2314 48.1146 44.2361 48.1146H46.0995C46.1043 48.1146 46.109 48.1137 46.1134 48.1118C46.1178 48.11 46.1218 48.1073 46.1252 48.104C46.1285 48.1006 46.1312 48.0966 46.133 48.0922C46.1348 48.0878 46.1358 48.0831 46.1358 48.0783L46.1341 40.3775C46.1341 40.3679 46.138 40.3586 46.1448 40.3518C46.1516 40.345 46.1608 40.3412 46.1704 40.3412L48.7429 40.3428C48.7525 40.3428 48.7617 40.339 48.7685 40.3322C48.7753 40.3254 48.7791 40.3162 48.7791 40.3066L48.7775 38.6741C48.7775 38.6644 48.7737 38.6552 48.7669 38.6484C48.7601 38.6416 48.7508 38.6378 48.7412 38.6378L41.5911 38.6394C41.5815 38.6394 41.5723 38.6433 41.5655 38.6501C41.5587 38.6569 41.5549 38.6661 41.5549 38.6757L41.5532 40.3049C41.5532 40.3097 41.5541 40.3144 41.556 40.3188C41.5578 40.3232 41.5605 40.3272 41.5638 40.3306C41.5672 40.3339 41.5712 40.3366 41.5756 40.3384C41.58 40.3403 41.5847 40.3412 41.5895 40.3412L44.1644 40.3437ZM51.2403 44.8793C51.7042 44.882 52.1928 44.8823 52.7062 44.8801C53.5637 44.876 54.5853 44.6797 55.1336 44.0267C55.437 43.6656 55.6689 43.225 55.8294 42.705C56.1625 41.6299 55.8839 40.4888 55.2036 39.5827C54.4756 38.6122 52.9709 38.6279 51.8883 38.6353C51.0171 38.6419 50.1423 38.6419 49.2639 38.6353C49.2249 38.6348 49.2054 38.6543 49.2054 38.6938L49.2046 48.0725C49.2046 48.0837 49.2091 48.0944 49.2171 48.1023C49.2252 48.1102 49.2361 48.1146 49.2475 48.1146H51.1455C51.1718 48.1146 51.185 48.1011 51.185 48.0742L51.1834 44.9353C51.1834 44.8979 51.2023 44.8793 51.2403 44.8793ZM56.9565 40.5275C56.7587 41.0734 56.6476 41.6282 56.6234 42.1922C56.5949 42.8666 56.5938 43.6296 56.6201 44.481C56.6465 45.3138 56.8301 46.0558 57.1709 46.7072C57.5906 47.5094 58.3425 47.9134 59.2008 48.0387C59.9995 48.1564 60.7729 48.1473 61.521 48.0115C62.2408 47.8821 62.9127 47.5218 63.2986 46.8935C63.7587 46.144 63.9368 45.2396 63.9615 44.3442C63.9796 43.6692 63.9785 42.9994 63.9582 42.3348C63.9467 41.9583 63.9002 41.5777 63.8189 41.1929C63.5831 40.0815 63.0257 39.1589 61.8747 38.8357C61.1502 38.6323 60.318 38.5856 59.3781 38.6955C58.1883 38.8357 57.3737 39.3732 56.9565 40.5275ZM66.5232 44.2361V38.6774C66.5232 38.6723 66.5222 38.6672 66.5202 38.6625C66.5182 38.6578 66.5153 38.6536 66.5116 38.65C66.508 38.6464 66.5036 38.6435 66.4988 38.6416C66.494 38.6396 66.4888 38.6386 66.4837 38.6386L64.5823 38.6378C64.5773 38.6378 64.5722 38.6388 64.5675 38.6408C64.5628 38.6428 64.5585 38.6457 64.5549 38.6494C64.5513 38.6531 64.5485 38.6574 64.5465 38.6622C64.5446 38.667 64.5436 38.6722 64.5436 38.6774V48.0734C64.5436 48.0841 64.5478 48.0944 64.5554 48.1019C64.563 48.1095 64.5733 48.1138 64.584 48.1138L66.5653 48.1146C66.5732 48.1146 66.581 48.1125 66.5879 48.1084C66.5947 48.1044 66.6003 48.0985 66.604 48.0915L69.5582 42.5542C69.6011 42.4739 69.6225 42.4791 69.6225 42.5698V48.0775C69.6225 48.1022 69.6349 48.1146 69.6596 48.1146H71.5716C71.598 48.1146 71.6112 48.1014 71.6112 48.075V38.6765C71.6112 38.6518 71.5989 38.6394 71.5741 38.6394L69.5945 38.6386C69.5825 38.6386 69.5707 38.6419 69.5604 38.6481C69.5501 38.6544 69.5416 38.6634 69.536 38.6741L66.5636 44.246C66.5367 44.2966 66.5232 44.2933 66.5232 44.2361Z" fill="#26272B"/>
<path d="M50.6228 7.25879C51.0669 7.28737 51.5105 7.29946 51.9535 7.29507C54.5482 7.26786 57.2443 7.3297 59.9677 7.2794C60.6949 7.26621 61.4391 7.26868 62.2004 7.28682C62.9054 7.30414 63.5955 7.2761 64.3103 7.28105C65.8148 7.29094 67.9395 7.29479 70.6845 7.29259C71.7753 7.29177 72.8192 7.25632 73.877 7.26951C73.9045 7.27006 73.9182 7.28407 73.9182 7.31156L73.9298 21.7898L62.1946 21.789C62.1802 21.789 62.1664 21.7832 62.1562 21.773C62.146 21.7628 62.1402 21.749 62.1402 21.7346L62.1394 14.5903C62.1394 14.583 62.1365 14.5761 62.1314 14.571C62.1263 14.5659 62.1194 14.563 62.1122 14.563L50.6681 14.5639C50.6351 14.5639 50.6187 14.5474 50.6187 14.5144L50.6228 7.25879ZM73.6709 7.50202C73.6709 7.49411 73.6693 7.48629 73.6663 7.47898C73.6633 7.47168 73.6588 7.46505 73.6532 7.45946C73.6477 7.45387 73.641 7.44944 73.6337 7.44641C73.6264 7.44339 73.6186 7.44183 73.6107 7.44183H62.5014C62.4854 7.44183 62.4701 7.44817 62.4588 7.45946C62.4475 7.47074 62.4412 7.48605 62.4412 7.50202V14.2069C62.4412 14.2228 62.4475 14.2381 62.4588 14.2494C62.4701 14.2607 62.4854 14.267 62.5014 14.267H73.6107C73.6186 14.267 73.6264 14.2655 73.6337 14.2625C73.641 14.2594 73.6477 14.255 73.6532 14.2494C73.6588 14.2438 73.6633 14.2372 73.6663 14.2299C73.6693 14.2226 73.6709 14.2148 73.6709 14.2069V7.50202ZM62.1386 7.50037C62.1386 7.48528 62.1326 7.47081 62.1219 7.46014C62.1113 7.44947 62.0968 7.44348 62.0817 7.44348H50.9757C50.9682 7.44348 50.9608 7.44495 50.9539 7.44781C50.947 7.45067 50.9407 7.45486 50.9354 7.46014C50.9302 7.46542 50.926 7.4717 50.9231 7.4786C50.9202 7.4855 50.9188 7.4929 50.9188 7.50037V14.2118C50.9188 14.2193 50.9202 14.2267 50.9231 14.2336C50.926 14.2405 50.9302 14.2468 50.9354 14.252C50.9407 14.2573 50.947 14.2615 50.9539 14.2644C50.9608 14.2672 50.9682 14.2687 50.9757 14.2687H62.0817C62.0968 14.2687 62.1113 14.2627 62.1219 14.252C62.1326 14.2414 62.1386 14.2269 62.1386 14.2118V7.50037ZM73.6107 21.4864C73.6258 21.4864 73.6402 21.4804 73.6509 21.4697C73.6616 21.459 73.6676 21.4446 73.6676 21.4295L73.6659 14.7444C73.6659 14.7293 73.6599 14.7149 73.6493 14.7042C73.6386 14.6935 73.6241 14.6875 73.609 14.6875H62.4981C62.4906 14.6875 62.4832 14.689 62.4763 14.6919C62.4694 14.6947 62.4631 14.6989 62.4578 14.7042C62.4526 14.7095 62.4484 14.7158 62.4455 14.7227C62.4426 14.7296 62.4412 14.737 62.4412 14.7444L62.442 21.4287C62.442 21.4438 62.448 21.4582 62.4587 21.4689C62.4693 21.4796 62.4838 21.4856 62.4989 21.4856L73.6107 21.4864Z" fill="#A6CA6A"/>
<path d="M73.6107 7.44189H62.5013C62.4681 7.44189 62.4412 7.46884 62.4412 7.50208V14.2069C62.4412 14.2402 62.4681 14.2671 62.5013 14.2671H73.6107C73.6439 14.2671 73.6709 14.2402 73.6709 14.2069V7.50208C73.6709 7.46884 73.6439 7.44189 73.6107 7.44189Z" fill="#5D5D5D"/>
<path d="M62.0816 7.4436H50.9756C50.9442 7.4436 50.9187 7.46907 50.9187 7.50049V14.2119C50.9187 14.2434 50.9442 14.2688 50.9756 14.2688H62.0816C62.113 14.2688 62.1385 14.2434 62.1385 14.2119V7.50049C62.1385 7.46907 62.113 7.4436 62.0816 7.4436Z" fill="#5D5D5D"/>
<path d="M73.6107 21.4866L62.4989 21.4858C62.4838 21.4858 62.4693 21.4798 62.4586 21.4691C62.448 21.4584 62.442 21.444 62.442 21.4289L62.4412 14.7446C62.4412 14.7372 62.4426 14.7298 62.4455 14.7229C62.4484 14.716 62.4525 14.7097 62.4578 14.7044C62.4631 14.6991 62.4694 14.6949 62.4763 14.6921C62.4832 14.6892 62.4906 14.6877 62.4981 14.6877H73.609C73.6241 14.6877 73.6386 14.6937 73.6493 14.7044C73.6599 14.7151 73.6659 14.7295 73.6659 14.7446L73.6676 21.4297C73.6676 21.4448 73.6616 21.4592 73.6509 21.4699C73.6402 21.4806 73.6258 21.4866 73.6107 21.4866Z" fill="#5D5D5D"/>
<path d="M19.8886 31.7871L19.22 33.7617C19.2174 33.7696 19.2124 33.7764 19.2058 33.7813C19.1991 33.7862 19.1911 33.7888 19.1829 33.7889L17.3805 33.7881C17.3743 33.788 17.3682 33.7865 17.3627 33.7836C17.3572 33.7808 17.3524 33.7766 17.3488 33.7716C17.3452 33.7665 17.3428 33.7607 17.3419 33.7545C17.3409 33.7484 17.3415 33.7421 17.3434 33.7362L20.5384 24.336C20.5409 24.3282 20.5459 24.3214 20.5525 24.3165C20.5592 24.3116 20.5672 24.3089 20.5755 24.3088L22.3984 24.3105C22.4067 24.3106 22.4147 24.3133 22.4213 24.3181C22.428 24.323 22.433 24.3299 22.4355 24.3377L25.6288 33.7362C25.6308 33.7421 25.6313 33.7484 25.6304 33.7545C25.6294 33.7607 25.6271 33.7665 25.6234 33.7716C25.6198 33.7766 25.6151 33.7808 25.6096 33.7836C25.604 33.7865 25.5979 33.788 25.5917 33.7881L23.7918 33.7898C23.7836 33.7897 23.7756 33.787 23.7689 33.7821C23.7623 33.7772 23.7573 33.7704 23.7547 33.7626L23.0844 31.7887C23.0818 31.7809 23.0769 31.774 23.0702 31.7692C23.0636 31.7643 23.0556 31.7616 23.0473 31.7615L19.9258 31.7599C19.9175 31.76 19.9095 31.7626 19.9028 31.7675C19.8962 31.7724 19.8912 31.7792 19.8886 31.7871ZM20.4897 30.0226C20.4883 30.027 20.4879 30.0316 20.4886 30.0361C20.4893 30.0406 20.491 30.0448 20.4937 30.0485C20.4963 30.0522 20.4998 30.0552 20.5038 30.0573C20.5079 30.0594 20.5124 30.0605 20.5169 30.0606L22.4561 30.0639C22.4607 30.0638 22.4652 30.0627 22.4692 30.0606C22.4733 30.0585 22.4768 30.0555 22.4794 30.0518C22.4821 30.0481 22.4838 30.0438 22.4845 30.0393C22.4852 30.0348 22.4848 30.0302 22.4834 30.0259L21.5187 27.1723C21.5168 27.1667 21.5132 27.1617 21.5084 27.1582C21.5035 27.1547 21.4977 27.1528 21.4918 27.1527C21.4858 27.1526 21.48 27.1543 21.475 27.1577C21.4701 27.1611 21.4663 27.1659 21.4643 27.1715L20.4897 30.0226Z" fill="#A6CA6A"/>
<path d="M27.883 30.5544C27.8544 30.5539 27.8401 30.5682 27.8401 30.5973L27.8417 33.7428C27.8417 33.7548 27.8371 33.7663 27.8287 33.7748C27.8204 33.7834 27.809 33.7881 27.7972 33.7881L25.9132 33.789C25.9063 33.7891 25.8995 33.7878 25.8931 33.7852C25.8867 33.7826 25.8809 33.7787 25.876 33.7738C25.8711 33.7689 25.8672 33.763 25.8645 33.7566C25.8618 33.7501 25.8605 33.7432 25.8605 33.7362V24.3295C25.8605 24.3157 25.8676 24.3088 25.8819 24.3088C26.929 24.3116 27.9943 24.311 29.0777 24.3072C29.9731 24.3039 31.0169 24.4284 31.6666 25.0377C31.8392 25.1999 32.008 25.434 32.1729 25.7402C32.7868 26.8835 32.786 28.0172 32.1704 29.1412C31.9714 29.5051 31.7661 29.7706 31.5545 29.9377C31.0029 30.3747 30.1809 30.5437 29.4899 30.552C28.9677 30.5586 28.4321 30.5594 27.883 30.5544ZM27.8459 26.0362L27.836 28.8279C27.836 28.836 27.8392 28.8438 27.8449 28.8495C27.8506 28.8552 27.8584 28.8584 27.8665 28.8584L29.2986 28.8634C29.6668 28.8646 30.0204 28.7337 30.2815 28.4995C30.5427 28.2652 30.69 27.9468 30.6912 27.6143L30.6929 27.2696C30.6935 27.1049 30.6581 26.9417 30.5889 26.7893C30.5196 26.6368 30.4178 26.4982 30.2892 26.3813C30.1607 26.2644 30.0079 26.1715 29.8396 26.1079C29.6714 26.0443 29.4909 26.0112 29.3085 26.0106L27.8764 26.0057C27.8683 26.0057 27.8605 26.0089 27.8548 26.0146C27.8491 26.0203 27.8459 26.0281 27.8459 26.0362Z" fill="#A6CA6A"/>
<path d="M35.3398 26.0022C35.3299 26.0022 35.3205 26.0061 35.3135 26.013C35.3066 26.02 35.3027 26.0294 35.3027 26.0393L35.301 27.5052C35.301 27.5104 35.302 27.5155 35.304 27.5203C35.306 27.525 35.309 27.5293 35.3126 27.5329C35.3163 27.5365 35.3207 27.5394 35.3255 27.5413C35.3303 27.5432 35.3354 27.5441 35.3406 27.544C35.8556 27.5401 36.3487 27.5412 36.8197 27.5473C37.5239 27.5555 38.3047 27.6825 38.8983 28.0816C39.4606 28.46 39.8531 29.2961 40.004 29.9202C40.2422 30.9063 39.9858 31.8363 39.454 32.674C38.9082 33.5332 37.8256 33.7813 36.8841 33.7855C35.7644 33.7904 34.5969 33.7907 33.3816 33.7863C33.3658 33.7863 33.3507 33.7801 33.3396 33.7691C33.3285 33.7582 33.3222 33.7433 33.3222 33.7278L33.3206 24.3408C33.3206 24.3369 33.3213 24.333 33.3228 24.3294C33.3243 24.3258 33.3265 24.3226 33.3293 24.3198C33.332 24.3171 33.3353 24.3149 33.3389 24.3134C33.3425 24.3119 33.3463 24.3111 33.3502 24.3111L39.379 24.3103C39.3845 24.3103 39.3899 24.3114 39.395 24.3135C39.4 24.3156 39.4046 24.3188 39.4084 24.3227C39.4123 24.3266 39.4153 24.3312 39.4173 24.3363C39.4193 24.3414 39.4203 24.3469 39.4202 24.3523L39.4177 25.961C39.4177 25.9917 39.4024 26.0071 39.3716 26.0071L35.3398 26.0022ZM36.6293 32.0928C37.2782 32.0746 37.9683 31.8396 38.1093 31.1157C38.2733 30.2714 38.04 29.4766 37.0885 29.301C36.5221 29.1971 35.9153 29.2359 35.3373 29.2342C35.327 29.2342 35.3172 29.2383 35.3099 29.2456C35.3026 29.2528 35.2985 29.2627 35.2985 29.273V32.0573C35.2985 32.0685 35.303 32.0792 35.3109 32.087C35.3187 32.0949 35.3294 32.0994 35.3406 32.0994C35.782 32.1065 36.2115 32.1043 36.6293 32.0928Z" fill="#A6CA6A"/>
<path d="M40.7361 28.0519C40.7666 26.9001 41.1047 25.4481 42.1114 24.8232C43.114 24.2007 44.7588 24.2048 45.8464 24.467C46.6321 24.6566 47.2183 25.0887 47.5803 25.8291C47.9373 26.5596 48.0742 27.3684 48.089 28.1764C48.1005 28.8179 48.0989 29.4492 48.0841 30.0703C48.0601 31.0424 47.798 32.2165 47.1392 32.9256C46.3213 33.8053 44.7778 33.8746 43.6037 33.7509C42.9961 33.6866 42.3901 33.5126 41.9077 33.1407C41.0948 32.5149 40.7749 31.1611 40.7419 30.2113C40.7177 29.5143 40.7158 28.7945 40.7361 28.0519ZM46.1094 29.7413C46.116 29.3142 46.1173 28.8687 46.1135 28.4048C46.1091 27.9618 46.0313 27.4998 45.8802 27.0188C45.6048 26.144 44.7457 25.8456 43.9088 26.0674C43.3885 26.2059 43.0818 26.548 42.926 27.0609C42.6564 27.9456 42.6836 28.8055 42.7067 29.738C42.7122 29.965 42.7325 30.1778 42.7677 30.3762C42.9235 31.2592 43.1799 31.9922 44.1957 32.092C44.927 32.1645 45.6155 31.8842 45.8612 31.1455C46.019 30.6694 46.1017 30.2014 46.1094 29.7413Z" fill="#A6CA6A"/>
<path d="M54.4863 25.9578L52.0705 25.957C52.0596 25.957 52.0491 25.9613 52.0413 25.9691C52.0336 25.9768 52.0293 25.9873 52.0293 25.9982C52.0337 27.3603 52.0331 28.6608 52.0276 29.8998C52.0249 30.4972 51.9333 31.0956 51.7531 31.6947C51.2551 33.3503 50.0249 33.7683 48.4534 33.7922C48.4469 33.7923 48.4405 33.7912 48.4345 33.7888C48.4285 33.7864 48.4231 33.7828 48.4185 33.7783C48.4139 33.7737 48.4102 33.7683 48.4077 33.7624C48.4052 33.7564 48.4039 33.75 48.4039 33.7436V32.1589C48.4039 32.1439 48.4096 32.1295 48.4199 32.1186C48.4302 32.1077 48.4442 32.1012 48.4592 32.1003C49.2746 32.0542 49.6926 31.637 49.893 30.8356C50.0013 30.403 50.0549 29.9987 50.0538 29.6227C50.0505 27.8786 50.0491 26.1235 50.0496 24.3575C50.0496 24.3272 50.0648 24.3121 50.095 24.3121L56.4857 24.3113C56.4962 24.3113 56.5063 24.3155 56.5137 24.3229C56.5211 24.3303 56.5253 24.3404 56.5253 24.3509V33.7469C56.5253 33.7576 56.5211 33.7679 56.5137 33.7754C56.5063 33.783 56.4962 33.7873 56.4857 33.7873L54.6083 33.7889C54.5676 33.7889 54.5473 33.7686 54.5473 33.7279L54.5489 26.0205C54.5489 25.9787 54.5281 25.9578 54.4863 25.9578Z" fill="#A6CA6A"/>
<path d="M59.0672 29.9005C59.0672 29.9582 59.0807 29.9615 59.1076 29.9103L62.0668 24.3639C62.0755 24.3479 62.0884 24.3346 62.104 24.3253C62.1197 24.316 62.1376 24.3111 62.1558 24.3112L64.1082 24.3079C64.1185 24.3079 64.1283 24.3119 64.1356 24.3192C64.1429 24.3265 64.147 24.3363 64.147 24.3466L64.1437 33.7418C64.1437 33.7731 64.128 33.7888 64.0967 33.7888L62.2218 33.7871C62.2047 33.7871 62.1883 33.7804 62.1763 33.7683C62.1642 33.7563 62.1574 33.7399 62.1574 33.7228L62.1566 28.263C62.1566 28.1646 62.1335 28.1588 62.0874 28.2457L59.153 33.7443C59.1457 33.7575 59.1351 33.7686 59.1222 33.7762C59.1093 33.7839 59.0945 33.788 59.0796 33.788H57.1437C57.1277 33.788 57.1124 33.7816 57.1011 33.7703C57.0898 33.7591 57.0835 33.7437 57.0835 33.7278L57.0826 24.3285C57.0826 24.3232 57.0847 24.3182 57.0884 24.3145C57.0921 24.3108 57.0972 24.3087 57.1024 24.3087L59.0202 24.3103C59.0306 24.3106 59.0404 24.3148 59.0477 24.3222C59.0549 24.3296 59.059 24.3396 59.059 24.3499L59.0672 29.9005Z" fill="#A6CA6A"/>
<path d="M69.1155 26.0607L69.1163 33.7451C69.1163 33.7564 69.1118 33.7673 69.1037 33.7754C69.0957 33.7834 69.0848 33.7879 69.0734 33.7879L67.2298 33.7904C67.2185 33.7904 67.2076 33.7859 67.1995 33.7779C67.1915 33.7698 67.187 33.7589 67.187 33.7475L67.1861 26.0574C67.1861 26.046 67.1816 26.0351 67.1736 26.0271C67.1655 26.0191 67.1546 26.0145 67.1433 26.0145L64.5873 26.017C64.5759 26.017 64.565 26.0125 64.557 26.0045C64.549 25.9964 64.5444 25.9855 64.5444 25.9741L64.5345 24.3532C64.5345 24.3418 64.5391 24.3309 64.5471 24.3229C64.5551 24.3148 64.566 24.3103 64.5774 24.3103H71.7201C71.7314 24.3103 71.7423 24.3148 71.7504 24.3229C71.7584 24.3309 71.763 24.3418 71.763 24.3532L71.7638 25.9758C71.7638 25.9872 71.7593 25.9981 71.7512 26.0061C71.7432 26.0142 71.7323 26.0187 71.7209 26.0187L69.1583 26.0178C69.147 26.0178 69.1361 26.0224 69.128 26.0304C69.12 26.0384 69.1155 26.0493 69.1155 26.0607Z" fill="#A6CA6A"/>
<path d="M27.8458 26.0361C27.8458 26.028 27.849 26.0203 27.8548 26.0145C27.8605 26.0088 27.8683 26.0056 27.8763 26.0056L29.3085 26.0106C29.4909 26.0112 29.6713 26.0442 29.8396 26.1078C30.0079 26.1714 30.1607 26.2643 30.2892 26.3812C30.4178 26.4982 30.5196 26.6368 30.5888 26.7892C30.6581 26.9416 30.6934 27.1049 30.6928 27.2696L30.6912 27.6142C30.69 27.9468 30.5426 28.2652 30.2815 28.4994C30.0203 28.7337 29.6668 28.8646 29.2986 28.8633L27.8664 28.8584C27.8584 28.8584 27.8506 28.8552 27.8449 28.8494C27.8392 28.8437 27.8359 28.836 27.8359 28.8279L27.8458 26.0361Z" fill="#26272B"/>
<path d="M46.1094 29.7414C46.1017 30.2015 46.0189 30.6695 45.8612 31.1455C45.6155 31.8843 44.927 32.1646 44.1957 32.0921C43.1799 31.9923 42.9235 31.2593 42.7677 30.3763C42.7325 30.1779 42.7122 29.9651 42.7067 29.7381C42.6836 28.8056 42.6564 27.9457 42.926 27.061C43.0818 26.5481 43.3885 26.206 43.9088 26.0674C44.7456 25.8457 45.6048 26.1441 45.8802 27.0189C46.0313 27.4999 46.1091 27.9619 46.1135 28.4049C46.1173 28.8688 46.116 29.3143 46.1094 29.7414Z" fill="#26272B"/>
<path d="M20.4896 30.0226L21.4642 27.1714C21.4663 27.1658 21.47 27.161 21.4749 27.1576C21.4799 27.1543 21.4857 27.1525 21.4917 27.1526C21.4977 27.1527 21.5034 27.1546 21.5083 27.1581C21.5131 27.1617 21.5167 27.1666 21.5186 27.1723L22.4833 30.0259C22.4847 30.0302 22.4851 30.0348 22.4844 30.0393C22.4837 30.0438 22.482 30.048 22.4793 30.0517C22.4767 30.0554 22.4732 30.0585 22.4691 30.0606C22.4651 30.0626 22.4606 30.0637 22.4561 30.0638L20.5168 30.0605C20.5123 30.0605 20.5078 30.0593 20.5038 30.0573C20.4997 30.0552 20.4962 30.0521 20.4936 30.0484C20.4909 30.0447 20.4892 30.0405 20.4885 30.036C20.4878 30.0315 20.4882 30.0269 20.4896 30.0226Z" fill="#26272B"/>
<path d="M38.1093 31.1158C37.9683 31.8397 37.2782 32.0747 36.6293 32.0928C36.2116 32.1043 35.782 32.1065 35.3406 32.0994C35.3295 32.0994 35.3188 32.095 35.3109 32.0871C35.303 32.0792 35.2986 32.0685 35.2986 32.0573V29.273C35.2986 29.2627 35.3027 29.2529 35.3099 29.2456C35.3172 29.2383 35.3271 29.2343 35.3373 29.2343C35.9153 29.2359 36.5221 29.1972 37.0886 29.301C38.0401 29.4767 38.2734 30.2715 38.1093 31.1158Z" fill="#26272B"/>
<path d="M68.159 36.6251C68.5993 36.5781 68.826 36.2054 68.8549 35.7931C68.8562 35.7743 68.8644 35.7567 68.8781 35.7439C68.8917 35.731 68.9096 35.7238 68.9283 35.7239L70.2021 35.7247C70.2483 35.7247 70.2684 35.7475 70.2623 35.7931C70.1947 36.3351 69.9845 36.8089 69.6316 37.2146C69.1072 37.8173 68.3775 37.9896 67.6074 37.8841C66.5364 37.7381 65.8669 36.785 65.7474 35.7635C65.7469 35.7585 65.7474 35.7535 65.749 35.7488C65.7505 35.7442 65.753 35.7398 65.7562 35.7362C65.7595 35.7325 65.7635 35.7296 65.7679 35.7276C65.7723 35.7257 65.7771 35.7247 65.782 35.7247L67.0426 35.7263C67.1037 35.7263 67.1388 35.7563 67.1482 35.8162C67.2427 36.4181 67.5797 36.6877 68.159 36.6251Z" fill="white"/>
<path d="M15.3629 48.1582C15.3629 48.1307 15.3494 48.117 15.3225 48.117H10.4134C10.4062 48.117 10.3993 48.1199 10.3942 48.1252C10.3891 48.1305 10.3862 48.1376 10.3862 48.145L10.3854 49.4205C10.3854 49.4563 10.3675 49.4741 10.3318 49.4741L8.43957 49.4733C8.43039 49.4733 8.42158 49.4696 8.41508 49.4629C8.40859 49.4563 8.40494 49.4472 8.40494 49.4378L8.40247 46.5092C8.40247 46.5049 8.40334 46.5006 8.40504 46.4966C8.40674 46.4926 8.40923 46.489 8.41237 46.4859C8.41551 46.4828 8.41923 46.4804 8.42333 46.4787C8.42744 46.4771 8.43183 46.4762 8.43627 46.4762C8.68472 46.4812 8.9274 46.482 9.1643 46.4787C9.24016 46.4776 9.29842 46.4449 9.3391 46.3806C9.73898 45.7548 9.88409 45.0606 9.95912 44.3284C10.0146 43.7892 10.0429 43.2376 10.044 42.6736C10.0468 41.366 10.049 40.033 10.0506 38.6748C10.0506 38.6506 10.0627 38.6385 10.0869 38.6385L16.4958 38.6377C16.5007 38.6377 16.5057 38.6387 16.5103 38.6405C16.5149 38.6424 16.5191 38.6451 16.5226 38.6486C16.5261 38.652 16.5289 38.6561 16.5308 38.6606C16.5327 38.6651 16.5337 38.6699 16.5337 38.6748V46.4391C16.5337 46.444 16.5347 46.4488 16.5366 46.4533C16.5385 46.4578 16.5413 46.4619 16.5448 46.4654C16.5483 46.4688 16.5525 46.4715 16.5571 46.4734C16.5617 46.4753 16.5666 46.4762 16.5716 46.4762L17.2997 46.4795C17.3321 46.4795 17.3483 46.4957 17.3483 46.5282L17.3475 49.3991C17.3475 49.4486 17.3227 49.4733 17.2733 49.4733L15.4124 49.4741C15.3988 49.4741 15.3858 49.4687 15.3762 49.4591C15.3666 49.4496 15.3613 49.4366 15.3613 49.423L15.3629 48.1582ZM11.2371 46.4408C11.2234 46.4683 11.2316 46.482 11.2618 46.482L14.5219 46.4762C14.5311 46.4762 14.5399 46.4725 14.5464 46.4658C14.5529 46.4592 14.5565 46.4502 14.5565 46.4408L14.5582 40.3238C14.5582 40.3129 14.5538 40.3024 14.5461 40.2946C14.5384 40.2869 14.5279 40.2826 14.517 40.2826H12.0888C12.0553 40.2826 12.0385 40.2993 12.0385 40.3329C12.0492 42.4007 12.1894 44.5411 11.2371 46.4408Z" fill="white"/>
<path d="M18.1795 40.3173C18.5412 39.4582 19.2013 38.9379 20.1599 38.7565C20.9663 38.6037 21.7831 38.5977 22.6103 38.7384C23.6113 38.9082 24.3113 39.4326 24.6988 40.3693C24.9385 40.9475 25.0712 41.5934 25.097 42.3068C25.1212 42.9763 25.1209 43.6791 25.0962 44.4151C25.072 45.1577 24.9368 45.8231 24.6906 46.4112C24.2511 47.4608 23.4076 47.953 22.3012 48.0684C20.897 48.2152 19.1582 48.1427 18.3864 46.8408C17.9602 46.1202 17.7771 45.2503 17.7582 44.42C17.74 43.6565 17.7403 42.9543 17.759 42.3134C17.7799 41.5989 17.92 40.9335 18.1795 40.3173ZM22.8354 45.5743C23.0168 45.1 23.1138 44.6127 23.1265 44.1125C23.1504 43.1841 23.1908 42.2673 22.903 41.3636C22.7788 40.9722 22.5735 40.6988 22.2871 40.5432C21.5871 40.1623 20.4765 40.2662 20.0915 41.0388C19.8656 41.4933 19.7438 42.0576 19.7262 42.7315C19.7015 43.6739 19.6735 44.5528 19.9761 45.4597C20.1261 45.9099 20.4246 46.2216 20.8797 46.3518C21.6185 46.5637 22.5345 46.3601 22.8354 45.5743Z" fill="#A6CA6A"/>
<path d="M27.6843 42.5731C27.67 42.583 27.6628 42.5968 27.6628 42.6144L27.6678 48.0635C27.6679 48.0702 27.6666 48.0768 27.6641 48.083C27.6616 48.0892 27.6578 48.0948 27.6531 48.0996C27.6483 48.1043 27.6427 48.1081 27.6364 48.1107C27.6301 48.1133 27.6234 48.1146 27.6166 48.1146H25.7285C25.7 48.1146 25.6857 48.1006 25.6857 48.0726V38.684C25.6857 38.6532 25.7011 38.6378 25.7318 38.6378L27.695 38.637C27.7048 38.637 27.7144 38.6395 27.7229 38.6445C27.7315 38.6494 27.7386 38.6565 27.7436 38.665L30.0489 42.6053C30.0526 42.6114 30.0578 42.6165 30.0639 42.62C30.0701 42.6236 30.0771 42.6255 30.0841 42.6256C30.0912 42.6257 30.0981 42.6239 30.1042 42.6205C30.1104 42.6171 30.1154 42.6121 30.119 42.6061L32.4152 38.6807C32.4312 38.6526 32.4556 38.6386 32.4886 38.6386H34.4336C34.4683 38.6386 34.4856 38.6559 34.4856 38.6906L34.4864 48.0759C34.4864 48.0864 34.4823 48.0964 34.475 48.1038C34.4678 48.1113 34.4579 48.1154 34.4476 48.1154L32.5587 48.1138C32.5516 48.1138 32.5445 48.1124 32.5379 48.1096C32.5313 48.1069 32.5253 48.1029 32.5202 48.0978C32.5152 48.0928 32.5112 48.0868 32.5084 48.0802C32.5057 48.0736 32.5043 48.0665 32.5043 48.0594L32.5068 42.5797C32.5067 42.5777 32.5062 42.5757 32.5052 42.574C32.5042 42.5723 32.5027 42.5708 32.5009 42.5698C32.4992 42.5688 32.4972 42.5683 32.4952 42.5683C32.4932 42.5683 32.4912 42.5688 32.4894 42.5698C32.468 42.5819 32.4512 42.5984 32.4392 42.6193C31.8664 43.5977 31.2673 44.6281 30.6417 45.7104C30.6337 45.7242 30.6221 45.7356 30.6082 45.7436C30.5943 45.7516 30.5786 45.7557 30.5626 45.7557L29.5996 45.7516C29.5851 45.7516 29.5707 45.7477 29.558 45.7404C29.5453 45.733 29.5346 45.7224 29.527 45.7095C28.8916 44.6256 28.2842 43.5796 27.7049 42.5715C27.7016 42.566 27.6947 42.5665 27.6843 42.5731Z" fill="white"/>
<path d="M35.5623 40.2851C36.1288 38.9774 37.3565 38.6426 38.6806 38.641C39.5518 38.6393 40.3827 38.6382 41.1731 38.6377C41.1834 38.6377 41.1932 38.6419 41.2005 38.6493C41.2077 38.6567 41.2118 38.6668 41.2118 38.6773V40.2826C41.2118 40.3145 41.1962 40.3301 41.1648 40.3296C40.4085 40.3285 39.6923 40.3274 39.0162 40.3263C38.2931 40.3246 37.6203 40.511 37.3573 41.2621C37.1995 41.7117 37.1135 42.1682 37.0992 42.6316C37.0794 43.2879 37.0852 43.8711 37.1165 44.3812C37.1319 44.6214 37.1896 44.9267 37.2897 45.2972C37.4865 46.0233 37.9691 46.3952 38.7375 46.4127C39.5433 46.4309 40.3554 46.4347 41.1739 46.4243C41.1788 46.4242 41.1838 46.4251 41.1883 46.4269C41.1929 46.4288 41.1971 46.4316 41.2007 46.4351C41.2042 46.4386 41.207 46.4428 41.2089 46.4475C41.2108 46.4522 41.2118 46.4572 41.2118 46.4622V48.07C41.2118 48.1002 41.1967 48.1153 41.1665 48.1153C40.3128 48.1153 39.4697 48.1148 38.6369 48.1137C37.9581 48.1131 37.3675 48.0087 36.8651 47.8004C35.4692 47.2199 35.1386 45.5231 35.1122 44.1635C35.0979 43.4143 35.1078 42.7245 35.1419 42.094C35.177 41.4542 35.3172 40.8512 35.5623 40.2851Z" fill="white"/>
<path d="M44.1644 40.3436L41.5895 40.3411C41.5847 40.3411 41.58 40.3402 41.5756 40.3384C41.5712 40.3365 41.5672 40.3339 41.5639 40.3305C41.5605 40.3271 41.5578 40.3231 41.556 40.3187C41.5542 40.3143 41.5532 40.3096 41.5532 40.3048L41.5549 38.6756C41.5549 38.666 41.5587 38.6568 41.5655 38.65C41.5723 38.6432 41.5815 38.6393 41.5912 38.6393L48.7412 38.6377C48.7508 38.6377 48.7601 38.6415 48.7669 38.6483C48.7737 38.6551 48.7775 38.6644 48.7775 38.674L48.7792 40.3065C48.7792 40.3161 48.7753 40.3253 48.7685 40.3321C48.7617 40.3389 48.7525 40.3428 48.7429 40.3428L46.1704 40.3411C46.1608 40.3411 46.1516 40.3449 46.1448 40.3517C46.138 40.3585 46.1342 40.3678 46.1342 40.3774L46.1358 48.0782C46.1358 48.083 46.1349 48.0877 46.133 48.0921C46.1312 48.0965 46.1285 48.1005 46.1252 48.1039C46.1218 48.1073 46.1178 48.1099 46.1134 48.1117C46.109 48.1136 46.1043 48.1145 46.0995 48.1145H44.2362C44.2314 48.1145 44.2267 48.1136 44.2223 48.1117C44.2179 48.1099 44.2139 48.1073 44.2105 48.1039C44.2071 48.1005 44.2045 48.0965 44.2026 48.0921C44.2008 48.0877 44.1999 48.083 44.1999 48.0782L44.2007 40.3799C44.2007 40.3702 44.1969 40.361 44.1901 40.3542C44.1833 40.3474 44.174 40.3436 44.1644 40.3436Z" fill="white"/>
<path d="M51.1834 44.9353L51.185 48.0742C51.185 48.1011 51.1718 48.1146 51.1455 48.1146H49.2475C49.2361 48.1146 49.2252 48.1101 49.2171 48.1022C49.2091 48.0944 49.2046 48.0837 49.2046 48.0725L49.2054 38.6938C49.2054 38.6542 49.2249 38.6347 49.264 38.6353C50.1423 38.6419 51.0171 38.6419 51.8883 38.6353C52.9709 38.6279 54.4756 38.6122 55.2037 39.5826C55.8839 40.4888 56.1626 41.6299 55.8295 42.705C55.669 43.225 55.437 43.6656 55.1336 44.0267C54.5853 44.6797 53.5637 44.8759 52.7062 44.88C52.1929 44.8822 51.7042 44.882 51.2403 44.8792C51.2024 44.8792 51.1834 44.8979 51.1834 44.9353ZM51.1817 40.3601L51.1867 43.17C51.1867 43.1762 51.1891 43.182 51.1935 43.1864C51.1978 43.1907 51.2037 43.1931 51.2098 43.1931L52.6411 43.1906C53.0106 43.1899 53.3647 43.0571 53.6256 42.8213C53.8864 42.5855 54.0326 42.2661 54.032 41.9333V41.587C54.0317 41.4222 53.9954 41.259 53.9251 41.1069C53.8548 40.9548 53.7519 40.8166 53.6223 40.7003C53.4926 40.584 53.3388 40.4918 53.1696 40.4291C53.0004 40.3663 52.8192 40.3342 52.6362 40.3346L51.2048 40.337C51.1987 40.337 51.1928 40.3395 51.1885 40.3438C51.1842 40.3481 51.1817 40.354 51.1817 40.3601Z" fill="white"/>
<path d="M56.9566 40.5276C57.3738 39.3733 58.1884 38.8357 59.3781 38.6956C60.3181 38.5856 61.1503 38.6323 61.8747 38.8357C63.0257 39.1589 63.5831 40.0815 63.8189 41.193C63.9003 41.5777 63.9467 41.9584 63.9583 42.3349C63.9786 42.9995 63.9797 43.6692 63.9615 44.3442C63.9368 45.2396 63.7587 46.1441 63.2987 46.8936C62.9128 47.5218 62.2408 47.8821 61.521 48.0116C60.7729 48.1474 59.9995 48.1564 59.2009 48.0388C58.3426 47.9135 57.5906 47.5095 57.171 46.7072C56.8302 46.0559 56.6466 45.3138 56.6202 44.4811C56.5938 43.6296 56.5949 42.8667 56.6235 42.1923C56.6477 41.6283 56.7587 41.0734 56.9566 40.5276ZM59.9388 46.4013C60.6619 46.5242 61.4336 46.2826 61.7115 45.5364C62.0462 44.6344 61.9935 43.7605 61.991 42.8263C61.9893 42.1857 61.8657 41.1204 61.3413 40.6768C60.6726 40.1104 59.294 40.2192 58.9164 41.1031C58.7273 41.545 58.6218 42.0133 58.5998 42.508C58.5762 43.0297 58.574 43.5901 58.5932 44.1892C58.6031 44.4998 58.6647 44.8661 58.7779 45.2883C58.9489 45.9275 59.3358 46.2986 59.9388 46.4013Z" fill="#A6CA6A"/>
<path d="M66.5232 44.2361C66.5232 44.2932 66.5367 44.2965 66.5636 44.246L69.5359 38.674C69.5416 38.6633 69.5501 38.6543 69.5604 38.6481C69.5707 38.6418 69.5825 38.6385 69.5945 38.6385L71.5741 38.6393C71.5988 38.6393 71.6112 38.6517 71.6112 38.6764V48.0749C71.6112 48.1013 71.598 48.1145 71.5716 48.1145H69.6596C69.6349 48.1145 69.6225 48.1021 69.6225 48.0774V42.5697C69.6225 42.479 69.6011 42.4738 69.5582 42.5541L66.604 48.0914C66.6003 48.0984 66.5947 48.1043 66.5878 48.1084C66.581 48.1124 66.5732 48.1146 66.5653 48.1145L64.584 48.1137C64.5733 48.1137 64.563 48.1094 64.5554 48.1019C64.5478 48.0943 64.5436 48.084 64.5436 48.0733V38.6773C64.5436 38.6721 64.5446 38.6669 64.5465 38.6621C64.5485 38.6573 64.5513 38.653 64.5549 38.6493C64.5585 38.6456 64.5628 38.6427 64.5675 38.6407C64.5722 38.6387 64.5772 38.6377 64.5823 38.6377L66.4836 38.6385C66.4888 38.6385 66.494 38.6395 66.4988 38.6415C66.5036 38.6434 66.5079 38.6463 66.5116 38.6499C66.5153 38.6535 66.5182 38.6577 66.5202 38.6624C66.5222 38.6671 66.5232 38.6722 66.5232 38.6773V44.2361Z" fill="white"/>
<path d="M11.2372 46.4409C12.1895 44.5413 12.0493 42.4009 12.0386 40.333C12.0386 40.2995 12.0553 40.2827 12.0889 40.2827H14.517C14.528 40.2827 14.5384 40.2871 14.5462 40.2948C14.5539 40.3025 14.5582 40.313 14.5582 40.3239L14.5566 46.4409C14.5566 46.4503 14.5529 46.4593 14.5465 46.466C14.54 46.4726 14.5312 46.4764 14.522 46.4764L11.2619 46.4821C11.2317 46.4821 11.2234 46.4684 11.2372 46.4409Z" fill="#26272B"/>
<path d="M22.8353 45.5744C22.5344 46.3601 21.6184 46.5638 20.8796 46.3519C20.4245 46.2216 20.126 45.9099 19.976 45.4598C19.6734 44.5528 19.7014 43.6739 19.7261 42.7315C19.7437 42.0576 19.8655 41.4934 20.0914 41.0388C20.4764 40.2662 21.587 40.1623 22.287 40.5433C22.5734 40.6988 22.7787 40.9723 22.9029 41.3636C23.1907 42.2673 23.1503 43.1841 23.1264 44.1125C23.1137 44.6127 23.0167 45.1 22.8353 45.5744Z" fill="#26272B"/>
<path d="M51.1818 40.36C51.1818 40.3539 51.1842 40.348 51.1885 40.3437C51.1929 40.3394 51.1987 40.3369 51.2048 40.3369L52.6362 40.3345C52.8192 40.3341 53.0005 40.3662 53.1697 40.429C53.3389 40.4917 53.4927 40.5839 53.6223 40.7002C53.7519 40.8165 53.8548 40.9547 53.9251 41.1068C53.9954 41.2589 54.0318 41.4221 54.0321 41.5869V41.9332C54.0327 42.266 53.8865 42.5854 53.6256 42.8212C53.3648 43.057 53.0106 43.1898 52.6411 43.1905L51.2098 43.193C51.2037 43.193 51.1978 43.1906 51.1935 43.1863C51.1891 43.1819 51.1867 43.1761 51.1867 43.1699L51.1818 40.36Z" fill="#26272B"/>
<path d="M61.7114 45.5363C61.4336 46.2825 60.6618 46.5241 59.9387 46.4012C59.3358 46.2984 58.9488 45.9274 58.7778 45.2881C58.6646 44.866 58.603 44.4996 58.5932 44.1891C58.5739 43.5899 58.5761 43.0296 58.5997 42.5079C58.6217 42.0132 58.7273 41.5449 58.9164 41.103C59.294 40.2191 60.6725 40.1103 61.3412 40.6767C61.8656 41.1203 61.9893 42.1855 61.9909 42.8262C61.9934 43.7603 62.0462 44.6343 61.7114 45.5363Z" fill="#26272B"/>
<path d="M7.25977 52.3516L18.9908 52.3491C19.0045 52.3491 19.0178 52.3547 19.0275 52.3646C19.0372 52.3745 19.0427 52.3879 19.0427 52.4019L19.0452 59.3483C19.0452 59.3796 19.0608 59.3953 19.0922 59.3953L30.5189 59.3928C30.5308 59.3928 30.5421 59.3976 30.5504 59.4061C30.5588 59.4146 30.5635 59.4262 30.5635 59.4382L30.5626 66.5239C30.5626 66.5329 30.5662 66.5415 30.5725 66.5478C30.5789 66.5542 30.5875 66.5578 30.5964 66.5578L42.0323 66.5594C42.0614 66.5594 42.076 66.5737 42.076 66.6023V73.9181L7.30759 73.9197C7.27735 73.9197 7.26224 73.9043 7.26224 73.8735L7.25977 52.3516ZM18.7426 52.6938C18.7426 52.6817 18.7378 52.6702 18.7293 52.6617C18.7208 52.6532 18.7093 52.6484 18.6972 52.6484H7.56318C7.55115 52.6484 7.53962 52.6532 7.53112 52.6617C7.52261 52.6702 7.51783 52.6817 7.51783 52.6938V59.4085C7.51783 59.4205 7.52261 59.4321 7.53112 59.4406C7.53962 59.4491 7.55115 59.4538 7.56318 59.4538H18.6972C18.7093 59.4538 18.7208 59.4491 18.7293 59.4406C18.7378 59.4321 18.7426 59.4205 18.7426 59.4085V52.6938ZM30.2625 59.7235C30.2625 59.7156 30.2594 59.708 30.2538 59.7025C30.2483 59.6969 30.2407 59.6938 30.2328 59.6938H19.0757C19.0678 59.6938 19.0603 59.6969 19.0547 59.7025C19.0491 59.708 19.046 59.7156 19.046 59.7235V66.4679C19.046 66.4757 19.0491 66.4833 19.0547 66.4889C19.0603 66.4944 19.0678 66.4976 19.0757 66.4976H30.2328C30.2407 66.4976 30.2483 66.4944 30.2538 66.4889C30.2594 66.4833 30.2625 66.4757 30.2625 66.4679V59.7235ZM18.7426 59.8034C18.7426 59.7908 18.7376 59.7786 18.7286 59.7696C18.7196 59.7607 18.7075 59.7556 18.6948 59.7556H7.56565C7.55297 59.7556 7.54081 59.7607 7.53184 59.7696C7.52287 59.7786 7.51783 59.7908 7.51783 59.8034V66.5116C7.51783 66.5243 7.52287 66.5364 7.53184 66.5454C7.54081 66.5544 7.55297 66.5594 7.56565 66.5594H18.6948C18.7075 66.5594 18.7196 66.5544 18.7286 66.5454C18.7376 66.5364 18.7426 66.5243 18.7426 66.5116V59.8034ZM18.7426 66.8801C18.7426 66.8744 18.7403 66.869 18.7363 66.865C18.7323 66.8609 18.7268 66.8587 18.7212 66.8587H7.53927C7.53358 66.8587 7.52813 66.8609 7.52411 66.865C7.52009 66.869 7.51783 66.8744 7.51783 66.8801V73.6476C7.51783 73.6533 7.52009 73.6588 7.52411 73.6628C7.52813 73.6668 7.53358 73.6691 7.53927 73.6691H18.7212C18.7268 73.6691 18.7323 73.6668 18.7363 73.6628C18.7403 73.6588 18.7426 73.6533 18.7426 73.6476V66.8801ZM30.2642 66.9156C30.2642 66.8998 30.2579 66.8847 30.2468 66.8736C30.2357 66.8625 30.2206 66.8562 30.2048 66.8562H19.1054C19.0896 66.8562 19.0745 66.8625 19.0634 66.8736C19.0523 66.8847 19.046 66.8998 19.046 66.9156V73.6089C19.046 73.6246 19.0523 73.6397 19.0634 73.6509C19.0745 73.662 19.0896 73.6682 19.1054 73.6682H30.2048C30.2206 73.6682 30.2357 73.662 30.2468 73.6509C30.2579 73.6397 30.2642 73.6246 30.2642 73.6089V66.9156ZM41.7107 73.6691C41.72 73.6691 41.7293 73.6672 41.7379 73.6637C41.7465 73.6601 41.7543 73.6549 41.7609 73.6483C41.7674 73.6417 41.7727 73.6339 41.7762 73.6253C41.7798 73.6167 41.7816 73.6075 41.7816 73.5982L41.7874 66.9321C41.7874 66.9133 41.7799 66.8952 41.7666 66.8819C41.7533 66.8686 41.7353 66.8612 41.7165 66.8612L30.6294 66.857C30.6201 66.857 30.6109 66.8589 30.6023 66.8624C30.5937 66.866 30.5859 66.8712 30.5793 66.8778C30.5727 66.8844 30.5675 66.8922 30.5639 66.9008C30.5604 66.9094 30.5585 66.9186 30.5585 66.928L30.5552 73.5957C30.5552 73.6145 30.5627 73.6325 30.576 73.6458C30.5893 73.6591 30.6073 73.6666 30.6261 73.6666L41.7107 73.6691Z" fill="#A6CA6A"/>
<path d="M18.6972 52.6484H7.56317C7.53813 52.6484 7.51782 52.6687 7.51782 52.6938V59.4085C7.51782 59.4336 7.53813 59.4539 7.56317 59.4539H18.6972C18.7223 59.4539 18.7426 59.4336 18.7426 59.4085V52.6938C18.7426 52.6687 18.7223 52.6484 18.6972 52.6484Z" fill="#5D5D5D"/>
<path d="M30.2329 59.6938H19.0757C19.0593 59.6938 19.046 59.7071 19.046 59.7235V66.4679C19.046 66.4843 19.0593 66.4976 19.0757 66.4976H30.2329C30.2492 66.4976 30.2625 66.4843 30.2625 66.4679V59.7235C30.2625 59.7071 30.2492 59.6938 30.2329 59.6938Z" fill="#5D5D5D"/>
<path d="M18.6948 59.7556H7.56564C7.53923 59.7556 7.51782 59.777 7.51782 59.8034V66.5116C7.51782 66.538 7.53923 66.5594 7.56564 66.5594H18.6948C18.7212 66.5594 18.7426 66.538 18.7426 66.5116V59.8034C18.7426 59.777 18.7212 59.7556 18.6948 59.7556Z" fill="#5D5D5D"/>
<path d="M73.9314 66.5596L73.9182 73.8886C73.9182 73.8924 73.9175 73.8961 73.916 73.8996C73.9146 73.9031 73.9125 73.9063 73.9098 73.909C73.9071 73.9117 73.9039 73.9138 73.9004 73.9152C73.8969 73.9167 73.8932 73.9174 73.8894 73.9174L62.1427 73.9224L62.1394 66.6041C62.1394 66.5923 62.1441 66.581 62.1524 66.5726C62.1608 66.5643 62.1721 66.5596 62.1839 66.5596H73.9314ZM62.5014 66.8605C62.4854 66.8605 62.4701 66.8669 62.4588 66.8781C62.4475 66.8894 62.4412 66.9047 62.4412 66.9207L62.442 73.5983C62.442 73.6143 62.4483 73.6296 62.4596 73.6409C62.4709 73.6522 62.4862 73.6585 62.5022 73.6585L73.6132 73.6791C73.6291 73.6791 73.6444 73.6728 73.6557 73.6615C73.667 73.6502 73.6733 73.6349 73.6733 73.6189L73.6635 66.9182C73.6635 66.9023 73.6571 66.887 73.6458 66.8757C73.6345 66.8644 73.6192 66.858 73.6033 66.858L62.5014 66.8605Z" fill="#A6CA6A"/>
<path d="M18.7211 66.8589H7.53926C7.52742 66.8589 7.51782 66.8685 7.51782 66.8803V73.6478C7.51782 73.6597 7.52742 73.6693 7.53926 73.6693H18.7211C18.733 73.6693 18.7426 73.6597 18.7426 73.6478V66.8803C18.7426 66.8685 18.733 66.8589 18.7211 66.8589Z" fill="#5D5D5D"/>
<path d="M30.2048 66.8564H19.1054C19.0726 66.8564 19.046 66.883 19.046 66.9158V73.6091C19.046 73.6419 19.0726 73.6685 19.1054 73.6685H30.2048C30.2376 73.6685 30.2642 73.6419 30.2642 73.6091V66.9158C30.2642 66.883 30.2376 66.8564 30.2048 66.8564Z" fill="#5D5D5D"/>
<path d="M41.7107 73.6692L30.6261 73.6667C30.6073 73.6667 30.5892 73.6593 30.5759 73.646C30.5626 73.6327 30.5552 73.6146 30.5552 73.5958L30.5585 66.9281C30.5585 66.9188 30.5603 66.9096 30.5639 66.9009C30.5674 66.8923 30.5727 66.8845 30.5792 66.8779C30.5858 66.8714 30.5936 66.8661 30.6022 66.8626C30.6108 66.859 30.6201 66.8572 30.6294 66.8572L41.7164 66.8613C41.7353 66.8613 41.7533 66.8688 41.7666 66.8821C41.7799 66.8954 41.7874 66.9134 41.7874 66.9322L41.7816 73.5983C41.7816 73.6076 41.7797 73.6168 41.7762 73.6254C41.7726 73.634 41.7674 73.6418 41.7608 73.6484C41.7542 73.655 41.7464 73.6602 41.7378 73.6638C41.7292 73.6674 41.72 73.6692 41.7107 73.6692Z" fill="#5D5D5D"/>
<path d="M62.5013 66.8604L73.6033 66.8579C73.6192 66.8579 73.6345 66.8643 73.6458 66.8755C73.6571 66.8868 73.6634 66.9021 73.6634 66.9181L73.6733 73.6188C73.6733 73.6348 73.667 73.6501 73.6557 73.6614C73.6444 73.6727 73.6291 73.679 73.6132 73.679L62.5022 73.6584C62.4862 73.6584 62.4709 73.6521 62.4596 73.6408C62.4483 73.6295 62.442 73.6142 62.442 73.5982L62.4412 66.9206C62.4412 66.9046 62.4475 66.8893 62.4588 66.878C62.4701 66.8667 62.4854 66.8604 62.5013 66.8604Z" fill="#5D5D5D"/>
</svg>
